<svg xmlns="http://www.w3.org/2000/svg" width="296" height="76" viewBox="0 0 296 76"><g fill="none" fill-rule="evenodd"><path fill="#2E2E2E" d="M108.56 46.764h11.196V51h-16.47V25.406h5.273v21.358zM133.466 51c-.235-.457-.404-1.025-.51-1.705-1.23 1.37-2.83 2.057-4.8 2.057-1.862 0-3.406-.54-4.63-1.618-1.225-1.078-1.838-2.437-1.838-4.078 0-2.015.747-3.562 2.24-4.64 1.495-1.08 3.654-1.623 6.478-1.635h2.338v-1.09c0-.878-.225-1.58-.677-2.108-.452-.528-1.164-.79-2.136-.79-.856 0-1.527.204-2.013.614-.485.41-.73.973-.73 1.687h-5.08c0-1.1.34-2.12 1.02-3.058.68-.938 1.64-1.673 2.884-2.206 1.242-.534 2.636-.8 4.183-.8 2.344 0 4.204.588 5.58 1.766 1.378 1.177 2.067 2.833 2.067 4.965v8.245c.01 1.805.263 3.17.756 4.096v.3h-5.133zm-4.2-3.533c.75 0 1.44-.167 2.073-.5.633-.335 1.1-.783 1.406-1.346v-3.268h-1.898c-2.543 0-3.897.878-4.06 2.636l-.018.3c0 .632.222 1.153.668 1.564.445.41 1.054.615 1.828.615zm23.167-10.723c-.692-.094-1.3-.14-1.83-.14-1.92 0-3.18.65-3.778 1.95V51h-5.08V31.98h4.8l.14 2.268c1.02-1.746 2.43-2.62 4.236-2.62.562 0 1.09.077 1.582.23l-.07 4.886zM165.37 51c-.233-.457-.403-1.025-.51-1.705-1.23 1.37-2.83 2.057-4.798 2.057-1.863 0-3.407-.54-4.63-1.618-1.226-1.078-1.838-2.437-1.838-4.078 0-2.015.747-3.562 2.24-4.64 1.495-1.08 3.654-1.623 6.478-1.635h2.338v-1.09c0-.878-.225-1.58-.676-2.108-.452-.528-1.163-.79-2.136-.79-.856 0-1.526.204-2.013.614-.486.41-.73.973-.73 1.687h-5.08c0-1.1.34-2.12 1.02-3.058.68-.938 1.64-1.673 2.883-2.206 1.242-.534 2.637-.8 4.184-.8 2.343 0 4.204.588 5.58 1.766 1.378 1.177 2.066 2.833 2.066 4.965v8.245c.012 1.805.264 3.17.756 4.096v.3h-5.133zm-4.2-3.533c.75 0 1.44-.167 2.074-.5.633-.335 1.102-.783 1.406-1.346v-3.268h-1.898c-2.543 0-3.897.878-4.06 2.636l-.018.3c0 .632.222 1.153.668 1.564.445.41 1.054.615 1.828.615zm19.336-2.672l3.533-12.815h5.308L182.932 51h-4.852l-6.416-19.02h5.31l3.532 12.815zm19.6 6.557c-2.79 0-5.06-.856-6.812-2.567-1.752-1.71-2.628-3.99-2.628-6.838v-.492c0-1.91.37-3.618 1.107-5.124.74-1.505 1.785-2.665 3.138-3.48 1.355-.814 2.9-1.22 4.633-1.22 2.602 0 4.65.82 6.144 2.46 1.494 1.64 2.24 3.967 2.24 6.978v2.075h-12.11c.163 1.242.66 2.238 1.485 2.988.826.75 1.872 1.126 3.137 1.126 1.956 0 3.486-.71 4.587-2.127l2.496 2.794c-.76 1.078-1.793 1.92-3.093 2.522-1.3.604-2.742.906-4.325.906zm-.58-15.61c-1.008 0-1.826.34-2.453 1.02-.627.68-1.028 1.652-1.204 2.918h7.066v-.405c-.024-1.125-.33-1.995-.915-2.61-.584-.615-1.416-.923-2.495-.923zM216.17 51h-5.098V24h5.098v27zm17.086-25.594l9.44 22.588 9.474-22.588h2.883V51h-2.162V39.855l.175-11.425L243.54 51h-1.67l-9.49-22.482.175 11.267V51h-2.162V25.406h2.865zM263.404 51h-2.11V31.98h2.11V51zm-2.478-24.52c0-.4.13-.737.387-1.012.257-.276.61-.413 1.054-.413.446 0 .8.137 1.064.413.264.275.396.612.396 1.01 0 .4-.132.733-.395 1.002-.263.27-.617.405-1.063.405-.445 0-.797-.135-1.055-.405-.257-.27-.386-.603-.386-1zm14.168 13.217l5.133-7.717h2.496l-6.452 9.334L283.005 51h-2.48l-5.413-8.05-5.413 8.05h-2.478l6.714-9.686-6.452-9.334h2.48l5.132 7.717z"/><path fill="#6DA5E5" d="M65.977 27.077C65.992 26.72 66 26.36 66 26 66 12.193 54.807 1 41 1S16 12.193 16 26c0 .362.008.722.023 1.08 8.385-3.663 17.93-2.364 24.98 2.916 7.05-5.278 16.59-6.578 24.974-2.92z" style="mix-blend-mode:multiply"/><path fill="#294BA5" d="M31.022 48.93C34.08 50.26 37.452 51 41 51c3.55 0 6.927-.74 9.986-2.074-.165-3.896-1.246-7.81-3.33-11.422-1.746-3.02-4.026-5.54-6.652-7.508-2.626 1.967-4.906 4.487-6.65 7.508-2.086 3.612-3.167 7.528-3.332 11.425z" style="mix-blend-mode:multiply"/><path fill="#2B9BDA" d="M50.986 48.926c8.526-3.72 14.576-12.055 14.99-21.85-8.382-3.658-17.924-2.358-24.972 2.92 2.626 1.967 4.906 4.487 6.65 7.508 2.086 3.61 3.167 7.526 3.332 11.422z" style="mix-blend-mode:multiply"/><path fill="#6750AE" d="M31.022 48.93c-8.53-3.717-14.582-12.054-15-21.85 8.386-3.663 17.932-2.364 24.982 2.916-2.626 1.967-4.906 4.487-6.65 7.508-2.086 3.612-3.167 7.528-3.332 11.425z" style="mix-blend-mode:multiply"/><path fill="#6074B8" d="M50.986 48.926c.34 8.06-3.24 16.04-9.982 21.08-6.74-5.04-10.322-13.017-9.982-21.077C34.08 50.26 37.452 51 41 51c3.55 0 6.927-.74 9.986-2.074z" style="mix-blend-mode:multiply"/><path fill="#66F1F3" d="M41.004 70.007c.79.59 1.624 1.142 2.5 1.648 11.957 6.903 27.247 2.806 34.15-9.15 6.904-11.958 2.807-27.248-9.15-34.15-.827-.48-1.67-.904-2.527-1.278-.415 9.794-6.465 18.13-14.99 21.85.34 8.06-3.242 16.04-9.983 21.08z" style="mix-blend-mode:multiply"/><path fill="#F27CC2" d="M41.004 70.007c-.79.59-1.624 1.142-2.5 1.648-11.957 6.903-27.247 2.806-34.15-9.15-6.904-11.958-2.807-27.248 9.15-34.15.825-.478 1.666-.902 2.52-1.274.416 9.796 6.47 18.133 14.998 21.85-.34 8.06 3.243 16.037 9.982 21.077z" style="mix-blend-mode:multiply"/></g></svg>