<svg xmlns="http://www.w3.org/2000/svg" width="308" height="64" viewBox="0 0 308 64"><defs><linearGradient id="a" x1="50%" x2="50%" y1="0%" y2="100%"><stop stop-color="#BD74E6" offset="0%"/><stop stop-color="#4B40C8" offset="100%"/></linearGradient></defs><g fill="none" fill-rule="evenodd"><path fill="#2E2E2E" d="M107.273 40.764h11.198V45H102V19.406h5.273v21.358zM132.183 45c-.236-.457-.406-1.025-.51-1.705-1.232 1.37-2.83 2.057-4.8 2.057-1.863 0-3.407-.54-4.632-1.618-1.223-1.078-1.836-2.437-1.836-4.078 0-2.015.747-3.562 2.242-4.64 1.494-1.08 3.653-1.623 6.477-1.635h2.338v-1.09c0-.878-.225-1.58-.676-2.108-.45-.528-1.163-.79-2.136-.79-.855 0-1.526.204-2.012.614-.487.41-.73.973-.73 1.687h-5.08c0-1.1.34-2.12 1.02-3.058.68-.938 1.64-1.673 2.883-2.206 1.24-.534 2.635-.8 4.182-.8 2.344 0 4.204.588 5.58 1.766 1.378 1.177 2.067 2.833 2.067 4.965v8.245c.01 1.805.262 3.17.754 4.096v.3h-5.132zm-4.203-3.533c.75 0 1.442-.167 2.075-.5.633-.335 1.1-.783 1.406-1.346v-3.268h-1.898c-2.542 0-3.896.878-4.06 2.636l-.018.3c0 .632.223 1.153.668 1.564.446.41 1.055.615 1.828.615zm23.168-10.723c-.69-.094-1.3-.14-1.828-.14-1.922 0-3.18.65-3.78 1.95V45h-5.08V25.98h4.8l.14 2.268c1.02-1.746 2.432-2.62 4.237-2.62.562 0 1.09.077 1.582.23l-.072 4.886zM164.086 45c-.234-.457-.404-1.025-.51-1.705-1.23 1.37-2.83 2.057-4.8 2.057-1.862 0-3.406-.54-4.63-1.618-1.225-1.078-1.837-2.437-1.837-4.078 0-2.015.746-3.562 2.24-4.64 1.494-1.08 3.653-1.623 6.477-1.635h2.338v-1.09c0-.878-.225-1.58-.677-2.108-.45-.528-1.163-.79-2.135-.79-.856 0-1.527.204-2.013.614-.486.41-.73.973-.73 1.687h-5.08c0-1.1.34-2.12 1.02-3.058.68-.938 1.64-1.673 2.883-2.206 1.242-.534 2.637-.8 4.183-.8 2.344 0 4.205.588 5.58 1.766 1.378 1.177 2.067 2.833 2.067 4.965v8.245c.012 1.805.264 3.17.756 4.096v.3h-5.134zm-4.2-3.533c.75 0 1.44-.167 2.073-.5.632-.335 1.1-.783 1.405-1.346v-3.268h-1.898c-2.543 0-3.897.878-4.06 2.636l-.018.3c0 .632.22 1.153.667 1.564.445.41 1.054.615 1.828.615zm19.335-2.672l3.534-12.815h5.31L181.644 45h-4.85l-6.417-19.02h5.308l3.533 12.815zm19.6 6.557c-2.79 0-5.06-.856-6.81-2.567-1.753-1.71-2.63-3.99-2.63-6.838v-.492c0-1.91.37-3.618 1.108-5.124.74-1.505 1.784-2.665 3.138-3.48 1.353-.814 2.897-1.22 4.632-1.22 2.6 0 4.65.82 6.143 2.46 1.496 1.64 2.243 3.967 2.243 6.978v2.075H194.53c.165 1.242.66 2.238 1.487 2.988.826.75 1.872 1.126 3.137 1.126 1.957 0 3.487-.71 4.588-2.127l2.496 2.794c-.76 1.078-1.793 1.92-3.093 2.522-1.3.604-2.743.906-4.325.906zm-.58-15.61c-1.008 0-1.825.34-2.452 1.02-.627.68-1.028 1.652-1.204 2.918h7.066v-.405c-.023-1.125-.328-1.995-.914-2.61-.586-.615-1.418-.923-2.496-.923zM214.887 45h-5.098V18h5.097v27zm21.937-3.164l.14.545.16-.544 8.05-22.43h2.373L238.02 45h-2.075l-9.527-25.594h2.355l8.05 22.43zM262.014 45c-.21-.598-.346-1.482-.405-2.654-.74.96-1.68 1.702-2.822 2.223-1.142.52-2.352.782-3.63.782-1.828 0-3.307-.51-4.438-1.53-1.13-1.02-1.697-2.308-1.697-3.867 0-1.85.77-3.316 2.312-4.394 1.54-1.078 3.688-1.617 6.442-1.617h3.815V31.78c0-1.358-.42-2.427-1.257-3.207-.838-.78-2.06-1.17-3.665-1.17-1.465 0-2.678.376-3.64 1.126-.96.75-1.44 1.652-1.44 2.706l-2.11-.017c0-1.513.704-2.823 2.11-3.93 1.406-1.107 3.135-1.66 5.185-1.66 2.12 0 3.794.53 5.02 1.59 1.224 1.06 1.853 2.54 1.89 4.438v9c0 1.84.192 3.217.58 4.13V45h-2.25zm-6.61-1.512c1.407 0 2.663-.34 3.77-1.02 1.108-.68 1.914-1.587 2.418-2.724V35.56h-3.762c-2.098.024-3.738.408-4.922 1.152-1.183.744-1.775 1.767-1.775 3.067 0 1.066.395 1.95 1.186 2.654.79.703 1.82 1.054 3.084 1.054zM271.646 45h-2.11V18h2.11v27zm13.08.352c-1.62 0-3.08-.4-4.387-1.196-1.308-.797-2.324-1.907-3.05-3.33-.728-1.425-1.09-3.02-1.09-4.79v-.757c0-1.83.354-3.475 1.063-4.94.71-1.465 1.696-2.616 2.962-3.454 1.265-.838 2.636-1.257 4.113-1.257 2.308 0 4.14.787 5.493 2.363 1.355 1.576 2.03 3.73 2.03 6.46v1.178h-13.57v.405c0 2.156.62 3.952 1.856 5.388 1.236 1.435 2.79 2.153 4.666 2.153 1.126 0 2.12-.205 2.98-.615.86-.41 1.644-1.065 2.347-1.968l1.317 1.002c-1.547 2.238-3.79 3.358-6.732 3.358zm-.388-17.93c-1.582 0-2.915.58-4 1.74-1.083 1.16-1.742 2.72-1.977 4.676h11.41v-.23c-.06-1.827-.58-3.315-1.565-4.463-.984-1.15-2.273-1.723-3.867-1.723zm14.89-6.31v4.868h3.936v1.723h-3.937v12.674c0 1.055.19 1.84.57 2.355.382.516 1.017.774 1.908.774.352 0 .92-.06 1.705-.176l.088 1.723c-.55.2-1.3.3-2.25.3-1.44 0-2.49-.42-3.146-1.258-.657-.838-.985-2.072-.985-3.7V27.703h-3.498V25.98h3.497v-4.87h2.11z"/><path fill="url(#a)" d="M0 11.67c0-5.527 3.585-7.32 7.998-4.01L40 31.663l32.002-24C76.42 4.347 80 6.146 80 11.67v39.98c0 5.53-3.585 7.32-7.998 4.01L40 31.663l-32.002 24C3.58 58.977 0 57.178 0 51.653v-39.98z"/></g></svg>