<svg xmlns="http://www.w3.org/2000/svg" width="240" height="64" viewBox="0 0 240 64"><defs><linearGradient id="a" x1="50%" x2="50%" y1="0%" y2="100%"><stop stop-color="#EE210F" offset="0%"/><stop stop-color="#E65822" offset="100%"/></linearGradient></defs><g fill="none" fill-rule="evenodd"><path fill="#2E2E2E" d="M113.56 40.764h11.196V45h-16.47V19.406h5.273v21.358zM138.466 45c-.235-.457-.404-1.025-.51-1.705-1.23 1.37-2.83 2.057-4.8 2.057-1.862 0-3.406-.54-4.63-1.618-1.225-1.078-1.838-2.437-1.838-4.078 0-2.015.747-3.562 2.24-4.64 1.495-1.08 3.654-1.623 6.478-1.635h2.338v-1.09c0-.878-.225-1.58-.677-2.108-.452-.528-1.164-.79-2.136-.79-.856 0-1.527.204-2.013.614-.485.41-.73.973-.73 1.687h-5.08c0-1.1.34-2.12 1.02-3.058.68-.938 1.64-1.673 2.884-2.206 1.242-.534 2.636-.8 4.183-.8 2.344 0 4.204.588 5.58 1.766 1.378 1.177 2.067 2.833 2.067 4.965v8.245c.01 1.805.263 3.17.756 4.096v.3h-5.133zm-4.2-3.533c.75 0 1.44-.167 2.073-.5.633-.335 1.1-.783 1.406-1.346v-3.268h-1.898c-2.543 0-3.897.878-4.06 2.636l-.018.3c0 .632.222 1.153.667 1.564.446.41 1.055.615 1.83.615zm23.167-10.723c-.692-.094-1.3-.14-1.83-.14-1.92 0-3.18.65-3.778 1.95V45h-5.08V25.98h4.8l.14 2.268c1.02-1.746 2.43-2.62 4.236-2.62.562 0 1.09.077 1.582.23l-.07 4.886zM170.37 45c-.233-.457-.403-1.025-.51-1.705-1.23 1.37-2.83 2.057-4.798 2.057-1.863 0-3.407-.54-4.63-1.618-1.226-1.078-1.838-2.437-1.838-4.078 0-2.015.747-3.562 2.24-4.64 1.495-1.08 3.654-1.623 6.478-1.635h2.338v-1.09c0-.878-.225-1.58-.676-2.108-.452-.528-1.163-.79-2.136-.79-.856 0-1.526.204-2.013.614-.486.41-.73.973-.73 1.687h-5.08c0-1.1.34-2.12 1.02-3.058.68-.938 1.64-1.673 2.883-2.206 1.242-.534 2.637-.8 4.184-.8 2.343 0 4.204.588 5.58 1.766 1.378 1.177 2.066 2.833 2.066 4.965v8.245c.012 1.805.264 3.17.756 4.096v.3h-5.133zm-4.2-3.533c.75 0 1.44-.167 2.074-.5.633-.335 1.102-.783 1.406-1.346v-3.268h-1.898c-2.543 0-3.897.878-4.06 2.636l-.018.3c0 .632.222 1.153.668 1.564.445.41 1.054.615 1.828.615zm19.336-2.672l3.533-12.815h5.308L187.932 45h-4.852l-6.416-19.02h5.31l3.532 12.815zm19.6 6.557c-2.79 0-5.06-.856-6.812-2.567-1.752-1.71-2.628-3.99-2.628-6.838v-.492c0-1.91.37-3.618 1.107-5.124.74-1.505 1.785-2.665 3.138-3.48 1.355-.814 2.9-1.22 4.633-1.22 2.602 0 4.65.82 6.144 2.46 1.494 1.64 2.24 3.967 2.24 6.978v2.075h-12.11c.163 1.242.66 2.238 1.485 2.988.826.75 1.872 1.126 3.137 1.126 1.956 0 3.486-.71 4.587-2.127l2.496 2.794c-.76 1.078-1.793 1.92-3.093 2.522-1.3.604-2.742.906-4.325.906zm-.58-15.61c-1.008 0-1.826.34-2.453 1.02-.627.68-1.028 1.652-1.204 2.918h7.066v-.405c-.024-1.125-.33-1.995-.915-2.61-.584-.615-1.416-.923-2.495-.923zM221.17 45h-5.098V18h5.098v27z"/><path fill="url(#a)" d="M80.35 28.97c-.507.112-8.825 2.176-8.825 2.176l-6.802-9.333c-.19-.27-.35-.54.127-.603.476-.064 8.206-1.46 8.555-1.54.35-.08.65-.175 1.08.413.428.587 6.31 8.03 6.532 8.317.222.286-.158.46-.666.57M78.9 45.054c.208.327.416.535-.237.772-.652.238-22.02 7.45-22.436 7.627-.415.178-.74.238-1.276-.534-.534-.77-7.486-12.803-7.486-12.803l22.652-5.894c.664-.21.82-.132 1.098.268.38.548 7.48 10.24 7.686 10.565m-36.685-6.876c-.276.066-13.29 3.174-13.983 3.333-.695.158-.695.08-.774-.16-.08-.237-15.47-31.973-15.684-32.37-.214-.396-.203-.71 0-.71.202 0 12.288-1.08 12.716-1.103.427-.023.382.067.54.337l17.344 29.94c.297.515.438.59-.16.733m33.463-19.49c-1.238-1.493-1.84-1.223-2.603-1.112-.762.11-9.65 1.603-10.682 1.777-1.032.175-1.683.588-1.048 1.477.565.79 6.408 9.073 7.695 10.898l-23.23 5.565L27.33 6.405c-.734-1.09-.887-1.472-2.56-1.396-1.675.075-14.494 1.14-15.407 1.217-.913.076-1.916.482-1.003 2.638.914 2.156 15.472 33.528 15.878 34.44.406.914 1.46 2.395 3.93 1.802 2.532-.61 11.31-2.9 16.104-4.155 2.534 4.588 7.702 13.897 8.658 15.23 1.276 1.78 2.154 1.487 4.113.893 1.53-.463 23.933-8.52 24.942-8.935 1.01-.415 1.632-.712.95-1.72-.502-.743-6.412-8.66-9.508-12.802 2.12-.565 9.66-2.572 10.463-2.79.936-.254 1.064-.714.556-1.285-.508-.572-7.533-9.365-8.77-10.857z"/></g></svg>