<svg xmlns="http://www.w3.org/2000/svg" width="408" height="76" viewBox="0 0 408 76"><defs><linearGradient id="a" x1="50%" x2="50%" y1="0%" y2="100%"><stop stop-color="#FED757" offset="0%"/><stop stop-color="#E37413" offset="100%"/></linearGradient></defs><g fill="none" fill-rule="evenodd"><path fill="#2E2E2E" d="M101.56 48.764h11.196V53h-16.47V27.406h5.273v21.358zM126.466 53c-.235-.457-.404-1.025-.51-1.705-1.23 1.37-2.83 2.057-4.8 2.057-1.862 0-3.406-.54-4.63-1.618-1.225-1.078-1.838-2.437-1.838-4.078 0-2.015.747-3.562 2.24-4.64 1.495-1.08 3.654-1.623 6.478-1.635h2.338v-1.09c0-.878-.225-1.58-.677-2.108-.452-.528-1.164-.79-2.136-.79-.856 0-1.527.204-2.013.614-.485.41-.73.973-.73 1.687h-5.08c0-1.1.34-2.12 1.02-3.058.68-.938 1.64-1.673 2.884-2.206 1.242-.534 2.636-.8 4.183-.8 2.344 0 4.204.588 5.58 1.766 1.378 1.177 2.067 2.833 2.067 4.965v8.245c.01 1.805.263 3.17.756 4.096v.3h-5.133zm-4.2-3.533c.75 0 1.44-.167 2.073-.5.633-.335 1.1-.783 1.406-1.346v-3.268h-1.898c-2.543 0-3.897.878-4.06 2.636l-.018.3c0 .632.222 1.153.668 1.564.445.41 1.054.615 1.828.615zm23.167-10.723c-.692-.094-1.3-.14-1.83-.14-1.92 0-3.18.65-3.778 1.95V53h-5.08V33.98h4.8l.14 2.268c1.02-1.746 2.43-2.62 4.236-2.62.562 0 1.09.077 1.582.23l-.07 4.886zM158.37 53c-.233-.457-.403-1.025-.51-1.705-1.23 1.37-2.83 2.057-4.798 2.057-1.863 0-3.407-.54-4.63-1.618-1.226-1.078-1.838-2.437-1.838-4.078 0-2.015.747-3.562 2.24-4.64 1.495-1.08 3.654-1.623 6.478-1.635h2.338v-1.09c0-.878-.225-1.58-.676-2.108-.452-.528-1.163-.79-2.136-.79-.856 0-1.526.204-2.013.614-.486.41-.73.973-.73 1.687h-5.08c0-1.1.34-2.12 1.02-3.058.68-.938 1.64-1.673 2.883-2.206 1.242-.534 2.637-.8 4.184-.8 2.343 0 4.204.588 5.58 1.766 1.378 1.177 2.066 2.833 2.066 4.965v8.245c.012 1.805.264 3.17.756 4.096v.3h-5.133zm-4.2-3.533c.75 0 1.44-.167 2.074-.5.633-.335 1.102-.783 1.406-1.346v-3.268h-1.898c-2.543 0-3.897.878-4.06 2.636l-.018.3c0 .632.222 1.153.668 1.564.445.41 1.054.615 1.828.615zm19.336-2.672l3.533-12.815h5.308L175.932 53h-4.852l-6.416-19.02h5.31l3.532 12.815zm19.6 6.557c-2.79 0-5.06-.856-6.812-2.567-1.752-1.71-2.628-3.99-2.628-6.838v-.492c0-1.91.37-3.618 1.107-5.124.74-1.505 1.785-2.665 3.138-3.48 1.355-.814 2.9-1.22 4.633-1.22 2.602 0 4.65.82 6.144 2.46 1.494 1.64 2.24 3.967 2.24 6.978v2.075h-12.11c.163 1.242.66 2.238 1.485 2.988.826.75 1.872 1.126 3.137 1.126 1.956 0 3.486-.71 4.587-2.127l2.496 2.794c-.76 1.078-1.793 1.92-3.093 2.522-1.3.604-2.742.906-4.325.906zm-.58-15.61c-1.008 0-1.826.34-2.453 1.02-.627.68-1.028 1.652-1.204 2.918h7.066v-.405c-.024-1.125-.33-1.995-.915-2.61-.584-.615-1.416-.923-2.495-.923zM209.17 53h-5.098V26h5.098v27zm33.187 0h-2.18V40.73h-14.625V53h-2.162V27.406h2.162v11.496h14.625V27.406h2.18V53zm4.85-9.79c0-1.83.355-3.476 1.064-4.94.71-1.465 1.71-2.605 3.006-3.42 1.295-.814 2.763-1.22 4.404-1.22 2.53 0 4.582.887 6.152 2.662 1.57 1.775 2.355 4.128 2.355 7.058v.44c0 1.84-.353 3.494-1.062 4.965-.71 1.47-1.708 2.604-2.997 3.4-1.288.798-2.76 1.197-4.41 1.197-2.52 0-4.57-.888-6.145-2.664-1.576-1.775-2.364-4.127-2.364-7.057v-.42zm2.11.58c0 2.273.59 4.14 1.767 5.598 1.178 1.46 2.722 2.188 4.632 2.188 1.897 0 3.435-.73 4.613-2.188 1.178-1.46 1.767-3.384 1.767-5.775v-.404c0-1.454-.27-2.784-.81-3.99-.538-1.208-1.294-2.143-2.267-2.805-.972-.662-2.085-.993-3.34-.993-1.874 0-3.404.735-4.587 2.206-1.184 1.47-1.776 3.395-1.776 5.774v.387zm21.13-9.81l.07 3.094c.703-1.148 1.582-2.01 2.636-2.584 1.055-.574 2.227-.86 3.516-.86 3 0 4.904 1.23 5.713 3.69.68-1.183 1.588-2.094 2.724-2.733 1.136-.64 2.39-.958 3.76-.958 4.08 0 6.16 2.225 6.24 6.68V53h-2.108V40.467c-.012-1.7-.378-2.96-1.1-3.78-.72-.82-1.894-1.23-3.523-1.23-1.513.023-2.79.513-3.833 1.468-1.043.955-1.623 2.118-1.74 3.49V53h-2.11V40.31c-.01-1.63-.395-2.846-1.15-3.65-.757-.802-1.92-1.203-3.49-1.203-1.325 0-2.46.378-3.41 1.134-.95.757-1.653 1.88-2.11 3.367V53h-2.11V33.98h2.022zm37.353 19.372c-1.617 0-3.08-.4-4.386-1.196-1.307-.797-2.323-1.907-3.05-3.33-.726-1.425-1.09-3.02-1.09-4.79v-.757c0-1.83.355-3.475 1.064-4.94.71-1.465 1.697-2.616 2.963-3.454 1.265-.838 2.636-1.257 4.113-1.257 2.31 0 4.14.787 5.493 2.363 1.353 1.576 2.03 3.73 2.03 6.46v1.178h-13.57v.405c0 2.156.617 3.952 1.854 5.388 1.236 1.435 2.792 2.153 4.667 2.153 1.126 0 2.12-.205 2.98-.615.86-.41 1.644-1.065 2.347-1.968l1.318 1.002c-1.547 2.238-3.79 3.358-6.732 3.358zm-.387-17.93c-1.582 0-2.915.58-4 1.74-1.083 1.16-1.742 2.72-1.977 4.676h11.408v-.23c-.06-1.827-.58-3.315-1.565-4.463-.984-1.15-2.273-1.723-3.867-1.723zm23.01 12.744c0-1.043-.42-1.88-1.257-2.514-.84-.632-2.102-1.128-3.79-1.485-1.687-.357-2.996-.768-3.928-1.23-.93-.463-1.623-1.03-2.074-1.697-.45-.668-.677-1.476-.677-2.426 0-1.5.628-2.74 1.882-3.717 1.254-.98 2.86-1.468 4.816-1.468 2.122 0 3.824.523 5.107 1.572 1.283 1.05 1.925 2.417 1.925 4.105h-2.11c0-1.114-.466-2.04-1.397-2.778-.932-.74-2.107-1.108-3.525-1.108-1.382 0-2.493.307-3.33.923-.84.615-1.257 1.415-1.257 2.4 0 .948.35 1.684 1.046 2.205.698.522 1.97 1 3.815 1.433 1.847.433 3.23.896 4.15 1.388.92.494 1.602 1.085 2.047 1.777.446.69.668 1.53.668 2.514 0 1.606-.647 2.89-1.942 3.85s-2.986 1.442-5.072 1.442c-2.213 0-4.01-.537-5.386-1.61-1.377-1.07-2.066-2.428-2.066-4.068h2.11c.082 1.23.6 2.188 1.555 2.874.955.685 2.218 1.028 3.788 1.028 1.466 0 2.65-.322 3.552-.967.903-.645 1.354-1.46 1.354-2.444zm10.107-19.055v4.87h3.938v1.723h-3.937v12.674c0 1.055.19 1.84.57 2.355.382.516 1.018.774 1.91.774.35 0 .92-.06 1.704-.176l.088 1.723c-.55.2-1.3.3-2.25.3-1.442 0-2.49-.42-3.147-1.258-.656-.838-.984-2.072-.984-3.7V35.703h-3.498V33.98h3.498v-4.87h2.11zm15.662 24.242c-1.617 0-3.08-.4-4.385-1.196-1.307-.797-2.324-1.907-3.05-3.33-.727-1.425-1.09-3.02-1.09-4.79v-.757c0-1.83.354-3.475 1.063-4.94.71-1.465 1.697-2.616 2.962-3.454 1.266-.838 2.637-1.257 4.114-1.257 2.307 0 4.138.787 5.492 2.363 1.353 1.576 2.03 3.73 2.03 6.46v1.178h-13.57v.405c0 2.156.618 3.952 1.854 5.388 1.237 1.435 2.792 2.153 4.667 2.153 1.125 0 2.118-.205 2.98-.615.86-.41 1.643-1.065 2.346-1.968l1.318 1.002c-1.547 2.238-3.79 3.358-6.733 3.358zm-.386-17.93c-1.583 0-2.916.58-4 1.74-1.084 1.16-1.744 2.72-1.978 4.676h11.408v-.23c-.058-1.827-.58-3.315-1.564-4.463-.985-1.15-2.274-1.723-3.867-1.723zM379.433 53c-.21-.598-.346-1.482-.405-2.654-.74.96-1.68 1.702-2.822 2.223-1.143.52-2.353.782-3.63.782-1.828 0-3.307-.51-4.438-1.53-1.13-1.02-1.697-2.308-1.697-3.867 0-1.85.77-3.316 2.312-4.394 1.54-1.078 3.688-1.617 6.442-1.617h3.815V39.78c0-1.358-.42-2.427-1.257-3.207-.838-.78-2.06-1.17-3.665-1.17-1.465 0-2.678.376-3.64 1.126-.96.75-1.44 1.652-1.44 2.706l-2.11-.017c0-1.513.704-2.823 2.11-3.93 1.406-1.107 3.135-1.66 5.185-1.66 2.12 0 3.794.53 5.02 1.59 1.223 1.06 1.853 2.54 1.89 4.438v9c0 1.84.192 3.217.58 4.13V53h-2.25zm-6.61-1.512c1.406 0 2.663-.34 3.77-1.02 1.108-.68 1.914-1.587 2.418-2.724V43.56h-3.762c-2.098.024-3.738.408-4.922 1.152-1.183.744-1.775 1.767-1.775 3.067 0 1.066.395 1.95 1.186 2.654.79.703 1.82 1.054 3.084 1.054zm13.043-8.174c0-2.953.66-5.305 1.978-7.057 1.318-1.752 3.108-2.628 5.37-2.628 2.566 0 4.523 1.013 5.87 3.04V26h2.093v27h-1.97l-.087-2.53c-1.347 1.92-3.327 2.882-5.94 2.882-2.192 0-3.958-.882-5.3-2.646-1.342-1.764-2.013-4.145-2.013-7.145v-.246zm2.127.37c0 2.425.486 4.338 1.46 5.74.972 1.4 2.343 2.1 4.112 2.1 2.59 0 4.43-1.143 5.52-3.428v-8.93c-1.09-2.473-2.918-3.71-5.484-3.71-1.77 0-3.147.695-4.13 2.084-.986 1.39-1.478 3.437-1.478 6.144z"/><path fill="url(#a)" d="M60 39l-6-6v12l6 6v4l-6-6v12l6 6v8h4V27l-3-3-7-7v12l6 6v4zM8 39l-6-6v12l6 6v4l-6-6v12l6 6v8h4V27l-3-3-7-7v12l6 6v4zm26 0l-6-6v12l6 6v4l-6-6v12l6 6v8h4V11l-3-3-7-7v12l6 6v4l-6-6v12l6 6v4zm6 2l8-8v12l-8 8V41zm0 16l8-8v12l-8 8V57zm0-32l8-8v12l-8 8V25zm0-16l8-8v12l-8 8V9zM14 41l8-8v12l-8 8V41zm0 16l8-8v12l-8 8V57zm0-32l8-8v12l-8 8V25zm52 16l8-8v12l-8 8V41zm0 16l8-8v12l-8 8V57zm0-32l8-8v12l-8 8V25z"/></g></svg>