<svg xmlns="http://www.w3.org/2000/svg" viewBox="0 0 362 48" width="362" height="48"><path fill="#405263" fill-rule="evenodd" d="M86.61 40H68.42V9.09h7.66v24.28h9.5L86.61 40zm21.28 0h-6l-.45-2.73c-1.8 1.88-3.9 3.18-6.9 3.18-3.5 0-5.96-2.1-5.96-6.1 0-5.15 3.94-7.57 12.55-8.33v-.4c0-1.93-1.08-2.78-3.32-2.78-2.46 0-4.75.63-7.08 1.66l-.8-5.1c2.5-1.04 5.33-1.71 8.91-1.71 6.05 0 9.05 2.02 9.05 7.62V40zm-6.76-6.05V29.3c-4.62.72-5.87 2.24-5.87 4.17 0 1.39.85 2.15 2.1 2.15a5.7 5.7 0 0 0 3.77-1.66zm25.4-9.45a10.8 10.8 0 0 0-7.4 3.31V40h-6.76V18.05h5.91l.72 4.34c1.35-2.5 3.18-4.57 6.4-4.79l1.13 6.9zM147.49 40h-6l-.45-2.73c-1.79 1.88-3.9 3.18-6.9 3.18-3.49 0-5.95-2.1-5.95-6.1 0-5.15 3.94-7.57 12.54-8.33v-.4c0-1.93-1.08-2.78-3.32-2.78-2.46 0-4.74.63-7.07 1.66l-.81-5.1c2.5-1.04 5.33-1.71 8.91-1.71 6.05 0 9.05 2.02 9.05 7.62V40zm-6.76-6.05V29.3c-4.61.72-5.87 2.24-5.87 4.17 0 1.39.85 2.15 2.1 2.15a5.7 5.7 0 0 0 3.77-1.66zM172 18.05l-7.66 22.04h-6.77l-7.48-21.5 7.26-.86 4.08 13.9 3.98-13.58H172zm21.68 10.93a8.9 8.9 0 0 1-.13 1.75h-13.17c.36 3.45 2.42 4.79 5.37 4.79 2.42 0 4.8-.9 7.22-2.28l.67 4.74a15.91 15.91 0 0 1-8.74 2.47c-6.58 0-11.29-3.5-11.29-11.34 0-7.16 4.4-11.51 10.35-11.51 6.72 0 9.72 5.02 9.72 11.38zM187.23 27c-.22-3.32-1.39-5.02-3.45-5.02-1.88 0-3.22 1.66-3.45 5.02h6.9zM204.26 40h-6.81V8.73l6.8-1.08V40zm40.05 0h-3.1V25.22h-17.15V40h-3.1V9.09h3.1v13.35h17.16V9.09h3.09V40zm25.4-10.57c0 6.99-4.21 11.02-9.63 11.02-5.42 0-9.5-4.03-9.5-11.02 0-7.04 4.17-11.07 9.5-11.07 5.5 0 9.63 4.03 9.63 11.07zm-3.05 0c0-4.89-2.33-8.56-6.58-8.56-4.21 0-6.5 3.54-6.5 8.56 0 4.88 2.33 8.5 6.5 8.5 4.3 0 6.58-3.49 6.58-8.5zm19.54-8.3c-3.5.23-6.5 2.74-7.93 5.56V40h-2.96V18.81h2.2l.67 4.35c1.56-2.38 4.03-4.7 7.52-4.8l.5 2.78zm8.42-9.53c0 1.16-.94 2.15-2.1 2.15a2.18 2.18 0 0 1-2.16-2.15c0-1.17.99-2.15 2.15-2.15 1.17 0 2.1.98 2.1 2.15zm-.67 28.4h-2.92V18.81h2.92V40zm22 0h-16.4v-2.28l12.63-16.45h-11.56l-.4-2.46h15.36v2.28l-12.63 16.45h12.59l.4 2.46zm23.15-10.57c0 6.99-4.2 11.02-9.63 11.02-5.42 0-9.5-4.03-9.5-11.02 0-7.04 4.17-11.07 9.5-11.07 5.51 0 9.63 4.03 9.63 11.07zm-3.04 0c0-4.89-2.33-8.56-6.59-8.56-4.2 0-6.5 3.54-6.5 8.56 0 4.88 2.34 8.5 6.5 8.5 4.3 0 6.59-3.49 6.59-8.5zM361.4 40h-2.95V25.4c0-2.74-1.26-4.4-3.94-4.4-2.24 0-4.53 1.4-6.86 3.68V40h-2.96V18.81H347l.5 3.14c2.32-2.07 4.74-3.59 7.6-3.59 4.22 0 6.32 2.42 6.32 6.5V40zm-353 2.26A23.95 23.95 0 0 1 0 24c0-6.63 2.69-12.63 7.03-16.97a24 24 0 1 1 1.39 35.23zM6.47 25.48C9.12 23.13 11 20 16 20c8 0 8 8 16 8 5 0 6.88-3.13 9.54-5.48a17.6 17.6 0 0 0-35.08 2.96z"/></svg>
