<svg width="24" height="24" viewBox="0 0 24 24" xmlns="http://www.w3.org/2000/svg"><title>slack-black</title><path d="M22.995 8.701C20.522.454 16.948-1.469 8.701 1.005.455 3.478-1.469 7.052 1.005 15.299c2.474 8.246 6.048 10.17 14.294 7.696 8.247-2.474 10.17-6.048 7.696-14.294m-4.17 5.354l-1.555.52.538 1.61a1.243 1.243 0 1 1-2.358.79l-.54-1.61-3.206 1.075.539 1.608a1.244 1.244 0 1 1-2.36.791l-.538-1.61-1.555.522a1.246 1.246 0 0 1-1.575-.786 1.243 1.243 0 0 1 .784-1.574l1.556-.521-1.034-3.086-1.555.52a1.244 1.244 0 0 1-.79-2.359l1.555-.52-.54-1.61a1.243 1.243 0 1 1 2.36-.79l.539 1.61 3.207-1.075-.54-1.608a1.245 1.245 0 0 1 2.36-.79l.538 1.609 1.556-.522A1.244 1.244 0 1 1 17 8.61l-1.555.52 1.033 3.087 1.556-.52a1.245 1.245 0 0 1 .79 2.359zM9.88 10.994l1.033 3.086 3.207-1.074-1.033-3.086-3.207 1.074z" fill="#000" fill-rule="evenodd"/></svg>