<svg height="300" width="600" xmlns="http://www.w3.org/2000/svg"><path d="m116.102209 243.607161h-11.317v-27.649c0-9.26-2.4431-15.946-7.3297-20.062-3.5153-3.001-8.102-4.501-13.7602-4.501-6.0013 0-11.0169 1.929-15.0463 5.787-4.0295 3.858-6.0441 9.088-6.0441 15.689 0 7.116 2.4004 12.603 7.2015 16.461 3.9438 3.172 8.6592 4.758 14.146 4.758 3.0863 0 5.9371-.578 8.5518-1.736 2.615-1.157 5.1656-2.893 7.6519-5.208v11.831c-4.9726 3.944-10.931 5.916-17.8753 5.916-8.8308 0-16.2465-2.872-22.248-8.616-6.0012-5.745-9.002-13.289-9.002-22.634 0-9.774 3.1938-17.725 9.5808-23.855s14.2104-9.195 23.4695-9.195c9.0019 0 16.3321 2.7 21.9901 8.101 6.688 6.345 10.031 15.561 10.031 27.65zm70.859-62.885c0 7.03-2.101 13.245-6.302 18.646-2.4 3.173-7.158 7.545-14.274 13.118l-25.077 19.804h45.653v11.317h-49.49c-4.115 0-7.18-.922-9.152-2.765-1.972-1.844-2.958-4.094-2.958-6.752 0-1.972.429-3.643 1.286-5.015.6-1.029 2.572-2.786 5.916-5.273l30.092-23.533c3.858-3.001 6.602-5.573 8.231-7.716 2.657-3.516 3.986-7.416 3.986-11.703 0-4.715-1.414-8.659-4.243-11.831-3.173-3.601-7.674-5.401-13.504-5.401-5.572 0-10.009 1.736-13.31 5.208-3.3 3.472-4.951 7.78-4.951 12.924 0 5.23 1.929 9.517 5.787 12.86 3.258 2.829 7.073 4.501 11.446 5.016l-10.545 8.359c-5.916-2.144-10.524-5.552-13.825-10.224-3.301-4.673-4.951-10.009-4.951-16.011 0-9.002 3.215-16.246 9.645-21.733 6.001-5.144 13.203-7.716 21.605-7.716 8.316 0 15.217 2.701 20.704 8.102s8.231 12.174 8.231 20.319z"/><path d="m262.192209 208.885161c0 10.717-2.894 19.397-8.681 26.041-5.787 6.645-13.567 9.967-23.341 9.967-10.116 0-18.218-3.43-24.305-10.288-5.487-6.259-8.23-13.761-8.23-22.505 0-6.259 1.5-11.853 4.5-16.782 3.001-4.93 7.073-8.724 12.217-11.381 2.23-1.115 4.694-1.951 7.395-2.508 2.7-.558 5.423-.836 8.166-.836 2.315 0 4.844.321 7.587.964 2.744.643 5.659 1.779 8.745 3.408v11.831c-1.972-1.286-4.244-2.443-6.816-3.472-3.257-1.286-6.344-1.929-9.259-1.929-2.143 0-4.158.215-6.044.643-1.886.429-3.729 1.2-5.53 2.315-2.658 1.629-4.886 4.029-6.687 7.202-1.8 3.172-2.701 6.858-2.701 11.059 0 6.259 1.972 11.403 5.916 15.432 3.944 4.03 9.045 6.044 15.303 6.044 1.629 0 3.237-.171 4.823-.514s3.065-.9 4.436-1.672c4.544-2.486 7.717-6.43 9.517-11.831 1.115-3.429 1.672-7.159 1.672-11.188v-55.298h11.317zm70.858 7.33c-.6 6.516-2.744 12.131-6.43 16.847-2.401 3.086-5.444 5.658-9.131 7.715-2.315 1.372-4.929 2.401-7.844 3.087s-5.83 1.029-8.745 1.029c-4.972 0-9.774-1.115-14.403-3.344-5.401-2.658-9.688-6.494-12.86-11.51-3.172-5.015-4.758-10.781-4.758-17.296 0-9.174 3.065-16.825 9.195-22.955 6.129-6.13 13.738-9.195 22.826-9.195 6.344 0 12.174 1.629 17.49 4.887 5.315 3.258 9.43 8.144 12.345 14.66l-41.666 23.148-4.63-9.002 30.478-16.975c-2.057-2.229-4.329-3.772-6.815-4.63-2.487-.857-4.973-1.286-7.459-1.286-6.002 0-10.867 1.993-14.596 5.98-3.73 3.987-5.594 9.109-5.594 15.368 0 4.201.857 7.887 2.572 11.059 1.714 3.172 3.943 5.616 6.687 7.331 1.543.943 3.258 1.671 5.144 2.186 1.886.514 3.815.771 5.787.771 2.314 0 4.394-.193 6.237-.578 1.843-.386 3.665-1.093 5.465-2.122 2.744-1.629 4.973-3.923 6.687-6.88 1.715-2.958 2.573-6.195 2.573-9.71zm57.227 10.159c0 1.886-.236 3.687-.708 5.401-.471 1.715-1.178 3.258-2.122 4.63-2.143 3.001-5.015 5.058-8.616 6.173-2.314.686-5.272 1.029-8.873 1.029h-30.221v-10.803h29.578c2.915 0 4.801-.128 5.658-.385 2.487-.686 3.73-2.272 3.73-4.759 0-1.886-.686-3.429-2.058-4.629-1.028-.858-2.658-1.672-4.886-2.444-5.659-1.714-11.274-3.472-16.847-5.272-5.83-2.144-9.817-4.651-11.96-7.523s-3.215-5.937-3.215-9.195c0-1.543.129-3.087.386-4.63s1.029-3.172 2.315-4.887c2.229-3 5.315-5.058 9.259-6.172 2.486-.686 5.787-1.029 9.902-1.029h25.848v10.802h-29.063c-2.143 0-3.858.407-5.144 1.222-1.286.814-1.929 1.993-1.929 3.536 0 1.801.729 3.301 2.186 4.502.943.771 2.444 1.5 4.501 2.186 5.487 1.714 11.017 3.386 16.59 5.015 6.001 2.143 10.116 4.673 12.345 7.587 2.229 2.915 3.344 6.13 3.344 9.645zm22.119-58.255c0 1.714-.471 3.172-1.414 4.372-1.287 1.629-3.087 2.444-5.402 2.444s-4.029-.708-5.144-2.122c-1.114-1.415-1.671-2.98-1.671-4.694 0-1.715.471-3.172 1.414-4.373 1.286-1.629 3.086-2.443 5.401-2.443s4.03.707 5.144 2.122c1.115 1.415 1.672 2.979 1.672 4.694zm-1.157 75.488h-11.317v-61.728h11.317zm74.716-6.045c0 5.916-.514 10.717-1.543 14.404-1.372 4.801-3.901 9.002-7.588 12.602-2.486 2.401-5.315 4.287-8.487 5.659-4.201 1.8-9.045 2.7-14.532 2.7-2.572 0-5.465-.235-8.68-.707s-7.137-1.436-11.767-2.893l2.701-10.288c3.514.943 6.665 1.693 9.451 2.25 2.787.558 5.337.836 7.652.836 6.687 0 11.788-1.543 15.304-4.63 4.115-3.6 6.172-9.344 6.172-17.232v-21.219c0-5.744-.471-10.159-1.414-13.246-1.801-5.83-5.273-9.987-10.417-12.474-2.743-1.286-5.701-1.929-8.873-1.929-6.087 0-11.188 2.015-15.304 6.044-4.115 4.03-6.172 9.303-6.172 15.818 0 6.001 1.757 10.974 5.272 14.918 3.515 3.943 8.316 5.915 14.404 5.915 7.029 0 12.988-2.315 17.875-6.944v11.831c-5.144 3.944-10.76 5.916-16.847 5.916-8.402 0-15.603-2.444-21.605-7.331-7.115-5.744-10.673-13.845-10.673-24.305 0-9.516 3.236-17.339 9.709-23.469s14.253-9.195 23.341-9.195c4.372 0 8.445.686 12.217 2.057 5.658 2.058 10.116 5.573 13.374 10.546 4.287 6.515 6.43 15.132 6.43 25.848zm63.014 6.045h-11.317v-33.05c0-3.687-.386-6.688-1.157-9.002-1.286-3.773-3.644-6.602-7.073-8.488-1.972-1.115-4.244-1.672-6.816-1.672-1.114 0-2.272.129-3.472.386s-2.315.686-3.344 1.286c-3.515 1.886-5.873 4.673-7.073 8.359-.771 2.315-1.157 5.358-1.157 9.131v33.05h-11.317v-33.05c0-5.487.686-10.117 2.058-13.889 1.886-5.23 5.272-9.345 10.159-12.346 4.115-2.486 8.831-3.729 14.146-3.729s10.031 1.243 14.146 3.729c4.801 3.001 8.188 7.116 10.159 12.346 1.372 3.686 2.058 8.316 2.058 13.889z"/><path d="m154.295209 115.888161c4.615-1.944 9.935.221 11.88 4.838 1.944 4.615-.223 9.935-4.838 11.88-4.616 1.944-9.936-.223-11.88-4.838-1.945-4.617.223-9.936 4.838-11.88zm9.7-25.709c6.462-2.722 13.909.31 16.631 6.773 2.722 6.462-.311 13.909-6.773 16.631s-13.909-.311-16.631-6.773.311-13.909 6.773-16.631zm18.405-30.137c8.309-3.5 17.883.4 21.382 8.708 3.5 8.309-.398 17.882-8.708 21.382-8.307 3.5-17.882-.398-21.382-8.707-3.499-8.308.4-17.883 8.708-21.383zm33.129-26.684c10.154-4.277 21.856.489 26.133 10.644 4.278 10.155-.487 21.856-10.642 26.133-10.156 4.278-21.857-.487-26.135-10.642-4.277-10.154.487-21.857 10.644-26.135zm48.589.51c12.002-5.055 25.831.577 30.886 12.578 5.056 12.002-.577 25.83-12.578 30.885-12.002 5.056-25.831-.575-30.886-12.576-5.056-12.002.576-25.831 12.578-30.887zm46.083 21.252c13.847-5.832 29.803.667 35.636 14.514s-.664 29.804-14.511 35.637c-13.849 5.833-29.805-.666-35.638-14.513s.664-29.804 14.513-35.638zm177.031-10.616c-4.615 1.944-9.935-.222-11.88-4.838-1.944-4.616.223-9.936 4.838-11.88s9.936.222 11.88 4.838c1.945 4.616-.223 9.936-4.838 11.88zm-9.7 25.708c-6.462 2.722-13.909-.31-16.631-6.772-2.722-6.463.31-13.909 6.773-16.631 6.462-2.722 13.909.31 16.631 6.772 2.722 6.463-.311 13.909-6.773 16.631zm-18.405 30.137c-8.309 3.5-17.883-.4-21.382-8.708-3.5-8.309.398-17.882 8.707-21.382 8.308-3.499 17.882.398 21.382 8.708 3.5 8.307-.4 17.882-8.707 21.382zm-33.129 26.684c-10.155 4.278-21.856-.489-26.134-10.644-4.277-10.154.488-21.856 10.643-26.133 10.156-4.278 21.857.487 26.134 10.642 4.278 10.155-.487 21.857-10.643 26.135zm-48.589-.51c-12.002 5.055-25.831-.577-30.887-12.578-5.055-12.002.577-25.83 12.579-30.885 12.002-5.056 25.831.575 30.886 12.576 5.055 12.002-.577 25.832-12.578 30.887z"/><path d="m154.295209 115.888161c4.615-1.944 9.935.221 11.88 4.838 1.944 4.615-.223 9.935-4.838 11.88-4.616 1.944-9.936-.223-11.88-4.838-1.945-4.617.223-9.936 4.838-11.88zm9.7-25.709c6.462-2.722 13.909.31 16.631 6.773 2.722 6.462-.311 13.909-6.773 16.631s-13.909-.311-16.631-6.773.311-13.909 6.773-16.631zm18.405-30.137c8.309-3.5 17.883.4 21.382 8.708 3.5 8.309-.398 17.882-8.708 21.382-8.307 3.5-17.882-.398-21.382-8.707-3.499-8.308.4-17.883 8.708-21.383zm33.129-26.684c10.154-4.277 21.856.489 26.133 10.644 4.278 10.155-.487 21.856-10.642 26.133-10.156 4.278-21.857-.487-26.135-10.642-4.277-10.154.487-21.857 10.644-26.135zm48.589.51c12.002-5.055 25.831.577 30.886 12.578 5.056 12.002-.577 25.83-12.578 30.885-12.002 5.056-25.831-.575-30.886-12.576-5.056-12.002.576-25.831 12.578-30.887zm46.083 21.252c13.847-5.832 29.803.667 35.636 14.514s-.664 29.804-14.511 35.637c-13.849 5.833-29.805-.666-35.638-14.513s.664-29.804 14.513-35.638zm177.031-10.616c-4.615 1.944-9.935-.222-11.88-4.838-1.944-4.616.223-9.936 4.838-11.88s9.936.222 11.88 4.838c1.945 4.616-.223 9.936-4.838 11.88zm-9.7 25.708c-6.462 2.722-13.909-.31-16.631-6.772-2.722-6.463.31-13.909 6.773-16.631 6.462-2.722 13.909.31 16.631 6.772 2.722 6.463-.311 13.909-6.773 16.631zm-18.405 30.137c-8.309 3.5-17.883-.4-21.382-8.708-3.5-8.309.398-17.882 8.707-21.382 8.308-3.499 17.882.398 21.382 8.708 3.5 8.307-.4 17.882-8.707 21.382zm-33.129 26.684c-10.155 4.278-21.856-.489-26.134-10.644-4.277-10.154.488-21.856 10.643-26.133 10.156-4.278 21.857.487 26.134 10.642 4.278 10.155-.487 21.857-10.643 26.135zm-48.589-.51c-12.002 5.055-25.831-.577-30.887-12.578-5.055-12.002.577-25.83 12.579-30.885 12.002-5.056 25.831.575 30.886 12.576 5.055 12.002-.577 25.832-12.578 30.887z"/></svg>