<?xml version="1.0" encoding="UTF-8" standalone="no"?>
<svg
   xmlns:dc="http://purl.org/dc/elements/1.1/"
   xmlns:cc="http://creativecommons.org/ns#"
   xmlns:rdf="http://www.w3.org/1999/02/22-rdf-syntax-ns#"
   xmlns:svg="http://www.w3.org/2000/svg"
   xmlns="http://www.w3.org/2000/svg"
   xmlns:sodipodi="http://sodipodi.sourceforge.net/DTD/sodipodi-0.dtd"
   xmlns:inkscape="http://www.inkscape.org/namespaces/inkscape"
   version="1.1"
   id="svg2"
   xml:space="preserve"
   width="357.28"
   height="136.13333"
   viewBox="0 0 357.28 136.13333"
   sodipodi:docname="logo_300dpi_4C.eps"><metadata
     id="metadata8"><rdf:RDF><cc:Work
         rdf:about=""><dc:format>image/svg+xml</dc:format><dc:type
           rdf:resource="http://purl.org/dc/dcmitype/StillImage" /></cc:Work></rdf:RDF></metadata><defs
     id="defs6" /><sodipodi:namedview
     pagecolor="#ffffff"
     bordercolor="#666666"
     borderopacity="1"
     objecttolerance="10"
     gridtolerance="10"
     guidetolerance="10"
     inkscape:pageopacity="0"
     inkscape:pageshadow="2"
     inkscape:window-width="640"
     inkscape:window-height="480"
     id="namedview4" /><g
     id="g10"
     inkscape:groupmode="layer"
     inkscape:label="ink_ext_XXXXXX"
     transform="matrix(1.3333333,0,0,-1.3333333,0,136.13333)"><g
       id="g12"
       transform="scale(0.1)"><path
         d="m 2397.06,690.773 c -33.64,0 -60.9,28.157 -60.9,62.711 0,34.551 27.26,62.704 60.9,62.704 33.64,0 60.89,-28.153 60.89,-62.704 0,-34.554 -27.25,-62.711 -60.89,-62.711 z m -190.63,-506 h -80.59 c -116.62,3.899 -230.62,84.325 -230.62,169.395 0,37.512 31.52,54.492 42.55,54.492 h 49.25 c 23.68,0 40.87,-9.148 56.15,-36.57 12.7,-22.582 46.28,-48.512 89.94,-48.512 h 67.16 c 67.18,0 101.33,13.43 101.33,66.051 0,52.609 -34.15,68.285 -101.33,68.285 h -267.4 c -21.08,0 -38.99,17.535 -38.99,39.367 v 278.563 c 0,22.769 16.96,40.304 38.99,40.304 h 280.28 l 1.21,0.04 c 2.4,0 3.67,-0.032 5.18,-0.032 44.42,0 80.35,-38.543 69.11,-81.226 -6.19,-23.5 -24.15,-41.645 -48.66,-43.969 l -2.4,-0.199 H 2032.22 V 578.813 h 182.98 c 152.63,0 242.75,-59.145 242.75,-199.079 0,-139.937 -98.89,-194.961 -251.52,-194.961 z m -36.76,836.197 c -281.76,0 -509.93,-228.564 -509.93,-510.482 C 1659.74,228.559 1887.91,0 2169.67,0 c 281.52,0 509.92,228.559 509.92,510.488 0,281.918 -228.4,510.482 -509.92,510.482"
         style="fill:#479ddc;fill-opacity:1;fill-rule:evenodd;stroke:none"
         id="path14" /><path
         d="m 125.973,579.902 c 0,7.95 5.281,14.93 12.882,17.254 23.938,7.324 43.848,11.258 59.192,11.258 72.504,0 119.062,-37.613 119.062,-122.644 0,-84.336 -45.879,-123.411 -113.062,-123.411 h -66.664 c -6.305,0 -11.41,5.106 -11.41,11.407 z M 0,300.219 c 0,-9.227 7.48047,-16.707 16.707,-16.707 h 171.902 c 146.614,0 219.739,64.035 219.739,202.258 0,138.918 -69.282,204.41 -180.371,204.41 -39.391,0 -66.809,-8.235 -93.774,-16.024 -4.117,-1.191 -8.23,1.883 -8.23,6.172 v 114.645 c 0,11.718 -9.496,21.215 -21.215,21.215 H 21.2148 C 9.49609,816.188 0,806.691 0,794.977 V 300.219"
         style="fill:#479ddc;fill-opacity:1;fill-rule:evenodd;stroke:none"
         id="path16" /><path
         d="m 547.402,251.961 c -8.507,0 -28.199,-0.266 -43.308,-0.266 h -13.703 c -11.618,0 -26.297,-4.691 -26.297,-19.418 v -26.73 c 0,-19.793 23.91,-22.5 35.695,-22.5 24.102,0 15.051,0.148 42.609,0 84.622,-0.469 148.571,17.914 198.571,175.414 L 834.02,670.09 c 2.656,10.457 -4.817,20.09 -15.766,20.09 h -70.891 c -12.293,0 -24.742,-9.633 -28.058,-22.91 L 654.289,441.496 c -1.062,-3.691 -4.68,-6.07 -8.492,-5.605 -26.113,3.183 -45.809,26.23 -66.781,93.574 L 535.18,667.27 c -4.149,13.277 -17.93,22.91 -30.379,22.91 h -70.059 c -10.961,0 -19.262,-9.633 -15.773,-20.09 l 50.136,-158.055 c 36.649,-119.242 84.11,-155.258 149.532,-158.48 5.273,-0.262 8.836,-5.344 7.164,-10.356 -14.524,-43.554 -26.836,-91.238 -78.399,-91.238"
         style="fill:#479ddc;fill-opacity:1;fill-rule:evenodd;stroke:none"
         id="path18" /><path
         d="m 1117.84,288.461 c 12.12,1.91 18.53,11.312 18.53,21.184 v 35.66 c 0,11.07 -9.35,17.054 -21.47,17.054 h -17.82 c -15.75,0 -21.64,-1.468 -40.33,-1.468 -36.51,0 -61.609,23.691 -61.609,76.828 v 173.539 h 94.139 c 12.12,0 13.86,8.828 13.86,20.246 v 38.426 c 0,11.425 -9.35,20.25 -21.47,20.25 h -90.678 v 111.816 c 0,11.942 -9.179,14.192 -21.289,14.192 h -82.035 c -12.121,0 -21.293,-9.168 -21.293,-20.938 V 437.719 c 0,-110.41 49.676,-154.207 149.355,-154.207 h 56.33 c 15.39,0 30.74,1.66 45.78,4.949 v 0"
         style="fill:#479ddc;fill-opacity:1;fill-rule:evenodd;stroke:none"
         id="path20" /><path
         d="m 1520.89,457.004 c 12.01,0 11.07,2.504 11.07,15.664 v 17.062 c 0,124.676 -69.98,201.043 -197.63,201.043 -127.27,0 -197.96,-70.507 -197.96,-197.625 0,-141.554 75.57,-209.636 203.54,-209.636 92.13,0 190.13,23.519 190.13,97.332 0,12.191 -9.21,21.422 -21.05,21.422 h -51.2 c -17.58,0 -30.3,-7.137 -39.53,-18.465 -12.36,-13.063 -39.17,-16.699 -69.64,-16.699 -57.42,0 -78.93,19.91 -85.31,82.726 -0.38,3.809 2.66,7.172 6.49,7.172 l 256.67,0.004 z m -180.98,154.723 c 56.43,0 77.62,-29.145 81.59,-79.313 0.31,-3.976 -2.93,-7.383 -6.92,-7.383 h -149.99 c -4.09,0 -7.37,3.52 -6.98,7.582 4.81,50.039 25.2,79.114 82.3,79.114"
         style="fill:#479ddc;fill-opacity:1;fill-rule:evenodd;stroke:none"
         id="path22" /></g></g></svg>
