<svg width="145" height="40" viewBox="0 0 145 40" xmlns="http://www.w3.org/2000/svg"><title>cubet</title><defs><linearGradient x1="395.9%" y1="-516.95%" x2="105.4%" y2="-40.75%" id="a"><stop stop-color="#18CDCA" stop-opacity="0" offset="0%"/><stop stop-color="#3DBBBC" stop-opacity=".172" offset="17.2%"/><stop stop-color="#33AEAD" stop-opacity=".383" offset="38.3%"/><stop stop-color="#249994" stop-opacity=".614" offset="61.4%"/><stop stop-color="#0F7B72" stop-opacity=".857" offset="85.7%"/><stop stop-color="#00675A" offset="100%"/></linearGradient><linearGradient x1="416.1%" y1="-550%" x2="127%" y2="-76.1%" id="b"><stop stop-color="#18CDCA" stop-opacity="0" offset="0%"/><stop stop-color="#3DBBBC" stop-opacity=".172" offset="17.2%"/><stop stop-color="#33AEAD" stop-opacity=".383" offset="38.3%"/><stop stop-color="#249994" stop-opacity=".614" offset="61.4%"/><stop stop-color="#0F7B72" stop-opacity=".857" offset="85.7%"/><stop stop-color="#00675A" offset="100%"/></linearGradient></defs><g fill="none" fill-rule="evenodd"><path d="M49.643 8.498c3.541 0 5.834 1.375 6.959 2.25.708.457.749 1.167.25 1.874l-.417.626c-.5.748-1.083.792-1.875.33-.876-.624-2.5-1.581-4.71-1.581-4.25 0-7.333 3.167-7.333 7.5 0 4.292 3.083 7.584 7.417 7.584 2.54 0 4.375-1.168 5.373-1.919.751-.5 1.375-.416 1.875.376l.332.626c.417.709.292 1.376-.374 1.834-1.167.958-3.709 2.582-7.502 2.582-6.624 0-11.25-4.708-11.25-11.042 0-6.25 4.67-11.042 11.251-11.042l.004.002zm12 1.874c0-.916.457-1.374 1.376-1.374h1.291c.874 0 1.335.458 1.335 1.374V21.58c0 2.919.624 5.253 3.96 5.253 4.332 0 6.873-3.793 6.873-7.96v-8.5c0-.917.46-1.375 1.377-1.375h1.29c.876 0 1.377.458 1.377 1.374v18.335c0 .917-.5 1.375-1.377 1.375H77.98c-.917 0-1.376-.457-1.376-1.373v-1.876c0-.626.124-1.209.124-1.209h-.083c-.918 2.084-3.71 4.959-7.834 4.959-4.751 0-7.168-2.5-7.168-8.084V10.372zM86.394 2.04c0-.917.457-1.375 1.376-1.375h1.291c.875 0 1.333.458 1.333 1.375v8.542c.003.6-.038 1.198-.124 1.791h.085s1.875-3.875 6.875-3.875c5.584 0 9.21 4.498 9.21 11 0 6.751-4.043 11.084-9.542 11.084-4.96 0-6.751-4-6.751-4h-.084s.125.5.125 1.25v1.042c0 .75-.501 1.208-1.377 1.208H87.77c-.918 0-1.377-.459-1.377-1.375V2.04h.001zm9.835 25.043c3.374 0 6.124-2.708 6.124-7.5 0-4.584-2.457-7.543-5.959-7.543-3.167 0-6.083 2.25-6.083 7.502 0 3.875 1.96 7.541 5.918 7.541zm24-18.584c5.833 0 9.084 4.166 9.084 10.04 0 .752-.584 1.419-1.417 1.419h-14.084c.25 4.583 3.541 7.126 7.292 7.126 2.293 0 4.085-.959 5.041-1.667.792-.417 1.418-.334 1.876.46l.374.624c.418.708.292 1.417-.415 1.832-1.25.875-3.75 2.252-7.126 2.252-6.625 0-11.167-4.792-11.167-11.043 0-6.71 4.542-11.043 10.542-11.043zm5.042 8.792c-.126-3.71-2.335-5.625-5.127-5.625-3.081 0-5.583 2.082-6.167 5.625h11.294zm9.333-4.792h-1.459c-.873 0-1.333-.5-1.333-1.375v-.542c0-.875.46-1.375 1.376-1.375h1.5V4.58c0-.916.501-1.375 1.375-1.375h1.208c.918 0 1.376.459 1.376 1.375v4.627h3.666c.917 0 1.377.5 1.377 1.376v.542c0 .875-.46 1.375-1.334 1.375h-3.709v9.376c0 4 2.46 4.626 4.002 4.75 1.082.084 1.457.417 1.457 1.376v.873c0 .958-.542 1.376-1.667 1.376-4.166 0-7.834-2.417-7.834-7.75V12.497zm-94.41 27.24v-4.923h-1.802V34.2h4.322v.615h-1.812v4.92h-.709v.001zm4.1 0V34.2h3.735v.615h-3.025v1.782h2.965v.615h-2.965v1.909h3.025v.614h-3.735v.001zm5.273-2.765c0-1.702 1.29-2.865 2.931-2.865 1.007 0 1.709.465 2.16 1.096l-.589.324c-.325-.473-.922-.806-1.572-.806-1.249 0-2.196.923-2.196 2.251 0 1.311.947 2.249 2.196 2.249.648 0 1.246-.34 1.57-.805l.598.319c-.478.636-1.161 1.102-2.171 1.102-1.64 0-2.93-1.162-2.93-2.863l.003-.002zm10.689 2.764v-2.539h-3.334v2.54h-.708V34.2h.708v2.382h3.334V34.2h.71v5.536h-.71zm6.715 0l-3.324-4.416v4.416h-.71v-5.536h.727l3.281 4.325V34.2h.71v5.536h-.684zm2.425-2.764c0-1.636 1.146-2.865 2.83-2.865 1.683 0 2.836 1.23 2.836 2.865 0 1.634-1.151 2.864-2.835 2.864s-2.829-1.23-2.829-2.864h-.002zm4.93 0c0-1.295-.827-2.25-2.1-2.25-1.282 0-2.095.955-2.095 2.25 0 1.286.814 2.249 2.096 2.249 1.273 0 2.102-.963 2.102-2.249h-.002zm5.238 2.764v-5.536h.71v4.922h2.648v.614h-3.358zm9.016 0l-.505-1.237h-2.837l-.505 1.237h-.811l2.298-5.536h.88l2.29 5.536h-.811zm-1.924-4.83l-1.205 2.987h2.418l-1.215-2.988h.002zm4.118 4.83v-5.536h2.539c.99 0 1.596.581 1.596 1.412 0 .696-.479 1.162-1 1.27.607.093 1.11.698 1.11 1.363 0 .887-.607 1.494-1.65 1.494h-2.595v-.003zm3.402-4.026c0-.498-.343-.896-.983-.896h-1.708v1.784h1.71c.64 0 .983-.383.983-.888h-.002zm.11 2.457c0-.506-.36-.955-1.05-.955h-1.753v1.91h1.752c.659 0 1.05-.365 1.05-.955zm2.16.789l.427-.53c.368.414.983.796 1.787.796 1.017 0 1.342-.53 1.342-.963 0-1.427-3.376-.63-3.376-2.606 0-.913.838-1.545 1.966-1.545.864 0 1.538.291 2.016.78l-.427.507c-.426-.465-1.025-.664-1.649-.664-.676 0-1.17.358-1.17.88 0 1.244 3.375.53 3.375 2.598 0 .797-.565 1.628-2.102 1.628-.983 0-1.718-.365-2.188-.88v-.001zm8.844.78v-5.536h2.29c1.145 0 1.787.763 1.787 1.668 0 .905-.65 1.668-1.787 1.668H106v2.2h-.711zm3.342-3.87c0-.621-.462-1.052-1.138-1.052H106v2.107h1.494c.676 0 1.138-.43 1.138-1.053v-.001zm4.023 3.87l-2.297-5.536h.811l1.922 4.78 1.923-4.78h.811l-2.29 5.536h-.88zm5.964 0v-4.922h-1.803V34.2h4.324v.615h-1.812v4.92h-.71v.001zm3.152-.374c0-.249.214-.457.47-.457s.47.208.47.457a.467.467 0 0 1-.469.457.469.469 0 0 1-.469-.457h-.002zm5.529.374v-5.536h.708v4.922h2.65v.614H127.3zm5.502 0v-4.922h-1.804V34.2h4.324v.615h-1.812v4.92h-.708v.001zm4.1 0v-5.536h1.95c1.777 0 2.922 1.203 2.922 2.772 0 1.576-1.145 2.764-2.923 2.764h-1.948zm4.136-2.764c0-1.195-.778-2.158-2.187-2.158h-1.24v4.307h1.24c1.385 0 2.187-.964 2.187-2.149zm2.102 2.39c0-.249.214-.457.47-.457s.47.208.47.457a.467.467 0 0 1-.47.457.469.469 0 0 1-.47-.457z" fill="#2A2D43" fill-rule="nonzero"/><path d="M22.136 18.232c-.06.016-.12.032-.18.045.06-.015.12-.03.18-.047v.002z" fill="url(#a)" opacity=".5"/><path d="M21.432 18.343c.065-.002.128-.005.19-.01-.062.005-.126.007-.19.01z" fill="url(#b)" opacity=".5"/><path d="M21.3 13.016h-4.832v.003c-.019 0-.033-.003-.05-.003h-5.383c-.765 0-1.404.257-1.918.773a2.549 2.549 0 0 0-.776 1.869v13.461c0 .732.259 1.363.776 1.894.514.53 1.153.798 1.918.798h5.384c.016 0 .03-.003.049-.003v.003H21.3c.766 0 1.404-.265 1.92-.797.515-.53.773-1.162.773-1.894 0-.763-.258-1.404-.773-1.918-.516-.515-1.154-.773-1.92-.773l-7.817.003V18.34l7.817.012c.045 0 .088-.004.131-.007.03 0 .057-.002.084-.004-.049 0-.098-.004-.148-.004.022 0 .043-.002.065-.003.065-.003.128-.006.19-.012l.076-.009c.063-.008.125-.016.186-.029.025-.004.047-.011.071-.016.06-.013.12-.028.18-.045l.068-.025a1.98 1.98 0 0 0 .17-.06c.024-.01.046-.023.07-.034.053-.024.106-.048.157-.075.026-.013.051-.03.077-.045.049-.029.095-.055.14-.086.033-.022.065-.049.098-.074.036-.026.074-.05.108-.081.067-.055.132-.114.196-.177.353-.353.585-1.57.697-2.549a2.55 2.55 0 0 0-.697-1.226c-.515-.514-1.154-.774-1.919-.774v-.001z"/><path d="M29.682 22.381a11.208 11.208 0 0 0 1.714-3.108c.415-1.148.624-2.351.624-3.617v-.018c-.002-1.488-.286-2.878-.847-4.169a10.92 10.92 0 0 0-2.294-3.387 10.904 10.904 0 0 0-3.39-2.294 10.399 10.399 0 0 0-4.187-.85H11.037c-1.496 0-2.893.284-4.188.85a10.902 10.902 0 0 0-3.391 2.294 10.92 10.92 0 0 0-2.294 3.387c-.566 1.298-.846 2.694-.846 4.188v13.461c0 1.496.277 2.892.844 4.188a10.887 10.887 0 0 0 2.294 3.388 10.913 10.913 0 0 0 3.39 2.295c1.296.565 2.693.848 4.188.848H21.3c1.496 0 2.891-.283 4.187-.848a10.895 10.895 0 0 0 3.39-2.293 10.922 10.922 0 0 0 2.294-3.39c.563-1.299.847-2.695.847-4.188 0-1.264-.208-2.469-.623-3.617a11.216 11.216 0 0 0-1.71-3.102l-.01-.014.004-.005.003.001zm-6.462 8.631c-.516.53-1.154.798-1.92.798h-4.832v-.003c-.019 0-.033.003-.05.003h-5.383c-.765 0-1.404-.266-1.918-.798a2.623 2.623 0 0 1-.776-1.894v-13.46c0-.73.259-1.354.776-1.87.514-.515 1.153-.772 1.918-.772h5.384c.016 0 .03.003.049.003v-.003H21.3c.766 0 1.404.257 1.92.773a2.576 2.576 0 0 1 .773 1.87c0 .768-.26 1.407-.773 1.92a2.836 2.836 0 0 1-.196.179c-.035.028-.072.054-.109.081-.033.025-.064.05-.098.074-.045.03-.092.057-.139.084a.913.913 0 0 1-.076.046 1.96 1.96 0 0 1-.159.074c-.024.012-.046.024-.07.032a1.71 1.71 0 0 1-.171.062l-.068.025c-.059.016-.12.03-.18.044-.024.005-.047.012-.07.016a2.268 2.268 0 0 1-.187.03c-.026.003-.051.008-.077.01l-.106.007-.083.005c-.044.001-.087.005-.13.005l-7.819-.011v8.092l7.817-.004c.765 0 1.404.257 1.92.772.514.517.773 1.157.773 1.921 0 .73-.259 1.361-.776 1.893l.004-.004z" fill="#18CDCA" fill-rule="nonzero"/><path d="M28.873 21.474c.287.287.557.59.809.908l-.005-.008c.367-.465.694-.96.98-1.48-.528-.472-1.1-.89-1.71-1.25a10.977 10.977 0 0 0-3.862-1.362 10.228 10.228 0 0 0-3.47.06c1.376.04 2.664.314 3.867.838a10.96 10.96 0 0 1 3.39 2.294h.001z" fill="#191818" opacity=".2"/></g></svg>