<svg xmlns="http://www.w3.org/2000/svg" width="95" height="60">
  <path d="M32 30.87c-.02-3.527.88-7.34 2.617-8.6.233-.17.432-.25.6-.267.858-.077.92 1.597.614 2.513C34.64 28.084 32 31 32 31v-.13m-2 4.383l.308-.252.008.022-.315.23m-5 19.39c.008.588-.296 3.5-1.454 3.35a.937.937 0 0 1-.35-.126c-1.13-.658-1.93-2.597-2.4-3.693-.693-1.624-1.064-3.375-1.336-5.098-.208-1.318-.265-2.69-.4-4.02l-.006-.063-.01-.117c-.048-.485-.055-1.13-.04-1.817-.014-.282.002-.6.028-.908L19.16 39l.354.504c2.303 3.358 5.408 9.394 5.486 15.14m-4.992-23.9c.086-2.446.997-21.108 9.003-28.484.15-.137.276-.213.387-.24 1.24-.292.206 5.9.035 6.607C26.358 21.275 20 31 20 31l.008-.267M67.1 20.478L57.738 25.5c-.473.25-.826.45-1.04.027-.492-.9-.954-.965-1.645.027-2.338 3.362-2.946 3.868-2.946 3.868-3.766 4.222-3.236-.404-3.016-1.892.172-1.165-.87-1.487-1.893-.053-4.69 6.572-6.213 5.202-6.213 5.202-1.44-.68 1.813-5.762 1.28-6.475-.456-.6-1.135.207-1.38.613-.75 1.24-3.898 7.733-7.024 8.78-1.218.408-1.762-1.7-1.89-2.313l-.03-.157s.278-.295.72-.805c2.177-2.513 5.703-6.467 4.93-10.47-.2-1.035-1.48-2.476-3.12-1.582-5.117 2.79-4.274 11.82-4.26 12.306-2.148 1.776-4.456 3.198-7.22 4.23-.988.37-1.813.505-2.484.485a3.931 3.931 0 0 1-.593-.064l.02-.667.144-3.483C31.752 17.01 32.93 1.626 30.765.308c-2.695-1.64-6.023 3.727-7.038 5.404-5.454 9.015-5.574 26.716-5.574 26.716-4.226 4.895-7.927 8.492-13.44 10.55-2.933 1.096-4.445.145-4.665-.884a.53.53 0 0 1-.049.003c-.034 1.94 1.536 2.538 2.875 2.52 6.52-.08 15.196-8.9 15.172-9.444.028.624-.005 1.353-.057 2.087l-.025.01-.033.736-.195 6.174c-.01.825-.003 1.505.03 1.88.26 3.035.496 6.28 1.586 9.154.782 2.062 3.42 6.72 5.944 3.9 1.867-2.086 1.283-5.32.995-7.89-.436-3.885-2.44-8.56-5.053-12.8.914-.022 1.87-.213 2.837-.528 2.14-.696 4.334-1.993 6.265-3.387l.308-.252.008.022c.274.784.938 2.563 2.06 2.86 1.74.46 3.08-.806 4.514-2.187.532-.512 1.838-2.18 1.838-2.18.66 1.78 3.26 2.156 5.452-.07 1.094-1.11 2.982-3.324 2.982-3.324s0 9.51 8.56-3.014c.464 1.09 1.967.127 1.97.134l1.1-.62C67.604 21.13 80.886 14.092 95 8.206c0 0-19.823 7.996-27.9 12.272" fill-rule="evenodd"/>
</svg>
