<svg width="93" height="30" viewBox="0 0 93 30" xmlns="http://www.w3.org/2000/svg"><title>ideil</title><g fill="none" fill-rule="evenodd"><path d="M59.443 23.55c-1.837 3.718-5.721 6.254-10.231 6.254-6.28 0-11.393-4.938-11.393-11.046S42.931 7.71 49.212 7.71c6.282 0 11.351 4.939 11.351 11.047 0 .65-.13 1.342-.303 1.949 0 0-5.199-.563-5.199-.607.26-.693.39-.563.39-1.342 0-3.423-2.816-6.238-6.239-6.238-3.422 0-6.237 2.815-6.237 6.238 0 3.423 2.815 6.238 6.237 6.238a6.258 6.258 0 0 0 3.998-1.446h6.233z" fill="#000"/><path fill="#000" d="M41.328 20.707H60.26l-4.03-4.245H41.329z"/><path d="M21.314 7.71c-6.151 0-11.176 4.94-11.176 11.048s5.025 11.046 11.176 11.046c6.152 0 11.09-4.938 11.09-11.046S27.466 7.711 21.314 7.711m.217 17.285c-3.423 0-6.239-2.816-6.239-6.238 0-3.422 2.816-6.238 6.239-6.238 3.422 0 6.238 2.816 6.238 6.238 0 3.422-2.816 6.238-6.238 6.238" fill="#000" fill-rule="nonzero"/><path fill="#000" d="M27.77 29.545h5.111V.302H27.77zM76.634 29.545h5.112V.302h-5.112zM.476 29.545h5.112V7.97H.476zM0 3.032a3.014 3.014 0 0 0 3.032 3.033 3.014 3.014 0 0 0 3.033-3.033A3.013 3.013 0 0 0 3.032 0 3.013 3.013 0 0 0 0 3.032M65.327 29.545h5.113V7.97h-5.113zM64.851 3.032a3.015 3.015 0 0 0 3.033 3.033 3.015 3.015 0 0 0 3.032-3.033A3.013 3.013 0 0 0 67.884 0a3.014 3.014 0 0 0-3.033 3.032"/><path fill="#FD0202" d="M87.817 29.545h5.112v-5.281h-5.112z"/></g></svg>