<svg xmlns="http://www.w3.org/2000/svg" viewBox="0 0 452.04 65.96"><path d="M525.69,241.42l-22.47-27.85H503v27.85H488.69v-60.5H503v24.61h.26l21.62-24.61H543.2l-26.06,27.86,27.6,32.64Z" transform="translate(-488.69 -176.82)" style="fill:#7e8ca7"/><ellipse cx="68.01" cy="8.46" rx="8.03" ry="7.69" style="fill:#db7164"/><rect x="61" y="22.04" width="14.01" height="42.55" style="fill:#7e8ca7"/><path d="M602.41,210.32a13.81,13.81,0,0,0-3.59-.43,9.62,9.62,0,0,0-10,9.66v21.87h-14V198.87h13.5V205h.17A12.85,12.85,0,0,1,600,197.67a9.87,9.87,0,0,1,3,.35Z" transform="translate(-488.69 -176.82)" style="fill:#7e8ca7"/><path d="M633.68,211.43a13.29,13.29,0,0,0-8.89-3.85c-2.65,0-5.3.95-5.3,3.42s2.31,3.08,7.78,4.27c6.49,1.46,13.58,4.7,13.58,13,0,10.77-9.48,14.53-18.2,14.53-6.92,0-14.09-2.31-18.54-6.58l7.86-8.29a14.49,14.49,0,0,0,10.43,4.78c2.3,0,5-.93,5-3.67s-2.65-3.5-8.46-4.87-12.39-4.36-12.39-12.39c0-10.17,9.57-14.27,17.69-14.27,6.32,0,12.9,2.05,17.09,6Z" transform="translate(-488.69 -176.82)" style="fill:#7e8ca7"/><path d="M678.27,212.62a9.77,9.77,0,0,0-7.43-3.41c-5.9,0-9.83,5-9.83,10.93S664.86,231,671,231a10.18,10.18,0,0,0,7.6-3.17l7.78,9.49c-3.5,3.42-9.49,5.47-15.72,5.47-13.42,0-23.84-8.55-23.84-22.65,0-13.84,10.51-22.64,23.75-22.64,6.07,0,12.48,2.31,15.81,5.73Z" transform="translate(-488.69 -176.82)" style="fill:#7e8ca7"/><path d="M720,241.42V218.35c0-4.78-1.19-9-6.23-9-4.87,0-7.61,4-7.61,9.06v23h-14v-64.6h14v27.43h.17c1.88-3.41,6.32-6.58,12.22-6.58,11.53,0,15.55,8.89,15.55,17.43v26.32Z" transform="translate(-488.69 -176.82)" style="fill:#7e8ca7"/><path d="M751.14,234.67v6.75h-5.81v-64.6h5.81v31.54h.18a18.13,18.13,0,0,1,15.12-8c12.47,0,20.68,9.22,20.68,21s-8.21,21-20.68,21a18.42,18.42,0,0,1-15.12-7.77Zm14.7-29.39c-9,0-15.38,7-15.38,16.15s6.41,16.06,15.38,16.06c9.65,0,15.12-7.18,15.12-16.06S775.49,205.28,765.84,205.28Z" transform="translate(-488.69 -176.82)" style="fill:#7e8ca7"/><path d="M820.52,215.62c0-6.92-3.76-10.34-10.68-10.34A17,17,0,0,0,798,210l-3.25-3.85c3.25-3.24,8.89-5.72,15.72-5.72,8.64,0,15.56,4.78,15.56,14.52v17.52a54.55,54.55,0,0,0,.68,9h-5.21a40.14,40.14,0,0,1-.6-6.49h-.17c-3.67,5.29-8.12,7.51-14.53,7.51-6.06,0-13.84-3.24-13.84-12.13,0-12.3,13.59-13.41,28.2-13.41Zm-1.71,5.81c-9.48,0-20.51,1-20.51,8.62,0,5.73,4.87,7.61,9.4,7.61,8.2,0,12.82-6.15,12.82-13.24v-3Z" transform="translate(-488.69 -176.82)" style="fill:#7e8ca7"/><path d="M864.86,241.42c-.17-2.14-.34-5.13-.34-6.84h-.17c-2.22,4.62-8,7.86-13.67,7.86-10.17,0-15.21-6.57-15.21-16.48V201.43h5.81v22.13c0,8.38,2.48,14,10.85,14,6.15,0,12.13-4.95,12.13-15.63V201.43h5.81v31.19c0,2.13.09,6.07.34,8.8Z" transform="translate(-488.69 -176.82)" style="fill:#7e8ca7"/><path d="M899.2,200.41c4.36,0,9.66,1.62,12.31,8.46,2.73-5.47,7.6-8.46,14-8.46,10.17,0,15.21,6.58,15.21,16.49v24.52h-5.81V219.29c0-8.37-2.82-14-10.34-14-8.37,0-11.36,7.43-11.36,14.86v21.28h-5.81V218.09c0-7.77-1.88-12.81-9.66-12.81-5.55,0-11.62,4.95-11.62,15.64v20.5h-5.81V210.23c0-2.13-.09-6.06-.34-8.8h5.55c.17,2.14.35,5.13.35,6.84h.17A14.74,14.74,0,0,1,899.2,200.41Z" transform="translate(-488.69 -176.82)" style="fill:#7e8ca7"/></svg>
