<svg xmlns="http://www.w3.org/2000/svg" viewBox="0 0 452.04 65.96"><path d="M37 64.6L14.53 36.74h-.17V64.6H0V4.1h14.36v24.61h.26L36.19 4.1h18.29L28.46 31.96l27.6 32.64zm31.01-48.44a7.7 7.7 0 118-7.69 7.84 7.84 0 01-8 7.69zm-7 48.45V22.04h14V64.6zm52.71-31.11a13.76 13.76 0 00-3.59-.43 9.61 9.61 0 00-10 9.65V64.6h-14V22.04h13.5v6.12h.17a12.87 12.87 0 0111.54-7.35 10.12 10.12 0 013 .34zm31.27 1.1a13.3 13.3 0 00-8.88-3.84c-2.65 0-5.3.94-5.3 3.42s2.3 3.07 7.77 4.27c6.5 1.45 13.59 4.7 13.59 13 0 10.76-9.49 14.53-18.2 14.53-6.92 0-14.1-2.31-18.54-6.59l7.86-8.28a14.46 14.46 0 0010.42 4.78c2.31 0 5-.94 5-3.67s-2.64-3.5-8.46-4.87-12.39-4.36-12.39-12.39c0-10.17 9.57-14.27 17.69-14.27 6.32 0 12.9 2.05 17.09 6zm44.6 1.2a9.77 9.77 0 00-7.44-3.42c-5.89 0-9.82 5-9.82 10.94s3.86 10.84 9.99 10.84a10.19 10.19 0 007.61-3.16l7.77 9.49c-3.5 3.41-9.48 5.47-15.72 5.47-13.41 0-23.84-8.55-23.84-22.65 0-13.84 10.51-22.64 23.76-22.64 6.06 0 12.47 2.31 15.8 5.72zm41.69 28.8V41.53c0-4.79-1.2-9-6.24-9-4.87 0-7.6 4-7.6 9.06v23h-14V-.01h14v27.43h.17c1.88-3.42 6.32-6.58 12.22-6.58 11.53 0 15.55 8.88 15.55 17.43v26.32zm31.18-6.75v6.75h-5.81V0h5.81v31.53h.17a18.18 18.18 0 0115.12-7.95c12.48 0 20.68 9.23 20.68 21s-8.2 21-20.68 21a18.44 18.44 0 01-15.12-7.77zm14.73-29.39c-9 0-15.37 7-15.37 16.14s6.37 16.07 15.37 16.07c9.66 0 15.13-7.18 15.13-16.07s-5.51-16.14-15.13-16.14zm54.65 10.33c0-6.92-3.77-10.33-10.69-10.33a17 17 0 00-11.87 4.7l-3.25-3.85c3.25-3.25 8.89-5.73 15.72-5.73 8.63 0 15.55 4.79 15.55 14.53v17.52a55.77 55.77 0 00.68 9h-5.21a40.17 40.17 0 01-.59-6.5h-.17c-3.68 5.3-8.12 7.52-14.53 7.52-6.07 0-13.84-3.25-13.84-12.13 0-12.3 13.58-13.42 28.2-13.42zm-1.72 5.81c-9.48 0-20.5 1-20.5 8.63 0 5.73 4.87 7.61 9.4 7.61 8.2 0 12.82-6.16 12.82-13.25v-3zm46.07 20c-.18-2.14-.35-5.13-.35-6.84h-.17c-2.22 4.61-8 7.86-13.67 7.86-10.17 0-15.21-6.58-15.21-16.49V24.61h5.81v22.13c0 8.37 2.48 14 10.85 14 6.16 0 12.14-4.95 12.14-15.64V24.6h5.81v31.19c0 2.13.08 6.06.34 8.8zm34.33-41.02c4.36 0 9.65 1.63 12.3 8.46 2.74-5.47 7.61-8.46 14-8.46 10.16 0 15.21 6.58 15.21 16.49V64.6h-5.84V42.47c0-8.38-2.82-14-10.33-14-8.38 0-11.37 7.43-11.37 14.86v21.28h-5.81V41.27c0-7.77-1.88-12.81-9.65-12.81-5.56 0-11.62 4.95-11.62 15.63V64.6h-5.81V33.41c0-2.14-.09-6.07-.34-8.8h5.55c.17 2.13.34 5.12.34 6.83h.17a14.77 14.77 0 0113.2-7.86z" fill="#485263"/></svg>
