<svg width="179" height="40" viewBox="0 0 179 40" xmlns="http://www.w3.org/2000/svg"><title>kirschbaum</title><g fill="none" fill-rule="evenodd"><path d="M41.398 38.571H.506a.511.511 0 0 1-.358-.145.492.492 0 0 1-.148-.352V.973C0 .698.226.476.506.476H41.4c.28 0 .506.222.506.497v37.1a.501.501 0 0 1-.507.497v.001zm-40.385-.994H40.89V1.47H1.013v36.106z" fill="#000" fill-rule="nonzero"/><path fill="#290368" d="M9.583 1.429v15.675L25.135 1.43h9.954L20.717 15.157l15.294 21.51h-9.52l-10.658-16.85-6.186 5.775-.123 11.075H40V1.429z"/><path d="M48.571 1.429h4.083v6.8l5.16-6.8h5.072L57.09 8.403l6.52 10.748H58.54l-4.215-7.447-1.669 1.986v5.46h-4.083V1.43zM68.55 4.655h-3.732V1.43h3.732v3.226zM64.817 6.27h3.732V19.15h-3.732V6.269zm6.498 0h3.622v2.258h.044c.549-1.637 1.823-2.507 3.425-2.507.286 0 .592.025.878.1v3.847c-.483-.15-.922-.248-1.427-.248-1.844 0-2.81 1.44-2.81 3.053v6.379h-3.732V6.269zm12.118 8.638c0 .644.241 1.116.615 1.439.351.298.856.447 1.383.447.724 0 1.756-.347 1.756-1.365 0-.993-1.164-1.191-1.822-1.365-2.349-.67-5.291-.745-5.291-4.22 0-3.103 2.964-3.947 5.203-3.947 2.503 0 5.115.819 5.247 4.17h-3.447c0-.545-.175-.894-.483-1.116-.307-.224-.724-.324-1.185-.324-.615 0-1.603.075-1.603.969 0 1.216 2.503 1.44 4.215 1.862 2.306.521 2.899 2.407 2.899 3.474 0 3.45-2.899 4.592-5.468 4.592-2.7 0-5.466-1.017-5.576-4.616h3.557zm16.729-3.922c-.022-1.092-.878-1.862-1.823-1.862-2.085 0-2.414 2.01-2.414 3.798 0 1.663.636 3.375 2.217 3.375 1.295 0 1.954-.843 2.13-2.208h3.622c-.33 3.45-2.7 5.435-5.73 5.435-3.425 0-5.972-2.655-5.972-6.602 0-4.096 2.306-7.024 5.972-7.024 2.832 0 5.357 1.688 5.62 5.088h-3.622zm5.597-9.556h3.733V8.03h.043c.572-1.316 2.108-2.135 3.47-2.135 3.797 0 4.105 3.128 4.105 4.99v8.265h-3.733v-6.23c0-1.763.176-3.55-1.866-3.55-1.405 0-2.02 1.34-2.02 2.755v7.024h-3.732V1.43zm13.83 0h3.733v6.255h.044c.768-1.192 1.844-1.788 3.25-1.788 3.226 0 4.807 3.177 4.807 6.529 0 3.623-1.515 7.098-5.094 7.098-1.317 0-2.415-.645-3.139-1.86h-.044v1.488h-3.556V1.429zm3.601 11.145c0 2.258.571 3.722 2.262 3.722 1.667 0 2.238-1.96 2.238-3.723 0-1.637-.57-3.45-2.217-3.45-1.01 0-2.283.795-2.283 3.45zm10.077-2.334c.065-1.688.768-2.78 1.778-3.45 1.01-.645 2.327-.894 3.622-.894 2.7 0 5.313.67 5.313 4.32v5.634c0 1.092 0 2.283.439 3.3h-3.754c-.132-.396-.176-.793-.22-1.215-.966 1.142-2.392 1.589-3.754 1.589-2.174 0-3.886-1.241-3.886-3.898 0-4.194 4.04-3.872 6.63-4.467.637-.15.988-.398.988-1.192 0-.968-1.032-1.34-1.8-1.34-1.032 0-1.69.52-1.866 1.613h-3.491zm4.83 6.677c1.777 0 2.37-1.142 2.283-3.798-.527.372-1.493.448-2.306.695-.834.224-1.536.62-1.536 1.638 0 1.043.724 1.466 1.558 1.466zm19.67 2.234h-3.623v-1.762h-.044c-.703 1.315-2.151 2.134-3.469 2.134-3.271 0-4.215-2.134-4.215-5.51V6.268h3.733v7.472c0 1.713.658 2.308 1.844 2.308.812 0 2.041-.596 2.041-2.88v-6.9h3.732V19.15zm2.502-12.882h3.622V8.03h.043c.681-1.29 1.888-2.135 3.272-2.135 1.427 0 2.7.521 3.315 2.085.9-1.365 2.02-2.085 3.556-2.085 3.623 0 4.018 3.103 4.018 5.56v7.695h-3.732v-7.57c0-1.39-.593-2.21-1.559-2.21-1.603 0-1.756 1.39-1.756 3.475v6.305h-3.733v-7.322c0-1.514-.394-2.458-1.405-2.458-1.34 0-1.91.87-1.91 3.5v6.28h-3.732V6.269zM48.571 37.257v-7.998h2.801c.91 0 1.765.056 2.527.6 1.082.767 1.367 2.322 1.367 3.388 0 1.056-.24 2.233-.99 3.033-.752.821-1.823.977-2.904.977h-2.8zm.775-.644H51.2c.694 0 1.299-.044 1.925-.367 1.092-.544 1.366-1.91 1.366-2.999 0-1.167-.262-2.443-1.412-3.043-.49-.256-1.195-.3-1.879-.3h-1.856v6.71zm7.764-2.077c-.011 1.244.671 2.278 1.981 2.278.888 0 1.583-.479 1.788-1.323h.762c-.341 1.09-1.047 1.922-2.55 1.922-1.89 0-2.71-1.311-2.71-3.01 0-1.678 1.025-3.056 2.71-3.056 1.617 0 2.608 1.122 2.596 3.188H57.11v.001zm3.848-.556c0-1.122-.637-2.033-1.867-2.033-1.207 0-1.844.945-1.981 2.033h3.848zm1.434-2.477h.74l1.912 4.932 1.914-4.932h.74l-2.289 5.754h-.763l-2.254-5.754zm6.74 3.033c-.011 1.244.671 2.278 1.981 2.278.888 0 1.583-.479 1.788-1.323h.762c-.341 1.09-1.047 1.922-2.55 1.922-1.89 0-2.71-1.311-2.71-3.01 0-1.678 1.025-3.056 2.71-3.056 1.617 0 2.608 1.122 2.596 3.188h-4.577v.001zm3.848-.556c0-1.122-.637-2.033-1.867-2.033-1.207 0-1.844.945-1.98 2.033h3.847zm2.163 3.277v-7.998h.683v7.998h-.683zm2.038-2.877c0-1.677.911-3.032 2.733-3.032 1.844 0 2.732 1.344 2.732 3.032 0 1.822-1.082 3.033-2.732 3.033-1.504-.022-2.733-1.022-2.733-3.033zm2.733-2.433c-1.436 0-2.004 1.189-2.004 2.433 0 1.433.694 2.434 2.004 2.434 1.434 0 2.003-1.2 2.003-2.434-.011-1.355-.558-2.433-2.003-2.433zm4.747 7.577h-.684v-8.02h.684v1.01h.022c.4-.755 1.299-1.166 2.05-1.166 1.901 0 2.664 1.322 2.664 3.021 0 1.61-.83 3.044-2.63 3.044-.832 0-1.674-.378-2.106-1.078v3.188zm1.992-2.711c1.412 0 2.072-1.166 2.015-2.61-.01-1.444-.865-2.256-2.015-2.256-1.286 0-1.992 1.067-1.992 2.455 0 1.3.751 2.41 1.992 2.41zm4.793.444h-.683v-5.754h.683v.867h.023c.352-.655 1.059-1.022 1.821-1.022 1.093 0 1.48.5 1.73 1.11.389-.743 1.083-1.11 1.925-1.11 1.606 0 1.833 1.122 1.833 2.277v3.633h-.683V33.28c0-.822-.296-1.334-1.264-1.334-.501 0-.99.212-1.332.656-.296.378-.388 1.077-.388 1.556v3.098h-.682v-3.976c0-.822-.296-1.333-1.264-1.333-.501 0-.99.21-1.332.655-.296.378-.388 1.078-.388 1.556v3.098h.001zm9.312-2.72c-.01 1.243.672 2.277 1.982 2.277.888 0 1.583-.479 1.787-1.323h.762c-.34 1.09-1.047 1.922-2.55 1.922-1.89 0-2.71-1.311-2.71-3.01 0-1.678 1.025-3.056 2.71-3.056 1.618 0 2.608 1.122 2.597 3.188h-4.578v.001zm3.849-.557c0-1.122-.638-2.033-1.867-2.033-1.207 0-1.844.945-1.982 2.033h3.849zm2.744 3.277h-.684v-5.754h.684v.8c.546-.566 1.081-.955 1.9-.955.718 0 1.379.222 1.8.822.284.41.296.844.296 1.321v3.767h-.683v-3.756c0-1.033-.433-1.555-1.526-1.555-.843 0-1.423.534-1.64 1.122-.136.367-.147.69-.147 1.09v3.098zm7.718.023c-.16.033-.455.133-.785.133-.672 0-1.048-.289-1.048-1.145v-4.21h-.83v-.555h.83v-1.6h.684v1.6h1.103v.555h-1.103v3.944c0 .566.022.81.592.81.181 0 .375-.032.557-.077v.545zm7.845-3.51v-.645h3.506v4.132h-.66v-1.366c-.57.955-1.446 1.577-3.063 1.577-2.072 0-3.586-1.41-3.586-4.255 0-2.343 1.207-4.165 3.79-4.165 1.72 0 3.075.822 3.428 2.533h-.797c-.273-1.2-1.355-1.888-2.573-1.888-2.163 0-3.074 1.554-3.074 3.82 0 1.767 1.093 3.31 2.972 3.31.888 0 1.935-.365 2.47-1.399.262-.5.342-1.055.353-1.655h-2.766zm5.988 3.487h-.684v-5.754h.684v1.078h.023c.375-.922.933-1.233 1.923-1.233v.722c-1.536-.033-1.946 1.078-1.946 2.366v2.821zm2.481-2.877c0-1.677.911-3.032 2.733-3.032 1.844 0 2.733 1.344 2.733 3.032 0 1.822-1.082 3.033-2.733 3.033-1.503-.022-2.733-1.022-2.733-3.033zm2.733-2.433c-1.434 0-2.004 1.189-2.004 2.433 0 1.433.694 2.434 2.004 2.434 1.434 0 2.004-1.2 2.004-2.434-.012-1.355-.558-2.433-2.004-2.433zm7.98-.444h.683v5.754h-.683v-.8c-.365.4-.865.956-1.901.956-1.572 0-2.096-.922-2.096-2.122v-3.788h.684v3.777c0 .988.444 1.533 1.514 1.533 1.128 0 1.8-.911 1.8-2.178v-3.132zm3.098 8.02h-.684v-8.02h.684v1.012h.022c.399-.756 1.298-1.167 2.05-1.167 1.9 0 2.663 1.322 2.663 3.021 0 1.61-.83 3.044-2.63 3.044-.83 0-1.673-.378-2.105-1.078v3.188zm1.992-2.71c1.412 0 2.072-1.166 2.015-2.61-.011-1.444-.865-2.256-2.015-2.256-1.286 0-1.992 1.067-1.992 2.455 0 1.3.75 2.41 1.992 2.41zm5.373.777c0 .644-.353 1.045-.83 1.188v-.41c.181-.11.386-.288.386-.733v-.378h-.387v-.977h.83v1.31zm6.17-.333v-7.998h.775v7.354h4.394v.644h-5.168zm6.33 0v-7.998h.775v7.354h4.395v.644h-5.17zm12.148-5.676c-.319-1.366-1.184-1.888-2.584-1.888-1.982 0-2.835 1.655-2.835 3.543 0 1.789.672 3.588 2.903 3.588 1.412 0 2.289-.933 2.596-2.2h.808c-.364 1.544-1.354 2.844-3.552 2.844-2.528 0-3.53-1.944-3.53-4.21 0-3.055 1.64-4.21 3.815-4.21 1.685 0 2.914.877 3.176 2.532h-.796v.001z" fill="#000" fill-rule="nonzero"/><path d="M177.52 25.238H48.194a.736.736 0 0 1-.407-.114c-.108-.073-.168-.172-.168-.275v-.175c0-.214.258-.388.575-.388H177.52c.318 0 .575.174.575.388v.175c0 .215-.258.39-.575.39z" fill="#000"/></g></svg>