<svg id="Layer_1" data-name="Layer 1" xmlns="http://www.w3.org/2000/svg" viewBox="0 0 321.16 84.1"><defs><style>.cls-1{fill:#0072ba;}.cls-2{fill:#009ddd;}.cls-3{fill:#231f20;}</style></defs><title>RomegaDigital_Logo_Final</title><path id="_Path_" data-name="&lt;Path&gt;" class="cls-1" d="M42.46,87.24,18.89,110.76V45.24A15.26,15.26,0,0,1,34.16,30h8.3Z" transform="translate(-18.89 -29.98)"/><g id="_Group_" data-name="&lt;Group&gt;"><path id="_Path_2" data-name="&lt;Path&gt;" class="cls-2" d="M18.89,53.54V45.05A15.08,15.08,0,0,1,34,30h66.08L76.2,53.54Z" transform="translate(-18.89 -29.98)"/></g><path id="_Path_3" data-name="&lt;Path&gt;" class="cls-1" d="M79.8,56.81l23.57-23.52v68.09a12.69,12.69,0,0,1-12.69,12.69H79.8Z" transform="translate(-18.89 -29.98)"/><path id="_Path_4" data-name="&lt;Path&gt;" class="cls-2" d="M103.37,90.51v10.7a12.86,12.86,0,0,1-12.86,12.86H22.21L46.07,90.51Z" transform="translate(-18.89 -29.98)"/><path class="cls-3" d="M143.41,63.2l9.79,15.35h-7.08L137.22,64h-6.4V78.55h-6.45V42.12h12.7c8.8,0,13.9,3.64,13.9,11C151,58.25,148.25,61.79,143.41,63.2Zm-6.3-15.67h-6.3V58.62h6.3c5,0,7.29-1.67,7.29-5.52S142.16,47.53,137.11,47.53Z" transform="translate(-18.89 -29.98)"/><path class="cls-3" d="M173.18,79.18c-10.57,0-16.76-8.22-16.76-18.84s6.19-18.84,16.76-18.84,16.76,8.22,16.76,18.84S183.75,79.18,173.18,79.18Zm0-32.17c-6.25,0-10.2,5.15-10.2,13.32s4,13.32,10.2,13.32,10.2-5.15,10.2-13.32S179.43,47,173.18,47Z" transform="translate(-18.89 -29.98)"/><path class="cls-3" d="M212.69,71.94l-10-18.53V78.55h-6.45V42.12h6.35l12.13,22,12.13-22h6.35V78.55h-6.45V53.41l-10,18.53Z" transform="translate(-18.89 -29.98)"/><path class="cls-3" d="M241.16,42.12h23.53v5.41H247.62v9.58h15.25v5.41H247.62V73.14h17.54v5.41h-24Z" transform="translate(-18.89 -29.98)"/><path class="cls-3" d="M286.44,41.49c7,0,12.07,2.91,15.09,7.86l-5.31,2.86A10.51,10.51,0,0,0,286.65,47C280.93,47,276,51.69,276,60.33s5,13.32,11.4,13.32c3.44,0,6.45-1.14,8-3.23v-6h-8.22V59h14.47V72.77c-3.12,4.06-8.17,6.4-14.37,6.4-10.51,0-17.85-7.7-17.85-18.84S276.45,41.49,286.44,41.49Z" transform="translate(-18.89 -29.98)"/><path class="cls-3" d="M326.68,42.12l13.38,36.43h-6.92l-2.86-8.33H315.43l-2.81,8.33H305.7l13.38-36.43Zm-9.37,22.69h11.14l-5.57-16.4Z" transform="translate(-18.89 -29.98)"/><path class="cls-3" d="M124.31,104.75V87.51h5.37c5,0,8,3.32,8,8.62s-3,8.62-8,8.62Zm5.22-1.43c4.06,0,6.5-2.66,6.5-7.19s-2.44-7.19-6.5-7.19h-3.65v14.38Z" transform="translate(-18.89 -29.98)"/><path class="cls-3" d="M146.28,87.51v17.24H144.7V87.51Z" transform="translate(-18.89 -29.98)"/><path class="cls-3" d="M161,87.22a7.47,7.47,0,0,1,6.72,3.4l-1.31.81a6,6,0,0,0-5.37-2.73c-3.45,0-6.13,2.78-6.13,7.44,0,4.48,2.61,7.44,6.55,7.44a6.12,6.12,0,0,0,4.75-1.92V97.31h-4.68V95.88h6.26v6.35a8,8,0,0,1-6.35,2.81c-5,0-8.15-3.89-8.15-8.92C153.32,90.91,156.47,87.22,161,87.22Z" transform="translate(-18.89 -29.98)"/><path class="cls-3" d="M176.74,87.51v17.24h-1.58V87.51Z" transform="translate(-18.89 -29.98)"/><path class="cls-3" d="M188.59,88.94H183V87.51h12.63v1.43h-5.52v15.81h-1.58Z" transform="translate(-18.89 -29.98)"/><path class="cls-3" d="M207.65,87.51l6.77,17.24h-1.75l-1.8-4.7H202.7l-1.8,4.7h-1.75l6.77-17.24Zm-4.46,11.11h7.19l-3.6-9.43Z" transform="translate(-18.89 -29.98)"/><path class="cls-3" d="M220.73,87.51h1.58v15.81h8.87v1.43H220.73Z" transform="translate(-18.89 -29.98)"/></svg>