<svg id="Layer_1" data-name="Layer 1" xmlns="http://www.w3.org/2000/svg" viewBox="0 0 260.19 66.18" width="260px" height="66px"><defs><style>.cls-1{fill:#fcb13e;}.cls-2{fill:#1a2024;}</style></defs><title>left-full-color</title><path class="cls-1" d="M45.83,34.08v-2a1.05,1.05,0,0,0-1-1.06H38.19A6.15,6.15,0,0,1,32,24.89V18.3A1.07,1.07,0,0,0,31,17.24H29a1.06,1.06,0,0,0-1,1.06v6.59A6.16,6.16,0,0,1,21.78,31H15.2a1.05,1.05,0,0,0-1.06,1.06v2a1.05,1.05,0,0,0,1.06,1.06h6.58a6.15,6.15,0,0,1,6.16,6.15v6.59a1,1,0,0,0,1,1h2a1.06,1.06,0,0,0,1.06-1V41.29a6.15,6.15,0,0,1,6.15-6.15h6.59a1.05,1.05,0,0,0,1-1.06M52.7,17.44a4.88,4.88,0,0,1,2.2,3.8v23.7a4.88,4.88,0,0,1-2.2,3.8L32.18,60.59a4.91,4.91,0,0,1-4.39,0L7.27,48.74a4.86,4.86,0,0,1-2.19-3.8V21.24a4.86,4.86,0,0,1,2.19-3.8L27.79,5.59a4.85,4.85,0,0,1,4.39,0Z"/><path class="cls-1" d="M14.14,34.08v-2A1.05,1.05,0,0,1,15.2,31h6.58a6.16,6.16,0,0,0,6.16-6.15V18.3a1.06,1.06,0,0,1,1-1.06h2A1.07,1.07,0,0,1,32,18.3v6.59A6.15,6.15,0,0,0,38.19,31h6.59a1.05,1.05,0,0,1,1,1.06v2a1.06,1.06,0,0,1-1,1.06H38.19A6.15,6.15,0,0,0,32,41.29v6.59a1.06,1.06,0,0,1-1.06,1H29a1,1,0,0,1-1-1V41.29a6.15,6.15,0,0,0-6.16-6.15H15.2a1.06,1.06,0,0,1-1.06-1.06M30,5.07a4.47,4.47,0,0,0-2.2.52L7.27,17.44a4.86,4.86,0,0,0-2.19,3.8v23.7a4.83,4.83,0,0,0,2.19,3.79L27.79,60.59a4.85,4.85,0,0,0,4.39,0L52.7,48.73a4.84,4.84,0,0,0,2.2-3.79V21.24a4.88,4.88,0,0,0-2.2-3.8L32.18,5.59A4.49,4.49,0,0,0,30,5.07Z"/><polygon class="cls-2" points="85.99 25.86 79.57 25.86 79.57 20.74 98.3 20.74 98.3 25.86 91.84 25.86 91.84 45.44 85.99 45.44 85.99 25.86"/><rect class="cls-2" x="108.58" y="20.74" width="5.86" height="24.69"/><path class="cls-2" d="M125.48,40.57v-15c0-3.32,1.59-4.87,4.87-4.87h9.86c3.28,0,4.86,1.55,4.86,4.87v2.92h-5.56v-2c0-.53-.25-.74-.75-.74h-6.68c-.49,0-.74.21-.74.74V39.65a.66.66,0,0,0,.74.74h6.68a.66.66,0,0,0,.75-.74V36.34h-4V31.68h9.58v8.89c0,3.28-1.58,4.87-4.86,4.87h-9.86c-3.28,0-4.87-1.59-4.87-4.87"/><polygon class="cls-2" points="155.51 20.74 161.37 20.74 161.37 30.23 169.3 30.23 169.3 20.74 175.16 20.74 175.16 45.44 169.3 45.44 169.3 35.38 161.37 35.38 161.37 45.44 155.51 45.44 155.51 20.74"/><polygon class="cls-2" points="190.85 25.86 184.43 25.86 184.43 20.74 203.16 20.74 203.16 25.86 196.7 25.86 196.7 45.44 190.85 45.44 190.85 25.86"/><polygon class="cls-2" points="212.65 20.74 229.65 20.74 229.65 25.82 218.5 25.82 218.5 30.3 227.43 30.3 227.43 35.31 218.5 35.31 218.5 40.36 229.65 40.36 229.65 45.44 212.65 45.44 212.65 20.74"/><polygon class="cls-2" points="254.52 20.74 254.52 35.24 245.8 20.74 239.84 20.74 239.84 45.44 245.52 45.44 245.52 30.13 254.76 45.44 260.2 45.44 260.2 20.74 254.52 20.74"/></svg>
