<?xml version="1.0" encoding="utf-8"?>
<!-- Generator: Adobe Illustrator 25.1.0, SVG Export Plug-In . SVG Version: 6.00 Build 0)  -->
<svg version="1.1" id="Layer_1" xmlns="http://www.w3.org/2000/svg" xmlns:xlink="http://www.w3.org/1999/xlink" x="0px" y="0px"
	 viewBox="0 0 268.6 56.1" style="enable-background:new 0 0 268.6 56.1;" xml:space="preserve" width="269px" height="56px">
<style type="text/css">
	.st0{fill:#FCB13E;}
	.st1{fill:#1A2024;}
</style>
<g>
	<path class="st0" d="M40.8,29v-2c0-0.6-0.4-1-1-1.1h-6.6c-3.4,0-6.2-2.7-6.2-6.1c0,0,0,0,0,0v-6.6c0-0.6-0.4-1-1-1.1h-2
		c-0.6,0-1,0.5-1,1.1v6.6c0,3.4-2.8,6.1-6.2,6.1c0,0,0,0,0,0h-6.6c-0.6,0-1.1,0.5-1.1,1c0,0,0,0,0,0v2c0,0.6,0.5,1.1,1,1.1
		c0,0,0,0,0,0h6.6c3.4,0,6.2,2.7,6.2,6.1c0,0,0,0,0,0v6.6c0,0.6,0.4,1,1,1h2c0.6,0,1-0.4,1.1-1v-6.6c0-3.4,2.8-6.1,6.2-6.1l0,0h6.6
		C40.2,30,40.7,29.6,40.8,29 M47.6,12.4c1.3,0.8,2.1,2.3,2.2,3.8v23.7c-0.1,1.5-0.9,3-2.2,3.8L27.1,55.5c-1.4,0.7-3,0.7-4.4,0
		L2.2,43.7c-1.3-0.8-2.1-2.3-2.2-3.8V16.2c0.1-1.5,0.9-3,2.2-3.8L22.7,0.5c1.4-0.7,3-0.7,4.4,0L47.6,12.4z"/>
	<path class="st0" d="M9.1,29v-2c0-0.6,0.4-1.1,1-1.1c0,0,0,0,0,0h6.6c3.4,0,6.2-2.8,6.2-6.1v-6.6c0-0.6,0.4-1,1-1.1h2
		c0.6,0,1.1,0.5,1.1,1.1v6.6c0,3.4,2.8,6.1,6.2,6.1c0,0,0,0,0,0h6.6c0.6,0,1,0.5,1,1.1v2c0,0.6-0.4,1-1,1.1h-6.6
		c-3.4,0-6.2,2.7-6.2,6.1c0,0,0,0,0,0.1v6.6c0,0.6-0.5,1-1.1,1h-1.9c-0.6,0-1-0.4-1-1v-6.6c0-3.4-2.8-6.2-6.1-6.2c0,0,0,0,0,0h-6.6
		C9.5,30.1,9.1,29.6,9.1,29L9.1,29 M24.9,0c-0.8,0-1.5,0.2-2.2,0.5L2.2,12.4c-1.3,0.8-2.1,2.3-2.2,3.8v23.7c0.1,1.5,0.9,2.9,2.2,3.8
		l20.5,11.9c1.4,0.7,3,0.7,4.4,0l20.5-11.9c1.3-0.8,2.1-2.2,2.2-3.8V16.2c-0.1-1.5-0.9-3-2.2-3.8L27.1,0.5C26.4,0.2,25.7,0,24.9,0z"
		/>
	<polygon class="st1" points="72.9,20.5 65.7,20.5 65.7,14.7 86.7,14.7 86.7,20.5 79.5,20.5 79.5,42.5 72.9,42.5 	"/>
	<rect x="98.3" y="14.7" class="st1" width="6.6" height="27.7"/>
	<path class="st1" d="M117.2,37V20.1c0-3.7,1.8-5.5,5.5-5.5h11.1c3.7,0,5.5,1.7,5.5,5.5v3.3H133v-2.2c0-0.6-0.3-0.8-0.8-0.8h-7.5
		c-0.6,0-0.8,0.2-0.8,0.8V36c-0.1,0.4,0.2,0.8,0.6,0.8c0.1,0,0.1,0,0.2,0h7.5c0.4,0.1,0.8-0.2,0.8-0.6c0-0.1,0-0.1,0-0.2v-3.7h-4.5
		V27h10.8v10c0,3.7-1.8,5.5-5.5,5.5h-11.1C119.1,42.5,117.3,40.7,117.2,37"/>
	<polygon class="st1" points="151,14.7 157.6,14.7 157.6,25.4 166.5,25.4 166.5,14.7 173.1,14.7 173.1,42.5 166.5,42.5 166.5,31.2
		157.6,31.2 157.6,42.5 151,42.5 	"/>
	<polygon class="st1" points="190.7,20.5 183.5,20.5 183.5,14.7 204.5,14.7 204.5,20.5 197.3,20.5 197.3,42.5 190.7,42.5 	"/>
	<polygon class="st1" points="215.2,14.7 234.3,14.7 234.3,20.4 221.7,20.4 221.7,25.5 231.8,25.5 231.8,31.1 221.7,31.1
		221.7,36.8 234.3,36.8 234.3,42.5 215.2,42.5 	"/>
	<polygon class="st1" points="262.2,14.7 262.2,31 252.4,14.7 245.7,14.7 245.7,42.5 252.1,42.5 252.1,25.3 262.5,42.5 268.6,42.5
		268.6,14.7 	"/>
</g>
</svg>
