<svg width="263" height="40" viewBox="0 0 263 40" xmlns="http://www.w3.org/2000/svg"><title>tighten</title><g fill-rule="nonzero" fill="none"><path d="M70.263 28.641v2.85h-8.866v-2.85h2.876V13.35h-4.221v4.083H57V10.5h17.651v6.924H71.6v-4.083h-4.221v15.3h2.885zm21.239 0v2.85H82.69v-2.85h2.849V13.35h-2.85V10.5h8.813v2.85h-2.85V28.64h2.85zM111.8 17.098c-.053-2.487-.14-3.086-.378-3.33-.176-.182-.404-.273-1.275-.273h-5.233c-.897 0-1.108.063-1.31.272-.29.3-.405 1.17-.405 7.233 0 6.053.114 6.924.405 7.224.202.209.413.272 1.31.272h5.382c.81 0 1.1-.063 1.302-.272.237-.245.378-1.17.378-3.812V23.37h-4.274v-2.76h7.44v3.15c0 4.62-.281 5.872-1.187 6.806-.668.69-1.54.926-3.166.926h-6.543c-1.742 0-2.41-.209-3.026-.835-1.011-1.053-1.39-2.586-1.39-9.656 0-7.079.379-8.612 1.39-9.665.616-.626 1.284-.835 3.026-.835h6.393c1.663 0 2.586.236 3.114.78.932.962 1.16 2.097 1.222 5.809h-3.166l-.009.009zm28.882 11.543h2.727v2.85h-8.575v-2.85h2.735V21.99h-8.25v6.652h2.727v2.85h-8.575v-2.85h2.735V13.35h-2.726V10.5h8.566v2.85h-2.727v5.871h8.25V13.35h-2.726V10.5h8.574v2.85h-2.744V28.64h.01zm23.957 0v2.85h-8.865v-2.85h2.876V13.35h-4.221v4.083h-3.052V10.5h17.65v6.924h-3.051v-4.083h-4.221v15.3h2.884zm12.34-15.291V10.5h15.935v6.325h-3.051V13.35h-7.036v5.871h5.461v2.768h-5.461v6.652h7.264v-3.93h3.052v6.78h-16.165v-2.85h2.727V13.35h-2.727zm39.338 0h-2.726V10.5h8.337v2.85h-2.673V31.5h-3.73c-.835 0-1.01-.182-1.362-.998l-6.799-16.136h-.44v14.275h2.736v2.85h-8.4v-2.85h2.727V13.35h-2.726V10.5h6.736c.845 0 1.02.182 1.372.998l6.509 15.4h.44V13.35zm21.213 17.324c-.897-.926-1.16-2.042-1.16-6.325 0-4.284.263-5.39 1.16-6.317.554-.58 1.381-.816 2.736-.816h3.896c1.257 0 1.82.263 2.26.708.668.69.923 1.633.923 4.31h-2.594c-.044-1.851-.15-2.169-.308-2.323-.15-.163-.352-.236-.941-.236H240.6c-.792 0-.994.073-1.179.263-.264.263-.387.763-.387 4.41 0 3.649.132 4.157.387 4.42.176.182.387.273 1.179.273h2.92c.571 0 .826-.064 1.002-.245.176-.182.282-.717.282-2.514h2.594c0 2.958-.264 3.784-.95 4.492-.413.427-1.055.726-2.26.726h-3.922c-1.355 0-2.182-.245-2.736-.826zm14.881 0c-.897-.926-1.152-2.042-1.152-6.325 0-4.284.255-5.39 1.143-6.317.572-.58 1.39-.816 2.744-.816h3.958c1.354 0 2.172.236 2.735.816.897.926 1.161 2.033 1.161 6.317 0 4.283-.264 5.4-1.16 6.325-.564.581-1.382.817-2.736.817h-3.958c-1.354 0-2.172-.236-2.735-.817zm1.891-1.906c.176.182.387.273 1.187.273h3.28c.792 0 .995-.091 1.18-.273.254-.272.377-.771.377-4.42 0-3.647-.123-4.147-.378-4.41-.176-.181-.387-.272-1.178-.272h-3.28c-.792 0-1.003.09-1.188.272-.255.263-.378.763-.378 4.41 0 3.649.123 4.157.378 4.42z" fill="#424242"/><path d="M32.502 9.118c.82.477 1.498 1.672 1.498 2.643V28.25c0 .97-.679 2.158-1.498 2.643l-14.013 8.244c-.82.485-2.168.485-2.996 0L1.498 30.892A3.403 3.403 0 0 1 0 28.249V11.76c0-.97.67-2.157 1.498-2.643L15.502.865a3.255 3.255 0 0 1 2.996 0L32.502 9.11v.01zm-4.689 11.58v-1.385a.73.73 0 0 0-.722-.737h-4.495a4.153 4.153 0 0 1-2.972-1.25 4.323 4.323 0 0 1-1.232-3.03V9.711a.73.73 0 0 0-.713-.737H16.32a.73.73 0 0 0-.722.737v4.585a4.323 4.323 0 0 1-1.232 3.03 4.153 4.153 0 0 1-2.972 1.25H6.9a.73.73 0 0 0-.713.737v1.384a.72.72 0 0 0 .722.728h4.495c1.114 0 2.182.453 2.97 1.257a4.324 4.324 0 0 1 1.225 3.032v4.585a.72.72 0 0 0 .722.728h1.358a.718.718 0 0 0 .713-.728v-4.585a4.323 4.323 0 0 1 1.23-3.035 4.153 4.153 0 0 1 2.974-1.254h4.495a.726.726 0 0 0 .722-.728z" fill="#FBB13D"/></g></svg>