<svg id="Layer_1" data-name="Layer 1" xmlns="http://www.w3.org/2000/svg" viewBox="0 0 2068.85 333.49"><defs><style>.cls-1{fill:#2c53ec;}</style></defs><title>Worksome_Logotype_Blue</title><g id="Logo_Target_and_Type" data-name="Logo Target and Type"><g id="Worksome_Letters" data-name="Worksome Letters"><path id="w" class="cls-1" d="M72.82,327.23q-21.76-51.06-35.75-86.58t-22.2-58.83q-8.22-23.31-11.54-36T0,127.87a24.18,24.18,0,0,1,6.22-16.43q6.21-7.09,19.09-7.1,9.77,0,15.32,1.78A62.28,62.28,0,0,1,48,108.78q5.32,19.54,12,41.51T73.7,194q7.11,21.75,14,41.51t12.21,35.3q4.88-13.76,10.43-31.52t11.55-36.63q6-18.87,11.76-38.19t10.66-36.63q3.56-11.53,10-17.54t20.65-6a49.37,49.37,0,0,1,16,2.44q7.09,2.45,8.88,3.33,5.76,20,12.43,42t13.32,43.29q6.66,21.31,13.1,40.85t11.77,34.63q11.53-30.63,23.75-67T296.59,131q4-13.75,10.44-20.2t19.75-6.44c8,0,14.5,1.33,19.54,4s7.84,4.29,8.44,4.88q-3.57,14.66-12.44,40.4t-20,55.73q-11.1,30-23.53,61.27t-23.53,56.61H222.89q-3.55-9.33-9.55-27.31t-13.1-39.29q-7.1-21.31-14-43.74T173.6,175.82q-5.78,18.66-12.65,41.07t-13.76,43.74q-6.9,21.31-12.66,39.29t-9.32,27.31Z" transform="translate(0 0)"/><path id="o1" class="cls-1" d="M467,98.12A129.91,129.91,0,0,1,515.17,107,118.53,118.53,0,0,1,554,131.65a113.67,113.67,0,0,1,25.75,37.29,121.14,121.14,0,0,1,0,93.24A113.61,113.61,0,0,1,554,299.48a121.29,121.29,0,0,1-38.85,24.86,132.1,132.1,0,0,1-96.35,0A121.24,121.24,0,0,1,380,299.48a113.61,113.61,0,0,1-25.75-37.3,121.23,121.23,0,0,1,0-93.24A113.82,113.82,0,0,1,380,131.65,118.49,118.49,0,0,1,418.82,107,129.92,129.92,0,0,1,467,98.12Zm0,190.48a69.91,69.91,0,0,0,28-5.55,63.25,63.25,0,0,0,22-15.54,73.57,73.57,0,0,0,14.2-23.09,78.26,78.26,0,0,0,5.11-28.64,82,82,0,0,0-5.11-29.08A70.28,70.28,0,0,0,517,163.39a65,65,0,0,0-22-15.32,73.84,73.84,0,0,0-56.17,0,65.15,65.15,0,0,0-21.75,15.32,70,70,0,0,0-14.21,23.31,81.53,81.53,0,0,0-5.11,29.08,78,78,0,0,0,5.11,28.64,73.41,73.41,0,0,0,14.21,23.09,63.64,63.64,0,0,0,21.75,15.54A69.53,69.53,0,0,0,467,288.6Z" transform="translate(0 0)"/><path id="r" class="cls-1" d="M608,183.82q0-40.84,25.09-63.27t69.49-22.43q28,0,45.5,7.77t17.54,23.76a28.31,28.31,0,0,1-4.22,14.65q-4.21,7.11-6.88,8.88a119.65,119.65,0,0,0-18.65-6.66,93.86,93.86,0,0,0-25.3-3.11q-51.95,0-52,55.06V327.23H608Z" transform="translate(0 0)"/><path id="k" class="cls-1" d="M771.53,23.53q0-12,7.1-17.76t20-5.77a50.79,50.79,0,0,1,14.65,2q6.66,2,8.88,2.88V186.26q5.77-4,16.21-11.73t23.31-17q12.87-9.3,26.64-19.48t26.19-19a114.48,114.48,0,0,1,17.76-10.88q8-3.77,20.87-3.77,12,0,20.43,6.44t10.65,10.88q-9.32,8.41-25.53,20.59t-33.1,24.29q-16.87,12.18-32,22.59t-21.76,15.27a532.91,532.91,0,0,1,68.82,60.72q31.08,32.7,52.39,62.05H930q-10.21-12.47-22.86-26t-27.09-26.7q-14.43-13.12-29.3-25.37t-28.64-22.47V327.23H771.53Z" transform="translate(0 0)"/><path id="s" class="cls-1" d="M1006,271.73a70.41,70.41,0,0,0,11.1,5.77,200.94,200.94,0,0,0,19.76,7.33,206.19,206.19,0,0,0,26.86,6.43,188.41,188.41,0,0,0,32.86,2.67q23.09,0,37.74-6T1149,267.29q0-12.44-9.32-18.87t-33.3-9.1l-34.63-4a163.45,163.45,0,0,1-32.64-6.44,84,84,0,0,1-25.53-12.65,56.55,56.55,0,0,1-16.65-19.76q-6-11.76-6-28.19a66.07,66.07,0,0,1,5.55-26.87A60,60,0,0,1,1014,119q12-9.77,31.3-15.32t46.84-5.55q46.17,0,71.71,10.22T1189.33,135a20.57,20.57,0,0,1-2,9.32,41.4,41.4,0,0,1-4.44,7.1,27.47,27.47,0,0,1-5.11,5.11,16.56,16.56,0,0,1-4,2.44,53,53,0,0,0-7.77-5.55,89.78,89.78,0,0,0-16.21-7.55,168.87,168.87,0,0,0-24.42-6.66,166.91,166.91,0,0,0-32.86-2.88q-51.51,0-51.5,27.08,0,11.55,9.77,17.54t28,8.21l45.29,5.78q36.84,4.89,57.27,20.2t20.43,45.06q0,33.3-26.42,53.28t-76.15,20a244,244,0,0,1-43.51-3.55,266.32,266.32,0,0,1-34-8.21,171,171,0,0,1-23.31-9.1q-8.89-4.44-11.55-6.66Z" transform="translate(0 0)"/><path id="o" class="cls-1" d="M1330.92,98.12a129.91,129.91,0,0,1,48.17,8.88,118.72,118.72,0,0,1,38.85,24.65,113.67,113.67,0,0,1,25.75,37.29,121.14,121.14,0,0,1,0,93.24,113.61,113.61,0,0,1-25.75,37.3,121.29,121.29,0,0,1-38.85,24.86,132.1,132.1,0,0,1-96.35,0,121.12,121.12,0,0,1-38.85-24.86,113.61,113.61,0,0,1-25.75-37.3,121.23,121.23,0,0,1,0-93.24,113.82,113.82,0,0,1,25.75-37.29A118.45,118.45,0,0,1,1282.74,107,129.92,129.92,0,0,1,1330.92,98.12Zm0,190.48a69.91,69.91,0,0,0,28-5.55,63.25,63.25,0,0,0,22-15.54,73.57,73.57,0,0,0,14.2-23.09,78.26,78.26,0,0,0,5.11-28.64,82,82,0,0,0-5.11-29.08,70.28,70.28,0,0,0-14.2-23.31,65,65,0,0,0-22-15.32,73.84,73.84,0,0,0-56.17,0A65.15,65.15,0,0,0,1281,163.39a70,70,0,0,0-14.21,23.31,81.53,81.53,0,0,0-5.11,29.08,78,78,0,0,0,5.11,28.64A73.41,73.41,0,0,0,1281,267.51a63.64,63.64,0,0,0,21.75,15.54A69.53,69.53,0,0,0,1330.92,288.6Z" transform="translate(0 0)"/><path id="m" class="cls-1" d="M1471.88,183.82q0-21.31,7.55-37.3a75,75,0,0,1,20.65-26.64,91.61,91.61,0,0,1,30.85-16.21,129.27,129.27,0,0,1,38.63-5.55q27.53,0,49.29,10.22a81.7,81.7,0,0,1,34.63,30.19,82.18,82.18,0,0,1,34.19-30.19q21.3-10.22,48.39-10.22a132.31,132.31,0,0,1,38.19,5.33,86.37,86.37,0,0,1,30.63,16,76.49,76.49,0,0,1,20.43,26.64q7.55,16,7.55,37.29V327.23h-50.62V200.69q0-30.65-13.77-43.74t-37.29-13.09q-22.65,0-38,14.65T1677.9,206V327.23h-50.62V206q0-32.87-15.32-47.51t-38-14.65q-23.09,0-37.29,13.32t-14.21,44v126.1h-50.62Z" transform="translate(0 0)"/><path id="e" class="cls-1" d="M2060.4,310.8c-2.38,1.48-6.07,3.55-11.1,6.22a113.39,113.39,0,0,1-18.87,7.54,213.62,213.62,0,0,1-26.2,6.22,184.92,184.92,0,0,1-32.63,2.66,139.5,139.5,0,0,1-46.4-7.54,107.74,107.74,0,0,1-37.74-22.43,105.49,105.49,0,0,1-25.53-36.4q-9.33-21.54-9.32-49.51,0-26.64,9.1-48.62A111.12,111.12,0,0,1,1887,131.2a114.25,114.25,0,0,1,38.18-24.42q22-8.66,48.17-8.66,23.09,0,40.85,6t30,16a65.33,65.33,0,0,1,24.64,51.73,67.07,67.07,0,0,1-5.77,28.19q-5.78,12.66-20.42,21.76T2003.12,236q-24.87,5.1-63,5.1-8.88,0-16.65-.22t-16.65-.67a55.17,55.17,0,0,0,22,36.63q18.42,14,52.62,14a119,119,0,0,0,21.31-1.78,120.47,120.47,0,0,0,17.54-4.44,127.44,127.44,0,0,0,13.32-5.32q5.54-2.67,8.21-4ZM1904.55,205.57q10.21.45,19.54.45h18.65q24.4,0,39.51-3.11t23.54-8q8.43-4.89,11.1-11.1a32.43,32.43,0,0,0,2.66-12.88q0-16.87-13.54-25.31t-33.52-8.43q-16.44,0-28.86,5.77a62.39,62.39,0,0,0-20.87,15.32,69.81,69.81,0,0,0-13.1,22A79.65,79.65,0,0,0,1904.55,205.57Z" transform="translate(0 0)"/></g><path id="Target_Circle" data-name="Target Circle" class="cls-1" d="M433.41,216.23a33.67,33.67,0,0,1,2.66-13.32A34.47,34.47,0,0,1,443.4,192a33.82,33.82,0,0,1,11.1-7.33A35.14,35.14,0,0,1,468,182a34.11,34.11,0,0,1,34.19,34v.16a35.14,35.14,0,0,1-2.66,13.54,33.82,33.82,0,0,1-7.33,11.1,37.79,37.79,0,0,1-10.88,7.55A31.27,31.27,0,0,1,468,251.3a33,33,0,0,1-24.42-10.43A34,34,0,0,1,433.41,216.23Z" transform="translate(0 0)"/></g></svg>