<svg width="97" height="100" viewBox="0 0 97 100" xmlns="http://www.w3.org/2000/svg"><title>logo_mark</title><path d="M96.88 22.575c.035.131.054.268.054.408v21.42c0 .558-.299 1.075-.784 1.354l-17.978 10.35v20.516c0 .56-.298 1.076-.783 1.355L39.866 99.581c-.086.05-.18.08-.273.112-.036.013-.07.035-.106.044a1.57 1.57 0 0 1-.802 0c-.042-.01-.08-.035-.12-.05-.088-.03-.176-.06-.259-.106L.783 77.978A1.564 1.564 0 0 1 0 76.623V12.365c0-.14.02-.277.054-.408.013-.047.038-.087.055-.132.03-.082.057-.166.1-.242.03-.05.073-.092.107-.14.046-.061.086-.127.14-.181.045-.045.102-.078.153-.118.057-.045.108-.095.172-.133h.001l.001-.001L19.545.208a1.566 1.566 0 0 1 1.56 0L39.866 11.01h.001l.002.001c.064.038.115.088.172.133.05.04.108.073.153.118.054.054.093.12.14.181.034.048.077.09.106.14.044.076.07.16.1.242.017.045.043.085.055.132.036.131.055.269.055.408V52.5l15.634-9.002V22.983c0-.14.02-.277.055-.408.012-.047.037-.087.054-.132.03-.082.057-.166.1-.242.03-.051.073-.093.108-.14.045-.062.085-.127.14-.181.044-.045.101-.079.152-.118.057-.045.108-.095.172-.133h.001l.001-.001L75.83 10.827a1.564 1.564 0 0 1 1.56 0l18.761 10.8.002.002c.065.038.116.088.173.133.05.04.108.073.153.118.054.054.094.12.139.181.035.047.078.089.107.14.044.076.07.16.1.242.018.045.043.085.056.132zm-3.073 20.923v-17.81l-6.566 3.78-9.069 5.22V52.5l15.635-9.002zM75.046 75.72V57.897l-8.923 5.093L40.65 77.53v17.992l34.396-19.803zM3.126 15.07v60.65l34.397 19.803V77.535L19.555 67.366c-.002 0-.004-.003-.006-.004-.002-.002-.005-.002-.007-.003-.062-.036-.112-.086-.168-.13-.05-.038-.105-.07-.15-.113l-.003-.005c-.05-.05-.086-.11-.129-.165-.039-.051-.085-.097-.117-.152l-.002-.005c-.036-.06-.056-.13-.082-.195-.025-.058-.057-.114-.074-.176v-.003c-.021-.074-.023-.152-.032-.229-.006-.058-.023-.115-.023-.175v-.003V24.071l-9.07-5.222-6.565-3.78zM20.326 3.368L4.697 12.365l15.628 8.997 15.628-8.997-15.628-8.997zm8.13 56.152l9.068-5.22V15.07l-6.566 3.78-9.069 5.22V63.3l6.566-3.78zm48.154-45.534l-15.628 8.997L76.61 31.98l15.628-8.997-15.628-8.997zm-1.563 20.703l-9.07-5.222-6.565-3.78v17.811l9.069 5.221 6.566 3.78V34.69zM39.083 74.825L62.006 61.74l11.46-6.541-15.619-8.991-17.98 10.351-16.388 9.435 15.604 8.832z" fill="#FF2D20" fill-rule="evenodd"/></svg>