<svg width="123" height="30" viewBox="0 0 123 30" xmlns="http://www.w3.org/2000/svg"><title>logo_type</title><path d="M4.961.197v24.898h9.009v4.295H.166V.197H4.96zm25.94 12.386V9.956h4.546V29.39h-4.546v-2.627c-.612.973-1.48 1.738-2.607 2.294-1.125.555-2.258.834-3.398.834-1.474 0-2.823-.272-4.046-.814a9.461 9.461 0 0 1-3.148-2.23 10.371 10.371 0 0 1-2.044-3.254 10.497 10.497 0 0 1-.73-3.92c0-1.362.243-2.662.73-3.9a10.328 10.328 0 0 1 2.044-3.273 9.47 9.47 0 0 1 3.148-2.232c1.223-.542 2.572-.813 4.046-.813 1.14 0 2.273.278 3.398.834 1.127.557 1.995 1.321 2.607 2.294zm-.417 9.467c.278-.75.417-1.543.417-2.377a6.8 6.8 0 0 0-.417-2.377 6.03 6.03 0 0 0-1.167-1.96c-.501-.556-1.106-1.001-1.814-1.335-.71-.333-1.496-.5-2.357-.5-.862 0-1.64.167-2.336.5a5.715 5.715 0 0 0-1.793 1.335c-.5.556-.883 1.21-1.146 1.96a7.087 7.087 0 0 0-.397 2.377c0 .834.132 1.626.397 2.377.263.75.646 1.404 1.146 1.96a5.703 5.703 0 0 0 1.793 1.335c.695.334 1.474.5 2.336.5.861 0 1.647-.166 2.357-.5a5.641 5.641 0 0 0 1.814-1.335c.5-.556.889-1.21 1.167-1.96zm8.55 7.34V9.956h12.344v4.473H43.58V29.39h-4.545zM67.85 12.583V9.956h4.546V29.39h-4.546v-2.627c-.611.973-1.48 1.738-2.606 2.294-1.126.555-2.26.834-3.4.834-1.473 0-2.821-.272-4.044-.814a9.461 9.461 0 0 1-3.15-2.23 10.371 10.371 0 0 1-2.042-3.254 10.497 10.497 0 0 1-.73-3.92c0-1.362.243-2.662.73-3.9a10.328 10.328 0 0 1 2.043-3.273 9.47 9.47 0 0 1 3.149-2.232c1.223-.542 2.57-.813 4.045-.813 1.14 0 2.273.278 3.399.834 1.126.557 1.995 1.321 2.606 2.294zm-.417 9.467c.278-.75.417-1.543.417-2.377a6.8 6.8 0 0 0-.417-2.377 6.03 6.03 0 0 0-1.167-1.96c-.501-.556-1.106-1.001-1.814-1.335-.71-.333-1.495-.5-2.357-.5-.862 0-1.64.167-2.336.5a5.715 5.715 0 0 0-1.793 1.335c-.5.556-.883 1.21-1.146 1.96a7.087 7.087 0 0 0-.397 2.377c0 .834.132 1.626.397 2.377.263.75.646 1.404 1.146 1.96a5.703 5.703 0 0 0 1.793 1.335c.695.334 1.474.5 2.336.5.862 0 1.648-.166 2.357-.5a5.641 5.641 0 0 0 1.814-1.335c.5-.556.89-1.21 1.167-1.96zM90.622 9.956h4.604l-7.46 19.434h-5.714l-7.46-19.434h4.603l5.714 14.882 5.713-14.882zm14.519-.5c6.19 0 10.41 5.486 9.618 11.906h-15.08c0 1.677 1.692 4.918 5.712 4.918 3.458 0 5.774-3.041 5.776-3.044l3.07 2.376c-2.745 2.932-4.993 4.279-8.514 4.279-6.29 0-10.555-3.98-10.555-10.218 0-5.642 4.406-10.217 9.973-10.217zm-5.45 8.528h10.893c-.034-.374-.624-4.917-5.48-4.917-4.855 0-5.379 4.543-5.414 4.917zm18.028 11.406V.197h4.546V29.39h-4.546z" fill="#FF2D20" fill-rule="evenodd"/></svg>