<svg xmlns="http://www.w3.org/2000/svg" width="242.3" height="16.6" viewBox="0 0 242.3 16.6"><g fill="#FFF"><path d="M19.2 13.3v2.9H0V.4h3.5v12.8h15.7zM36.6.4l10.9 15.8h-4L41 12.4H27.4l-2.5 3.7H21L31.9.4h4.7zm-7.4 9.3h9.9l-5-7.3-4.9 7.3zM64.1.4c4.4 0 5.8.6 6.9 1.7.9.9 1.2 2.1 1.2 3.4 0 1.3-.3 2.5-1.3 3.5-.9.9-2.2 1.6-5.2 1.8l8.4 5.2v.1H69l-8.3-5.2h-6.2v5.2H51V.4h13.1zm-9.6 7.8h9.7c2.4 0 3.5-.3 4-.9.4-.4.6-.8.6-1.6 0-.7-.2-1.3-.6-1.7-.5-.5-1.5-.8-4-.8h-9.7v5zM90.9.4l10.9 15.8h-4l-2.5-3.7H81.7l-2.5 3.7h-3.8L86.2.4h4.7zm-7.4 9.3h9.9l-5-7.3-4.9 7.3zM105.4 13.7c-1.4-1.4-2-3.3-2-5.4s.7-4.1 2-5.4c1.5-1.5 4.5-2.8 10-2.8 4.4 0 7.7.9 9.6 2v3.2c-2.2-1.3-5.8-2.4-9.6-2.4-3.9 0-6.3.8-7.3 1.8-.8.8-1.3 2-1.3 3.6s.4 2.7 1.3 3.5c1 1 3.4 1.9 7.3 1.9 3.8 0 7.4-1 9.6-2.2v3.1c-1.9 1.1-5.2 2-9.6 2-5.5-.1-8.5-1.4-10-2.9zM151.6 2.8c1.4 1.4 2 3.1 2 5.5s-.6 4.1-2 5.5c-1.5 1.5-4.4 2.8-10.3 2.8s-8.8-1.3-10.3-2.8c-1.4-1.4-2.1-3.1-2.1-5.5s.6-4.1 2-5.5c1.5-1.5 4.5-2.8 10.3-2.8 6 0 8.9 1.3 10.4 2.8zm-17.8 1.8c-.9.9-1.3 1.9-1.3 3.7s.5 2.8 1.4 3.7c1 1 3.2 1.9 7.5 1.9 4.2 0 6.5-.9 7.5-1.9.8-.8 1.3-1.9 1.3-3.7s-.5-2.8-1.3-3.6c-1.1-1.1-3.3-1.9-7.5-1.9s-6.6.8-7.6 1.8zM177.8 13.1V.4h3.5v15.7h-4.9L162 3.2v12.9h-3.4V.4h5.1l14.1 12.7zM203.5.1l-4.8 6.5h-4l5.7-6.5h3.1zM205 3l5.4-2.6h4.1v15.7H211V3.4l-6 2.9V3zM221.6 14.4c-1.4-1.4-1.8-3.7-1.8-5.9 0-2.3.7-4.4 2-5.7 1.5-1.5 4.4-2.8 9.9-2.8 4.3 0 7.4.7 9.3 1.5v3.1c-2.2-1.1-5.5-1.8-9.3-1.8-3.8 0-6 .8-7.1 1.8-.7.7-1.2 1.8-1.3 3.7 1.4-1.3 3.6-2.1 8.3-2.1 5.4 0 8.2.5 9.6 1.9.8.8 1.1 1.9 1.1 3.1 0 1.1-.4 2.3-1.2 3.1-1.3 1.3-3.5 2.3-10 2.3-5.2 0-7.8-.6-9.5-2.2zm16.6-1.9c.4-.4.5-.8.5-1.3s-.1-.9-.5-1.3c-.8-.8-3-1.1-6.8-1.1-3.7 0-6.5.4-7.3 1.3-.3.3-.5.7-.5 1.2s.2 1 .5 1.3c.9.9 3.2 1.3 6.9 1.3 3.8-.1 6.3-.5 7.2-1.4z"/></g></svg>