<svg xmlns="http://www.w3.org/2000/svg" width="182" height="53.5"><path d="M63.813 12.41c4.338 0 7.146 1.684 8.524 2.756.868.56.918 1.43.306 2.296l-.51.767c-.613.916-1.327.97-2.297.405-1.073-.765-3.063-1.938-5.77-1.938-5.206 0-8.983 3.88-8.983 9.188 0 5.257 3.777 9.29 9.086 9.29 3.112 0 5.36-1.43 6.582-2.35.92-.612 1.685-.51 2.297.46l.407.767c.51.868.357 1.686-.458 2.246-1.43 1.174-4.544 3.164-9.19 3.164-8.115 0-13.782-5.768-13.782-13.527 0-7.657 5.72-13.527 13.783-13.527zm14.7 2.296c0-1.123.56-1.684 1.685-1.684h1.582c1.07 0 1.635.562 1.635 1.684v13.73c0 3.575.765 6.434 4.85 6.434 5.308 0 8.42-4.646 8.42-9.75V14.706c0-1.123.564-1.684 1.687-1.684h1.58c1.074 0 1.688.562 1.688 1.684v22.46c0 1.123-.613 1.685-1.687 1.685h-1.428c-1.123 0-1.685-.56-1.685-1.682V34.87c0-.767.152-1.48.152-1.48h-.102c-1.124 2.552-4.544 6.074-9.597 6.074-5.82 0-8.78-3.063-8.78-9.903V14.708zm30.32-10.208c0-1.123.56-1.685 1.685-1.685h1.582c1.072 0 1.633.562 1.633 1.685v10.464a14.86 14.86 0 0 1-.152 2.194h.104s2.297-4.747 8.422-4.747c6.84 0 11.283 5.51 11.283 13.475 0 8.27-4.954 13.578-11.69 13.578-6.077 0-8.27-4.9-8.27-4.9h-.103s.153.612.153 1.532v1.275c0 .92-.614 1.48-1.687 1.48h-1.275c-1.124 0-1.686-.562-1.686-1.684V4.498zm12.047 30.678c4.134 0 7.503-3.318 7.503-9.188 0-5.616-3.01-9.24-7.3-9.24-3.88 0-7.452 2.757-7.452 9.19 0 4.746 2.4 9.238 7.25 9.238zm29.4-22.766c7.146 0 11.128 5.104 11.128 12.3 0 .92-.715 1.737-1.735 1.737H142.42c.305 5.615 4.338 8.73 8.933 8.73 2.808 0 5.003-1.175 6.175-2.043.97-.51 1.737-.408 2.298.563l.458.766c.512.867.358 1.735-.508 2.244-1.532 1.072-4.595 2.758-8.73 2.758-8.115 0-13.68-5.87-13.68-13.527 0-8.22 5.564-13.528 12.914-13.528zm6.177 10.77c-.154-4.544-2.86-6.89-6.28-6.89-3.775 0-6.84 2.55-7.555 6.89h13.835zm11.433-5.87h-1.787c-1.07 0-1.633-.612-1.633-1.684v-.664c0-1.072.563-1.685 1.685-1.685h1.838V7.61c0-1.122.614-1.684 1.684-1.684h1.48c1.124 0 1.686.562 1.686 1.685v5.668h4.49c1.124 0 1.687.612 1.687 1.685v.664c0 1.072-.563 1.684-1.634 1.684h-4.543v11.486c0 4.9 3.013 5.667 4.902 5.82 1.326.102 1.785.51 1.785 1.684v1.07c0 1.174-.664 1.685-2.042 1.685-5.104 0-9.597-2.96-9.597-9.494V17.31zM52.237 50.678v-6.03H50.03v-.752h5.295v.753h-2.22v6.027h-.868zm5.023 0v-6.782h4.575v.753H58.13v2.184h3.632v.753H58.13v2.338h3.706v.753H57.26zm6.46-3.386c0-2.085 1.58-3.51 3.59-3.51 1.234 0 2.093.57 2.647 1.343l-.722.397c-.398-.58-1.13-.987-1.926-.987-1.53 0-2.69 1.13-2.69 2.757 0 1.606 1.16 2.755 2.69 2.755.794 0 1.526-.417 1.924-.986l.732.39c-.586.78-1.423 1.35-2.66 1.35-2.008 0-3.588-1.423-3.588-3.507zm13.093 3.386v-3.11H72.73v3.11h-.868v-6.782h.868v2.918h4.083v-2.918h.87v6.782h-.87zm8.227 0l-4.072-5.41v5.41h-.87v-6.782h.89l4.02 5.298v-5.298h.87v6.782h-.838zm2.97-3.386c0-2.004 1.404-3.51 3.466-3.51s3.475 1.506 3.475 3.51c0 2.002-1.41 3.508-3.473 3.508s-3.465-1.506-3.465-3.508zm6.04 0c0-1.586-1.014-2.757-2.574-2.757-1.57 0-2.565 1.17-2.565 2.757 0 1.575.997 2.755 2.567 2.755 1.56 0 2.575-1.18 2.575-2.755zm6.416 3.386v-6.782h.87v6.03h3.244v.752h-4.114zm11.044 0l-.618-1.516h-3.476l-.618 1.516h-.994l2.816-6.782h1.078l2.805 6.782h-.994zm-2.357-5.918l-1.476 3.66h2.962l-1.488-3.66zm5.045 5.918v-6.782h3.11c1.213 0 1.956.712 1.956 1.73 0 .853-.587 1.423-1.226 1.555.744.114 1.36.856 1.36 1.67 0 1.087-.743 1.83-2.02 1.83h-3.18zm4.167-4.932c0-.61-.42-1.098-1.204-1.098h-2.092v2.186h2.094c.786 0 1.205-.47 1.205-1.088zm.135 3.01c0-.62-.44-1.17-1.287-1.17h-2.146v2.34h2.146c.807 0 1.287-.448 1.287-1.17zm2.647.966l.523-.65c.45.508 1.203.976 2.188.976 1.246 0 1.644-.65 1.644-1.18 0-1.748-4.135-.772-4.135-3.192 0-1.118 1.026-1.892 2.408-1.892 1.058 0 1.884.356 2.47.956l-.523.62c-.522-.57-1.256-.813-2.02-.813-.828 0-1.434.438-1.434 1.078 0 1.524 4.135.65 4.135 3.182 0 .977-.692 1.994-2.575 1.994-1.204 0-2.105-.446-2.68-1.077zm10.833.956v-6.782h2.806c1.402 0 2.188.935 2.188 2.044 0 1.108-.796 2.043-2.188 2.043h-1.937v2.695h-.87zm4.094-4.74c0-.762-.566-1.29-1.394-1.29h-1.83v2.582h1.83c.828 0 1.394-.528 1.394-1.29zm4.928 4.74l-2.814-6.782h.994l2.355 5.856 2.355-5.856h.994l-2.806 6.782h-1.078zm7.306 0v-6.03H146.1v-.752h5.297v.753h-2.22v6.027h-.87zm3.862-.458c0-.305.262-.56.575-.56.314 0 .576.255.576.56 0 .305-.26.56-.574.56a.574.574 0 0 1-.575-.56zm6.772.458v-6.782h.868v6.03h3.245v.752h-4.113zm6.74 0v-6.03h-2.21v-.752h5.298v.753h-2.22v6.027h-.867zm5.024 0v-6.782h2.387c2.177 0 3.58 1.474 3.58 3.396 0 1.93-1.403 3.386-3.58 3.386h-2.387zm5.066-3.386c0-1.464-.953-2.644-2.68-2.644h-1.518v5.276h1.518c1.697 0 2.68-1.18 2.68-2.632zm2.575 2.928c0-.305.262-.56.576-.56.313 0 .574.255.574.56 0 .305-.26.56-.574.56a.574.574 0 0 1-.576-.56z" fill="#2A2D43"/><path fill="#3EBFC1" d="M30.2 24.305l-.084.03.084-.03zm-.304.085c-.03.005-.058.014-.087.02l.085-.02zm-.316.054c-.03.004-.062.01-.093.013.032-.003.062-.008.094-.013z"/><linearGradient id="a" gradientUnits="userSpaceOnUse" x1="33.465" y1="18.691" x2="30.56" y2="23.453"><stop offset="0" stop-color="#18cdca" stop-opacity="0"/><stop offset=".172" stop-color="#3DBBBC" stop-opacity=".172"/><stop offset=".383" stop-color="#33AEAD" stop-opacity=".383"/><stop offset=".614" stop-color="#249994" stop-opacity=".614"/><stop offset=".857" stop-color="#0F7B72" stop-opacity=".857"/><stop offset="1" stop-color="#00675A"/></linearGradient><path opacity=".5" fill="url(#a)" d="M30.116 24.334c-.072.02-.146.04-.22.055.074-.018.148-.036.22-.057z"/><linearGradient id="b" gradientUnits="userSpaceOnUse" x1="33.26" y1="18.581" x2="30.361" y2="23.334"><stop offset="0" stop-color="#18cdca" stop-opacity="0"/><stop offset=".172" stop-color="#3DBBBC" stop-opacity=".172"/><stop offset=".383" stop-color="#33AEAD" stop-opacity=".383"/><stop offset=".614" stop-color="#249994" stop-opacity=".614"/><stop offset=".857" stop-color="#0F7B72" stop-opacity=".857"/><stop offset="1" stop-color="#00675A"/></linearGradient><path opacity=".5" fill="url(#b)" d="M29.81 24.41z"/><linearGradient id="c" gradientUnits="userSpaceOnUse" x1="33.031" y1="18.464" x2="30.14" y2="23.203"><stop offset="0" stop-color="#18cdca" stop-opacity="0"/><stop offset=".172" stop-color="#3DBBBC" stop-opacity=".172"/><stop offset=".383" stop-color="#33AEAD" stop-opacity=".383"/><stop offset=".614" stop-color="#249994" stop-opacity=".614"/><stop offset=".857" stop-color="#0F7B72" stop-opacity=".857"/><stop offset="1" stop-color="#00675A"/></linearGradient><path opacity=".5" fill="url(#c)" d="M29.254 24.47c.08-.002.157-.006.232-.013-.075.007-.153.01-.232.014z"/><path fill="none" d="M29.093 17.944h-5.92v.004c-.023 0-.04-.004-.06-.004h-6.595c-.937 0-1.72.316-2.35.947a3.122 3.122 0 0 0-.95 2.29v16.49c0 .897.317 1.67.95 2.32.63.65 1.413.978 2.35.978h6.595c.02 0 .037-.004.06-.004v.004h5.92c.938 0 1.72-.325 2.352-.977.63-.65.947-1.423.947-2.32 0-.935-.317-1.72-.947-2.35-.632-.63-1.414-.947-2.352-.947l-9.576.004v-9.913l9.576.015c.055 0 .107-.005.16-.008.036 0 .07-.003.103-.005-.06 0-.12-.005-.182-.005.027 0 .053-.003.08-.004.08-.003.157-.007.232-.015.032-.002.063-.007.094-.01.077-.01.153-.02.228-.036.03-.005.058-.014.087-.02a3.72 3.72 0 0 0 .22-.055l.084-.03c.07-.023.14-.046.207-.075.03-.012.057-.027.086-.04.065-.03.13-.06.193-.092.032-.017.063-.038.094-.056.06-.035.117-.067.172-.105.04-.027.08-.06.12-.09.044-.032.09-.063.132-.1.082-.067.162-.14.24-.217.433-.432.717-1.924.854-3.122a3.124 3.124 0 0 0-.854-1.502c-.63-.63-1.413-.948-2.35-.948z"/><path fill="#18CDCA" d="M39.36 29.417a13.73 13.73 0 0 0 2.1-3.808c.508-1.406.764-2.88.764-4.43v-.023c-.002-1.822-.35-3.525-1.037-5.106a13.377 13.377 0 0 0-2.81-4.15 13.357 13.357 0 0 0-4.152-2.81c-1.59-.69-3.297-1.04-5.13-1.04H16.52c-1.832 0-3.543.347-5.13 1.04a13.355 13.355 0 0 0-4.154 2.81 13.377 13.377 0 0 0-2.81 4.15c-.694 1.59-1.037 3.3-1.037 5.13v16.49c0 1.832.34 3.542 1.035 5.13a13.337 13.337 0 0 0 2.81 4.15 13.368 13.368 0 0 0 4.153 2.812c1.587.692 3.298 1.038 5.13 1.038h12.575c1.833 0 3.542-.346 5.13-1.038 1.588-.69 2.97-1.63 4.152-2.81a13.379 13.379 0 0 0 2.81-4.153c.69-1.59 1.038-3.3 1.038-5.13 0-1.548-.255-3.024-.763-4.43a13.74 13.74 0 0 0-2.095-3.8l-.012-.017.005-.007zM31.445 39.99c-.632.65-1.414.977-2.352.977h-5.92v-.004c-.023 0-.04.004-.06.004h-6.595c-.937 0-1.72-.325-2.35-.977-.633-.65-.95-1.424-.95-2.32V21.18c0-.894.317-1.658.95-2.29.63-.63 1.413-.946 2.35-.946h6.595c.02 0 .037.004.06.004v-.004h5.92c.938 0 1.72.316 2.352.947.436.44.718.94.854 1.504.06.25.092.512.092.788 0 .94-.317 1.723-.947 2.352-.078.078-.158.15-.24.218-.043.035-.088.067-.133.1-.04.03-.078.062-.12.09-.055.037-.113.07-.17.103-.03.02-.062.04-.094.057-.064.034-.13.063-.194.09-.03.015-.057.03-.086.04-.068.03-.138.053-.21.076l-.083.03c-.072.02-.146.038-.22.054-.03.006-.058.015-.087.02-.075.016-.15.026-.228.036-.032.004-.063.01-.094.013l-.13.008c-.034.002-.067.005-.102.006-.054.002-.106.007-.16.007l-9.577-.014v9.913l9.575-.005c.938 0 1.72.315 2.352.946.63.633.947 1.417.947 2.353 0 .894-.317 1.667-.95 2.318z"/><path opacity=".2" fill="#191818" d="M38.37 28.306a13 13 0 0 1 .99 1.112l-.006-.01c.45-.57.85-1.176 1.2-1.813a13.028 13.028 0 0 0-2.095-1.53 13.447 13.447 0 0 0-4.73-1.67 12.529 12.529 0 0 0-4.25.075c1.685.047 3.263.384 4.737 1.026 1.587.694 2.97 1.63 4.152 2.81z"/></svg>