<svg width="47" height="32" viewBox="0 0 47 32" xmlns="http://www.w3.org/2000/svg"><title>cashier</title><path d="M12.668 23.011a6.196 6.196 0 0 0 11.545.73h11.174c.607 0 1.2-.06 1.774-.174V27a5 5 0 0 1-5 5H5a5 5 0 0 1-5-5V15.323a5 5 0 0 1 5-5h2.256c-.02.244-.03.492-.03.742v3.677a9.002 9.002 0 0 0 5.442 8.27zM14.29 0h27.162a5 5 0 0 1 5 5v11.677a5 5 0 0 1-5 5H14.29a5 5 0 0 1-5-5V5a5 5 0 0 1 5-5zm13.581 17.032a6.194 6.194 0 1 0 0-12.387 6.194 6.194 0 0 0 0 12.387z" fill="#FFF" fill-rule="evenodd"/></svg>