<svg width="45" height="44" viewBox="0 0 45 44" xmlns="http://www.w3.org/2000/svg" xmlns:xlink="http://www.w3.org/1999/xlink"><title>dusk</title><defs><path d="M30.856 43.898a22.544 22.544 0 0 1-8.07 1.484C10.305 45.382.188 35.265.188 22.785S10.306.19 22.785.19c2.844 0 5.564.525 8.07 1.484C22.362 4.92 16.33 13.149 16.33 22.785c0 9.637 6.032 17.864 14.527 21.113z" id="a"/></defs><g transform="rotate(-45 20.858 20.879)" fill="none" fill-rule="evenodd"><mask id="b" fill="#fff"><use xlink:href="#a"/></mask><path d="M30.856 43.898a22.544 22.544 0 0 1-8.07 1.484C10.305 45.382.188 35.265.188 22.785S10.306.19 22.785.19c2.844 0 5.564.525 8.07 1.484C22.362 4.92 16.33 13.149 16.33 22.785c0 9.637 6.032 17.864 14.527 21.113z" stroke="#FFF" stroke-width="8" mask="url(#b)"/></g></svg>