<svg width="48" height="48" viewBox="0 0 48 48" xmlns="http://www.w3.org/2000/svg"><title>echo</title><g fill-rule="nonzero" fill="none"><path d="M40.263 40.263c8.983-8.982 8.983-23.544 0-32.526-8.982-8.983-23.544-8.983-32.526 0-8.983 8.982-8.983 23.544 0 32.526 8.982 8.983 23.544 8.983 32.526 0zm-.525-.525c-8.692 8.692-22.784 8.692-31.476 0s-8.692-22.784 0-31.476 22.784-8.692 31.476 0 8.692 22.784 0 31.476z" stroke="#FFF" stroke-width="2"/><path d="M29.334 39.031c5.623-5.623 5.623-14.741 0-20.365-5.624-5.623-14.742-5.623-20.365 0-5.624 5.624-5.624 14.742 0 20.365 5.623 5.624 14.741 5.624 20.365 0zm1.94 1.94c-6.696 6.694-17.55 6.694-24.245 0-6.694-6.695-6.694-17.55 0-24.244 6.695-6.695 17.55-6.695 24.244 0 6.695 6.695 6.695 17.549 0 24.244z" fill="#FFF"/><path d="M19.636 39.031A7.543 7.543 0 1 0 8.97 28.364 7.543 7.543 0 0 0 19.636 39.03zm1.94 1.94c-4.017 4.016-10.53 4.016-14.547 0-4.016-4.017-4.016-10.53 0-14.547 4.017-4.016 10.53-4.016 14.547 0 4.016 4.017 4.016 10.53 0 14.547z" fill="#FFF"/></g></svg>