<svg width="41" height="32" viewBox="0 0 41 32" xmlns="http://www.w3.org/2000/svg"><title>forge</title><path d="M40.556 0H5.57a1.001 1.001 0 0 0-.936.759l-.856 3.067c-.08.356.081.598.34.775 1.372.42 8.718.598 7.588 4.683l-.243 1.13-2.986 11.172-.259 1.114c-1.114 4.101-5.037 4.263-6.668 4.682-.323.097-.597.436-.678.775l-.856 3.068c-.08.436.162.775.598.775h14.256c.436 0 .856-.34.937-.775l2.567-9.897c.107-.434.49-.743.936-.759h9.138c.42 0 .856-.355.937-.775l1.356-5.296c.097-.42-.162-.758-.597-.758H21.02c-.435 0-.678-.34-.597-.775l1.292-4.78c.1-.434.475-.75.92-.774h13.74a.999.999 0 0 0 .952-.76L40.992.84c.162-.5 0-.84-.436-.84z" fill="#FFF" fill-rule="nonzero"/></svg>