<svg width="41" height="42" viewBox="0 0 41 42" xmlns="http://www.w3.org/2000/svg"><title>homestead</title><path d="M32.919 21.568l-3.405-3.406v6.811l3.405 3.405v2.27l-3.405-3.405v6.811l3.405 3.405V42h2.27V14.757l-1.703-1.703-3.972-3.973v6.81l3.405 3.406v2.27zm-29.514 0L0 18.162v6.811l3.405 3.405v2.27L0 27.244v6.811l3.405 3.405V42h2.27V14.757l-1.702-1.703L0 9.081v6.81l3.405 3.406v2.27zm14.757 0l-3.405-3.406v6.811l3.405 3.405v2.27l-3.405-3.405v6.811l3.405 3.405V42h2.27V5.676L18.73 3.973 14.757 0v6.81l3.405 3.406v2.27l-3.405-3.405v6.81l3.405 3.406v2.27zm3.406 1.135l4.54-4.54v6.81l-4.54 4.54v-6.81zm0 9.08l4.54-4.54v6.811l-4.54 4.54v-6.81zm0-18.161l4.54-4.54v6.81l-4.54 4.54v-6.81zm0-9.081L26.108 0v6.81l-4.54 4.541v-6.81zM6.81 22.703l4.54-4.54v6.81l-4.54 4.54v-6.81zm0 9.08l4.54-4.54v6.811l-4.54 4.54v-6.81zm0-18.161l4.54-4.54v6.81l-4.54 4.54v-6.81zm29.513 9.08l4.54-4.54v6.811l-4.54 4.54v-6.81zm0 9.082l4.54-4.54v6.81l-4.54 4.54v-6.81zm0-18.162l4.54-4.54v6.81l-4.54 4.54v-6.81z" fill="#FFF" fill-rule="evenodd"/></svg>