<?xml version="1.0" encoding="UTF-8"?>
<svg width="496px" height="496px" viewBox="0 0 496 496" version="1.1" xmlns="http://www.w3.org/2000/svg" xmlns:xlink="http://www.w3.org/1999/xlink">
    <!-- Generator: Sketch 51.3 (57544) - http://www.bohemiancoding.com/sketch -->
    <title>Shape</title>
    <desc>Created with Sketch.</desc>
    <defs></defs>
    <g id="Page-1" stroke="none" stroke-width="1" fill="none" fill-rule="evenodd">
        <g id="globe-americas-regular" fill="#FFFFFF" fill-rule="nonzero">
            <path d="M248,0 C111,0 0,111 0,248 C0,385 111,496 248,496 C385,496 496,385 496,248 C496,111 385,0 248,0 Z M216,50.8 L216,62.1 C216,74 203.5,81.7 192.8,76.4 L168.8,64.4 C183.7,58 199.5,53.5 216,50.8 Z M248,420.6 L248,448 C137.7,448 48,358.3 48,248 C48,218.9 54.4,191.3 65.6,166.3 C75.5,181 90.8,203.7 100.2,217.4 C105.4,225 111.4,232 118.3,238.1 L119.1,238.8 C128.6,247.4 139.3,254.8 150.7,260.6 C164.7,267.6 185.1,278.8 199.5,286.7 C209.7,292.3 216,303 216,314.7 L216,346.7 C216,355.2 219.4,363.3 225.4,369.3 C240.4,384.4 249.7,408 248,420.6 Z M290.7,443.3 L308.1,396.4 C310.1,390.9 311.4,385.2 312.9,379.5 C314,375.5 316.1,371.8 319.1,368.8 L330.4,357.5 C339.2,348.8 344.1,336.9 344.1,324.5 C344.1,316.4 340.9,308.6 335.2,302.9 L321.5,289.2 C315.5,283.2 307.4,279.8 298.9,279.8 L232,279.8 C222.6,275.1 210.5,247.8 200,247.8 C189.5,247.8 179.1,245.3 169.7,240.6 L158.6,235.1 C154.6,233.1 152,228.9 152,224.4 C152,219.3 155.3,214.7 160.2,213.1 L191.4,202.7 C196.8,200.9 202.7,202.1 206.9,205.8 L216.2,213.9 C217.7,215.2 219.5,215.9 221.4,215.9 L227,215.9 C233,215.9 236.8,209.6 234.2,204.3 L218.6,173.1 C217,170 217.7,166.2 220.2,163.8 L230.1,154.2 C231.6,152.7 233.6,151.9 235.7,151.9 L244.7,151.9 C246.8,151.9 248.9,151.1 250.4,149.6 L258.4,141.6 C261.5,138.5 261.5,133.4 258.4,130.3 L253.7,125.6 C250.6,122.5 250.6,117.4 253.7,114.3 L264,104 L268.7,99.3 C274.9,93.1 274.9,82.9 268.7,76.7 L240.4,48.4 C242.9,48.3 245.4,48 248,48 C326.2,48 393.8,93.2 426.7,158.7 L413.7,165.2 C410,167.1 406.8,169.9 404.5,173.3 L384.9,202.7 C379.5,210.8 379.5,221.3 384.9,229.3 L402.9,256.3 C406.2,261.3 411.3,264.8 417,266.3 L446.2,273.6 C435.4,357.6 372.3,425.5 290.7,443.3 Z" id="Shape"></path>
        </g>
    </g>
</svg>