<?xml version="1.0" encoding="UTF-8" standalone="no"?>
<!DOCTYPE svg PUBLIC "-//W3C//DTD SVG 1.1//EN" "http://www.w3.org/Graphics/SVG/1.1/DTD/svg11.dtd">
<svg width="100%" height="100%" viewBox="0 0 37 30" version="1.1" xmlns="http://www.w3.org/2000/svg" xmlns:xlink="http://www.w3.org/1999/xlink" xml:space="preserve" xmlns:serif="http://www.serif.com/" style="fill-rule:evenodd;clip-rule:evenodd;stroke-linejoin:round;stroke-miterlimit:2;">
    <path d="M34.8,27.706C34.12,28.734 33.605,30 32.223,30C29.897,30 29.771,26.413 27.443,26.413C25.116,26.413 25.242,30 22.916,30C20.59,30 20.464,26.413 18.136,26.413C15.809,26.413 15.935,30 13.608,30C11.282,30 11.156,26.413 8.828,26.413C6.5,26.413 6.628,30 4.3,30C3.569,30 3.055,29.646 2.622,29.16C0.895,26.14 -0.01,22.719 0,19.24C0,8.613 8.208,0 18.333,0C28.46,0 36.667,8.614 36.667,19.24C36.667,22.277 35.996,25.15 34.801,27.706L34.8,27.706Z" style="fill:white;"/>
</svg>
