<svg width="48" height="44" viewBox="0 0 48 44" xmlns="http://www.w3.org/2000/svg"><title>mix</title><g fill="#FFF" fill-rule="evenodd"><path d="M38.505 15.453c.009-.212.014-.424.014-.638C38.519 6.633 31.886 0 23.704 0 15.522 0 8.889 6.633 8.889 14.815c0 .214.004.428.013.64 4.97-2.17 10.626-1.401 14.804 1.728 4.177-3.128 9.831-3.898 14.799-1.73z" opacity=".6"/><path d="M17.79 28.403c1.812.789 3.812 1.227 5.914 1.227 2.103 0 4.105-.439 5.917-1.23a14.75 14.75 0 0 0-1.974-6.768 14.767 14.767 0 0 0-3.94-4.45 14.767 14.767 0 0 0-3.942 4.45 14.75 14.75 0 0 0-1.974 6.77z"/><path d="M29.621 28.4c5.053-2.203 8.638-7.143 8.884-12.947-4.968-2.168-10.622-1.398-14.799 1.73a14.767 14.767 0 0 1 3.941 4.45 14.75 14.75 0 0 1 1.974 6.768z" opacity=".8"/><path d="M17.79 28.403C12.737 26.2 9.15 21.26 8.903 15.455c4.97-2.17 10.626-1.401 14.804 1.728a14.767 14.767 0 0 0-3.94 4.45 14.75 14.75 0 0 0-1.975 6.77z" opacity=".8"/><path d="M29.621 28.4c.203 4.777-1.92 9.506-5.915 12.493-3.994-2.987-6.117-7.715-5.915-12.49 1.811.789 3.81 1.227 5.913 1.227s4.105-.439 5.917-1.23z" opacity=".8"/><path d="M23.706 40.893c.469.35.963.677 1.482.977 7.085 4.09 16.146 1.663 20.237-5.423 4.091-7.086 1.663-16.146-5.423-20.237-.49-.284-.99-.536-1.497-.757-.246 5.804-3.831 10.744-8.884 12.948.203 4.776-1.92 9.505-5.915 12.492z" opacity=".6"/><path d="M23.706 40.893c-.468.35-.962.677-1.481.977-7.086 4.09-16.147 1.663-20.238-5.423C-2.103 29.36.324 20.3 7.41 16.21c.489-.283.987-.534 1.492-.755.247 5.805 3.834 10.745 8.889 12.948-.202 4.775 1.921 9.503 5.915 12.49z" opacity=".6"/></g></svg>