<svg width="39" height="40" viewBox="0 0 39 40" xmlns="http://www.w3.org/2000/svg"><title>nova</title><path d="M33.533 34.1A20.3 20.3 0 0 1 19.167 40c-6.25 0-11.833-2.8-15.55-7.2 8.071 6.61 19.825 6.078 27.266-1.233a12.617 12.617 0 0 0 0-18c-5.056-4.966-13.16-4.966-18.216 0a5.4 5.4 0 0 0 0 7.716 5.567 5.567 0 0 0 7.8 0 1.85 1.85 0 0 1 2.6 0 1.8 1.8 0 0 1 0 2.567 9.283 9.283 0 0 1-13 0 9 9 0 0 1 0-12.85c6.498-6.39 16.918-6.39 23.416 0a16.217 16.217 0 0 1 .05 23.1zm1.184-26.9C26.646.59 14.892 1.122 7.45 8.433a12.617 12.617 0 0 0 0 18c5.057 4.966 13.16 4.966 18.217 0a5.4 5.4 0 0 0 0-7.716 5.567 5.567 0 0 0-7.8 0c-.717.7-1.883.7-2.6 0a1.8 1.8 0 0 1 0-2.567 9.283 9.283 0 0 1 13 0 9 9 0 0 1 0 12.85c-6.498 6.389-16.919 6.389-23.417 0a16.217 16.217 0 0 1-.016-23.117A20.3 20.3 0 0 1 19.167 0C25.417 0 31 2.8 34.717 7.2z" fill="#FFF" fill-rule="evenodd"/></svg>