<svg viewBox="0 0 60 60" fill="none" xmlns="http://www.w3.org/2000/svg"><mask id="mask0_985_14" style="mask-type:alpha" maskUnits="userSpaceOnUse" x="-1151" y="-1150" width="2359" height="2359"><path d="M-78.695-477.254-571.12-390.56l86.694 492.427 6.173 35.058 86.694 492.427 492.427-86.695 35.058-6.173 492.427-86.694-86.695-492.427-6.173-35.058L448.79-570.12l-492.427 86.694-35.058 6.173Z" stroke="#000" stroke-width="1000"/></mask><g mask="url(#mask0_985_14)"><path d="M4.796 13.215.106 25.559c-1.112 3.086-1.112 6.419.246 9.382l5.432 12.097c1.357 2.963 3.826 5.308 6.789 6.42L25.04 58.27c3.086 1.111 6.419 1.111 9.381-.246l12.098-5.432c2.962-1.358 5.308-3.827 6.419-6.79l4.814-12.467c1.111-3.086 1.111-6.42-.247-9.382l-5.431-12.097c-1.358-2.963-3.827-5.308-6.79-6.42L32.818.748c-3.086-1.111-6.42-1.111-9.382.247L11.338 6.302C8.252 7.66 6.03 10.129 4.796 13.215Z" fill="#fff"/></g></svg>
