<svg height="60" version="1.2" viewBox="0 0 60 60" width="60" xmlns="http://www.w3.org/2000/svg"><path fill="white" opacity=".4" d="m51.7 29.9q0 0.6 0 1.3l-44 11.8c-4.1-6.3-5-14.2-2.5-21.3 2.6-7.1 8.4-12.6 15.7-14.7 7.2-2.2 15.1-0.8 21.1 3.7 6.1 4.5 9.7 11.6 9.7 19.2zm-28.7 23.5q-2.3-0.5-4.5-1.4-2.2-0.9-4.1-2.3-2-1.3-3.7-3l40.2-10.8c-0.7 2.5-1.7 5-3.2 7.2-1.4 2.2-3.2 4.1-5.3 5.7-2.1 1.6-4.4 2.9-6.9 3.7-2.5 0.9-5.1 1.3-7.8 1.3q-2.3 0-4.7-0.4z" fill-rule="evenodd"/><path fill="white" d="m3.8 44.8v-29.9l55.3 15-55.3 14.9z"/><path fill="#17542e" d="m6.8 17.2v25.4l-3 2.2v-5.6h-2.2v-3.7h2.2v-11.2h-2.2v-3.8h2.2v-5.6z"/></svg>
