<svg xmlns="http://www.w3.org/2000/svg" fill="none" viewBox="0 0 60 60"><path fill="#fff" fill-rule="evenodd" d="M28.102 12.656c.93.011 1.723.65 1.897 1.526l4.317 21.825 2.044-3.817a1.967 1.967 0 0 1 1.74-1.018h18.58c1.08 0 1.955.84 1.955 1.875 0 1.036-.876 1.875-1.956 1.875H39.294l-4.099 7.653c-.381.713-1.193 1.114-2.02 1-.826-.115-1.485-.72-1.641-1.507l-3.58-18.093-4.076 18.139c-.192.85-.97 1.464-1.877 1.48-.908.015-1.708-.57-1.931-1.415l-3.152-11.92-2.024 3.665a1.969 1.969 0 0 1-1.729.998H2.41c-1.08 0-1.956-.84-1.956-1.875 0-1.036.876-1.875 1.956-1.875h9.579l3.849-6.971c.378-.686 1.158-1.077 1.961-.985.803.093 1.464.65 1.663 1.401l2.35 8.888 4.355-19.369c.195-.872 1.005-1.49 1.936-1.48Z" clip-rule="evenodd"/></svg>
