<svg width="213" height="213" viewBox="0 0 213 213" fill="none" xmlns="http://www.w3.org/2000/svg">
<mask id="mask0_19_31" style="mask-type:luminance" maskUnits="userSpaceOnUse" x="0" y="0" width="213" height="213">
<path d="M106.5 213C165.318 213 213 165.318 213 106.5C213 47.6817 165.318 0 106.5 0C47.6817 0 0 47.6817 0 106.5C0 165.318 47.6817 213 106.5 213Z" fill="white"/>
</mask>
<g mask="url(#mask0_19_31)">
<path opacity="0.9" d="M144.773 53.9151C153.596 53.9151 160.748 46.7628 160.748 37.9401C160.748 29.1173 153.596 21.9651 144.773 21.9651C135.951 21.9651 128.798 29.1173 128.798 37.9401C128.798 46.7628 135.951 53.9151 144.773 53.9151Z" fill="white"/>
<path opacity="0.6" d="M144.774 73.2188C164.257 73.2188 180.052 57.4243 180.052 37.9407C180.052 18.4571 164.257 2.6626 144.774 2.6626C125.29 2.6626 109.495 18.4571 109.495 37.9407C109.495 57.4243 125.29 73.2188 144.774 73.2188Z" fill="white"/>
<path opacity="0.4" d="M144.773 92.5219C174.918 92.5219 199.355 68.085 199.355 37.9406C199.355 7.79623 174.918 -16.6406 144.773 -16.6406C114.629 -16.6406 90.1921 7.79623 90.1921 37.9406C90.1921 68.085 114.629 92.5219 144.773 92.5219Z" fill="white"/>
<path opacity="0.2" d="M144.773 111.825C185.579 111.825 218.658 78.7457 218.658 37.9405C218.658 -2.86468 185.579 -35.9438 144.773 -35.9438C103.968 -35.9438 70.889 -2.86468 70.889 37.9405C70.889 78.7457 103.968 111.825 144.773 111.825Z" fill="white"/>
<path opacity="0.9" d="M151.097 195.028C159.92 195.028 167.072 187.876 167.072 179.053C167.072 170.23 159.92 163.078 151.097 163.078C142.274 163.078 135.122 170.23 135.122 179.053C135.122 187.876 142.274 195.028 151.097 195.028Z" fill="white"/>
<path opacity="0.6" d="M151.097 214.331C170.58 214.331 186.375 198.537 186.375 179.053C186.375 159.569 170.58 143.775 151.097 143.775C131.613 143.775 115.819 159.569 115.819 179.053C115.819 198.537 131.613 214.331 151.097 214.331Z" fill="white"/>
<path opacity="0.4" d="M151.097 233.634C181.241 233.634 205.678 209.197 205.678 179.053C205.678 148.909 181.241 124.472 151.097 124.472C120.952 124.472 96.5156 148.909 96.5156 179.053C96.5156 209.197 120.952 233.634 151.097 233.634Z" fill="white"/>
<path opacity="0.2" d="M151.097 252.937C191.902 252.937 224.981 219.858 224.981 179.053C224.981 138.247 191.902 105.168 151.097 105.168C110.292 105.168 77.2125 138.247 77.2125 179.053C77.2125 219.858 110.292 252.937 151.097 252.937Z" fill="white"/>
<path opacity="0.8" d="M28.9547 108.497C37.7775 108.497 44.9297 101.345 44.9297 92.5219C44.9297 83.6991 37.7775 76.5469 28.9547 76.5469C20.132 76.5469 12.9797 83.6991 12.9797 92.5219C12.9797 101.345 20.132 108.497 28.9547 108.497Z" fill="white"/>
<path opacity="0.5" d="M28.9546 127.8C48.4382 127.8 64.2328 112.005 64.2328 92.5218C64.2328 73.0382 48.4382 57.2437 28.9546 57.2437C9.47107 57.2437 -6.32349 73.0382 -6.32349 92.5218C-6.32349 112.005 9.47107 127.8 28.9546 127.8Z" fill="white"/>
<path opacity="0.3" d="M28.9547 147.103C59.0991 147.103 83.5359 122.666 83.5359 92.5214C83.5359 62.377 59.0991 37.9402 28.9547 37.9402C-1.18973 37.9402 -25.6266 62.377 -25.6266 92.5214C-25.6266 122.666 -1.18973 147.103 28.9547 147.103Z" fill="white"/>
<path opacity="0.2" d="M28.9547 166.406C69.7599 166.406 102.839 133.327 102.839 92.5213C102.839 51.7161 69.7599 18.637 28.9547 18.637C-11.8505 18.637 -44.9297 51.7161 -44.9297 92.5213C-44.9297 133.327 -11.8505 166.406 28.9547 166.406Z" fill="white"/>
</g>
</svg>
