<svg width="59" height="48" viewBox="0 0 59 48" xmlns="http://www.w3.org/2000/svg"><title>laracasts</title><path d="M17.053 18.947h17.684a1.895 1.895 0 0 1 0 3.79H17.053a1.895 1.895 0 1 1 0-3.79zm-8.842 0h2.526a1.895 1.895 0 0 1 0 3.79H8.21a1.895 1.895 0 1 1 0-3.79zm2.526 6.316H28.42a1.895 1.895 0 1 1 0 3.79H10.737a1.895 1.895 0 0 1 0-3.79zm-8.842 0H4.42a1.895 1.895 0 0 1 0 3.79H1.895a1.895 1.895 0 0 1 0-3.79zm13.263 7.308h5.053v6.858L50.526 24 20.211 8.571v6.858h-5.053V0l41.599 21.586a2.5 2.5 0 0 1 1.348 2.219V24a2.82 2.82 0 0 1-1.521 2.504L15.158 48V32.571z" fill="#FFF" fill-rule="nonzero"/></svg>