<svg width="51" height="61" viewBox="0 0 51 61" xmlns="http://www.w3.org/2000/svg"><title>apple</title><path d="M49.48 47.611a32.62 32.62 0 0 1-3.226 5.8c-1.696 2.419-3.085 4.093-4.155 5.022-1.66 1.526-3.437 2.308-5.34 2.352-1.367 0-3.016-.389-4.934-1.178-1.925-.785-3.694-1.174-5.311-1.174-1.696 0-3.515.39-5.461 1.174-1.95.79-3.52 1.2-4.72 1.241-1.825.078-3.644-.726-5.46-2.415-1.16-1.01-2.61-2.744-4.347-5.2-1.864-2.622-3.396-5.662-4.596-9.129C.644 40.36 0 36.734 0 33.224c0-4.021.869-7.49 2.61-10.396 1.367-2.334 3.186-4.175 5.464-5.527 2.277-1.352 4.738-2.04 7.388-2.085 1.45 0 3.351.449 5.714 1.33 2.356.884 3.87 1.333 4.532 1.333.496 0 2.177-.524 5.026-1.57 2.695-.97 4.969-1.371 6.832-1.213 5.048.408 8.84 2.397 11.362 5.983-4.515 2.735-6.748 6.566-6.703 11.481.04 3.829 1.43 7.015 4.159 9.544a13.668 13.668 0 0 0 4.155 2.726 44.91 44.91 0 0 1-1.059 2.781zM37.903 2.054c0 3-1.097 5.802-3.282 8.395-2.637 3.083-5.826 4.865-9.285 4.583a9.341 9.341 0 0 1-.07-1.137c0-2.88 1.254-5.963 3.481-8.484 1.112-1.276 2.526-2.337 4.24-3.184C34.7 1.393 36.318.932 37.84.853c.044.401.063.803.063 1.2z" fill="#D7D7DC" fill-rule="nonzero"/></svg>