<svg width="155" height="31" viewBox="0 0 155 31" xmlns="http://www.w3.org/2000/svg"><title>discovery</title><g fill="none" fill-rule="evenodd"><path d="M147.567 30.57v-1.605h-.625v-.216h1.507v.216h-.63v1.604h-.252zm1.045 0v-1.821h.372l.442 1.288.088.27c.02-.068.056-.165.1-.291l.446-1.267h.333v1.82h-.237v-1.527l-.544 1.527h-.224l-.54-1.553v1.553h-.236zM12.986 4.676V.911h7.821c6.374 0 12.09 3.475 12.09 11.263 0 7.48-7.071 10.733-11.08 10.733H14.55c1.782-1.124 2.816-2.326 3.256-3.551h4.012c3.583 0 7.032-2.726 7.032-7.182 0-4.728-2.944-7.723-7.032-7.723h-4.877V7.7c-.823-1.26-2.707-2.689-3.956-3.024zm22.081 1.705h3.896v16.526h-3.896V6.38zM54.28 8.053l-1.498 2.635c-1.602-1.356-6.923-2.635-6.923.156 0 3.086 8.835 1.344 8.835 7.44 0 5.379-7.672 6.56-13.233 2.532l1.738-2.533c1.576 1.577 7.981 3.617 7.981.233 0-3.281-8.905-1.44-8.905-7.44 0-5.167 7.084-6.418 12.005-3.023zm14.958 3.423c-2.61-3.39-9.016-2.79-9.016 3.333 0 5.967 6.949 6.472 9.144 3.198.49.49 1.805 1.772 2.3 2.267-5.153 6.123-15.267 2.635-15.267-5.463 0-8.428 10.114-11.43 15.162-5.89l-2.323 2.555zM81.45 6.111c4.89 0 8.853 3.86 8.853 8.626 0 4.763-3.962 8.626-8.853 8.626-4.889 0-8.854-3.863-8.854-8.626 0-4.765 3.963-8.626 8.854-8.626zm.123 13.91c2.76 0 4.998-2.177 4.998-5.31 0-2.809-2.237-5.309-4.998-5.309-2.76 0-5.12 1.958-5.12 5.31 0 3.132 2.188 5.309 5.12 5.309zM90.44 6.38h4.107l4.437 12.198 4.474-12.198h3.99l-6.741 16.758h-3.449L90.44 6.381zm17.358 8.33c0-11.204 16.953-12.055 16.002 1.33h-12.226c1.086 5.82 7.559 4.773 9.282 2.254l2.253 1.977c-4.093 5.684-15.311 3.358-15.311-5.56zm3.779-1.53h8.504c-.614-5.335-7.6-5.32-8.504 0zm15.086-6.8h3.863v2.81s1.834-2.32 5.058-2.622l1.286 3.154c-1.66 0-6.342 1.753-6.342 6.442v6.742h-3.863V6.38h-.002zm11.444 0h4.042l3.94 12.175 4.248-12.175h3.914s-6.8 17.398-8.086 20.623c-1.007 2.542-2.437 3.626-5.686 3.626h-2.374V27.48h2.867c1.73 0 3.23-4.572 3.23-4.572l-6.095-16.528z" fill="#D7D7DC"/><path d="M17.377 14.228a8.646 8.646 0 0 1-8.647 8.646 8.646 8.646 0 1 1 0-17.293 8.645 8.645 0 0 1 8.647 8.647z" fill="#D7D7DC"/><path d="M17.374 14.025v-.007l-.002-.065-.005-.016-.007-.081-.004-.014-.021-.133c-.112.12-.005.258-.028.384-.063-.151-.028-.333-.154-.463-.009 0-.02 0-.032.002-.105-.225-.105-.225-.114-.272.123-.142-.014-.281-.005-.423l-.062-.019c-.054.007-.056.007-.087-.016-.03.007-.055.026-.086.03l-.025-.023c-.24.014-.251.056-.298.193-.27-.09-.27-.09-.3-.146-.032.304-.086.34-.156.388-.204.137-.041.346-.097.512 0 0-.05.109-.124.19-.076.003-.093.005-.141.135-.003.007-.3.707-.391.74a.638.638 0 0 0-.035.23c.014.01.035.02.051.032-.037.359-.107.577-.253.78.042.048.042.062.007.158-.07.188.018.283.104.376-.009.019-.009.019.03.5.014.003.035.005.05.007.083.121-.036.398.17.398.088 0 .16-.074.253-.065.065.007.076.028.114.1.027-.01.027-.01.207-.119l.025.017c.007-.007.019-.014.026-.021.004.002.004.002.156.002.076.093-.021.18-.012.27.025.004.025.004.125-.04.073.137-.237.593-.272.644-.076.11-.086.145-.111.221.002 0 0 .005 0 .005a.99.99 0 0 1-.121.365c-.368.623-.368.623-.407.677-.233.3-.523.546-.768.835-.47.553-1.232 1.128-1.455 1.263a.546.546 0 0 0-.135.097c.04-.002.072-.02.109-.028-.005.01-.016.019-.023.026l.14-.06c.297-.168.51-.291.939-.63l.17-.14c.65-.596.65-.596.948-.94.547-.679.556-.693.796-1.074l.114-.186c.16-.298.37-.7.509-1.007.321-.845.321-.845.435-1.293.17-.821.212-1.052.256-2.033l-.003-.263zm-.044-.644c.003.012.005.014.005.014v-.01a.22.22 0 0 0-.019-.071c-.002-.003-.002-.003-.002 0 0 .014.002.025.005.04.007.006.009.018.011.027zm-.074-.607c0-.005-.003-.01-.003-.016l-.002-.016-.007-.042c0-.005 0-.007-.002-.01-.04-.218-.049-.253-.058-.267l.09.463a2.233 2.233 0 0 0-.018-.112zm-.142.035c0 .002-.002.002-.002.005-.021.011-.05-.019-.068.007.014.032.033.072.049.111.016.04.033.08.049.112 0-.014.002-.028-.002-.068-.007-.055-.021-.111-.026-.167zm-.221-.244c.005-.002.005-.012.005-.012s-.01-.086-.024-.172c-.018-.093-.034-.144-.048-.144-.012.002-.019.03-.019.03.002.023.012.044.014.065l.019.137c.011.08.025.107.037.128a.102.102 0 0 1 0-.04c.007.003.009.01.016.008zm-.128-.612l-.014.033c.014.044.016.088.03.132.01.028.017.04.026.047-.012-.049-.01-.098-.019-.147a.167.167 0 0 0-.023-.065zm-.184.447c.003.016.003.04.003.056l.028.007v-.017c-.003-.014-.007-.02-.007-.023-.005-.012-.017-.014-.024-.023zm-.441-2.365c-.01-.019-.024-.04-.035-.059l-.084-.137-.012-.004c.014.023.026.046.038.07l-.03-.026.039.081.01.019c.008.016.015.023.032.035-.005 0-.01-.003-.014-.005.002.007.007.014.009.02l.023.008a.113.113 0 0 1-.007-.016c.014.009.021.009.03.014zm-.087-.384c.012.035.226.402.228.402.019.033.026.07.04.103l-.026-.033.01.026-.045-.073c-.004.045.038.089 0 .133-.011-.012-.016-.023-.02-.033l-.014-.004-.04-.072.002.07c-.004.002-.009.006-.011.009-.065-.063-.17-.233-.172-.233l-.026-.049c.005-.011.002-.025-.014-.067-.014-.035-.014-.044-.01-.049l.01.002c-.07-.055-.093-.146-.144-.216 0 0-.002.002-.002.005-.003.011 0 .018.011.058.014.046.012.056.007.063a.756.756 0 0 1 .044.04l.01.032c-.005 0-.005 0-.024-.021l.08.163c.013.011.02.02.034.037.054.079.086.17.147.244a.066.066 0 0 0-.01.03H16.1c-.005-.007-.012-.014-.014-.02-.014.034-.035.083-.049.12.016.045.063.165.063.165a.062.062 0 0 1-.012.014.043.043 0 0 1-.016-.004c.007.02.016.049.021.07l-.014.02a.181.181 0 0 0-.051.007l.04.091c.016.051.016.051.002.077l-.04.014c.014.03.014.03.019.056l-.014.011c-.021-.01-.021-.01-.084-.049a.278.278 0 0 1 .019.038c.018.058.018.062.014.09-.051.019-.091-.042-.144-.02a.765.765 0 0 0 .03.12c.086-.04.107.082.165.112.028.112.102.2.153.3-.018.123.07.237.042.36-.088-.044-.088-.044-.39-.127-.003.037-.003.037-.066.048.077.286.077.286.086.342.021.142-.044.289.033.426a.925.925 0 0 1 .042.22l.125.033c.063.04.02.135.091.17.075-.081.075-.081.114-.067.093.034.102.037.119.002.004-.012.004-.028.007-.04.009-.081.058-.15.065-.234.007-.094-.051-.18-.03-.275.016-.081.088-.132.118-.205-.02-.044-.088-.197-.018-.29.097.081.097.081.111.116 0-.102.051-.193.054-.195.032.007.074.018.272.55l.011-.01c.04.034.042.036.159.557l.014.065c-.003-.153-.045-.302-.054-.455.01.011.01.011.042.109-.016-.116-.114-.207-.112-.33-.002-.005-.246-.44-.253-.656l.02.007c.02.044.022.098.05.14l-.007-.087c.13.256.309.605.453 1.489.005.011.005.014.007.014-.002-.03-.01-.06-.007-.093-.007-.035-.007-.035-.01-.072 0-.019-.004-.04-.006-.06-.019-.066-.075-.364-.084-.4.005.013.01.027.014.043-.005-.032-.01-.074-.016-.107l.004.007a5.714 5.714 0 0 0-.228-.874c-.313-.847-.313-.847-.518-1.249l-.105-.198-.007-.011c-.056-.096-.12-.205-.188-.317a3.72 3.72 0 0 0-.007-.011l-.082-.114zm-.05.274a.059.059 0 0 0 .016.026c.018.02.034.044.037.035a.053.053 0 0 0-.003-.01c-.004-.007-.006-.013-.011-.018l-.007-.014c-.037-.04-.037-.04-.042-.04 0 0-.002 0 .01.021zm.006-.297l-.02-.035c.016.04.06.111.097.17-.044-.08-.058-.103-.077-.135zm-.037-.114l-.019-.028c-.002-.005-.002-.007-.006-.01.002.007.002.007.065.107l-.04-.07zm.01.007a.018.018 0 0 1-.005-.01c-.035-.058-.072-.111-.105-.162a1.389 1.389 0 0 0 .114.181c-.002-.005-.005-.007-.005-.01zm-.484.481l-.012-.023s-.007-.005-.014-.007c-.005 0-.025 0 .005.046.009.003.016.003.025.005 0-.002.003-.007-.004-.021zm.228.602l.062.035c.005-.014-.002-.037-.016-.081.04.018.088.01.126.04v-.035c.014.009.035.009.046.025.007-.01.023-.01.028-.023.005-.01.002-.016-.002-.035-.028-.012-.047-.019-.051-.042-.01-.04.018-.074.009-.112 0-.002-.033-.111-.07-.109-.032 0-.046-.02-.046-.023-.024-.035-.035-.077-.06-.112-.038-.046-.045-.067-.047-.107-.056-.023-.084-.065-.156-.179-.051-.077-.09-.132-.137-.128-.003-.011-.005-.032.02-.023-.004-.007-.011-.014-.016-.02-.002-.052-.002-.052-.072-.203a1.78 1.78 0 0 1-.1-.016c-.056-.063-.053-.073-.03-.08.026-.009.03-.02-.012-.083l-.049-.007c-.02-.012-.023-.012-.032-.012-.007.01-.005.019.019.07.03.063.032.081.023.098-.021-.005-.021-.005-.033-.017 0 .007 0 .019-.002.026l.084.086v.03l.06.07c.007.019.007.04.014.058a.09.09 0 0 0 .026.035c.004-.007.011-.019.018-.028a.27.27 0 0 1 .063.116c.007.021.012.045.019.065.016.003.02.003.03.017-.007-.058.051-.021.053-.021a.083.083 0 0 1 .01.02.13.13 0 0 0 .028.075c.014.023.04.037.058.058.053.075.007.124-.019.154.019.016.04.04.058.056.023.05.021.062-.002.072-.021.009-.021.023.005.076l.018-.016c.021.03.026.033.06.047.033.011.042.032.061.072-.06-.03-.072.058-.086.15.014.017.019.017.033.02-.019-.04-.026-.077.007-.059zm-.375-.237c.06.065.075.042.089-.018.011-.05.023-.08.076-.04-.009-.065-.016-.08-.081-.233a.46.46 0 0 1-.035-.104c0-.005 0-.026-.005-.047-.009-.03-.088-.12-.118-.1l-.014-.02c-.014-.02-.019-.022-.021-.022-.005 0-.007.005-.007.017-.002.03-.005.05-.037.014.011.037.042.065.062.097-.018.026-.037.026-.086.005.056.163.056.163.103.202.009.128.009.128-.003.147.024.03.056.072.077.102zm-.067-1.77l.072.091-.007-.007c.27.337.27.34.437.558-.005-.01-.012-.023-.019-.032.007.009.017.02.024.032l-.05-.074c-.12-.163-.322-.437-.634-.777a9.986 9.986 0 0 1 .177.21zm-.224.691c-.016.014-.023.021-.02.042.002.019.016.044.016.044.002.002.014.002.014.002.011 0 .016 0 .03.021.014-.011.01-.041-.005-.065a.106.106 0 0 0-.035-.044c0-.002 0 0 0 0zm-.816-1.693l.077.068.005.002c-.014-.012-.028-.021-.04-.035a.196.196 0 0 0-.042-.035zm-.072-.084l-.012-.007c.028.021.045.035.066.054l.02.02-.02-.013c.018.016.04.035.055.051l-.067-.053c.028.032.04.039.081.072l.105.102-.04-.033-.013-.009c-.007-.005-.017-.012-.026-.016.007.01.007.01.19.174.029.035.073.054.091.098.035.018.047.035.05.042h-.005c.083.181.258.293.362.46.035.049.068.086.098.126l-.047-.082.02.019a.7.7 0 0 1 .078.119l-.1-.084c.035.049.054.114.102.156l.007.011c-.011 0-.011 0-.04-.014l.04.04c.021.019.021.019.033.042-.016-.007-.016-.007-.035-.028.002.005.005.01.005.014a.048.048 0 0 1-.026 0c.026.06.075.104.105.16h.014c.004-.007.011-.014.018-.02.019.006.052.025.059.06-.017.007-.017.007-.06-.01.046.082.132.133.171.221l-.016-.002c.01.014.018.026.025.04 0-.003.003-.005.005-.007.033.035.06.074.09.111-.006.005-.013.007-.02.012l.12.132-.015-.041.037.046v-.01c.009-.01.009-.01-.028-.13.004 0 .011.003.014.005l-.003-.014c.103.096.368.5.38.524.041.09.058.104.065.111.002-.004.007-.01.007-.014-.193-.64-1.16-1.707-1.17-1.716.011.01.03.023.051.044-.04-.042-.079-.084-.123-.128a19.624 19.624 0 0 0-.675-.61c-.007-.006-.014-.01-.02-.018l.006.007a.016.016 0 0 0-.009-.014zm-.077-.06c-.014-.012-.025-.023-.04-.033a2.648 2.648 0 0 1 .04.033zm.077.058l-.044-.037c-.04-.03-.063-.049-.095-.075l.144.117c0-.003-.003-.003-.005-.005zm-.986.247c.035.016.042.007.051-.01 0-.002.005-.01.01-.011.009-.003.055.011.058.041 0 .01 0 .01.048.04.01.02.01.02-.044.019-.004.007-.016.007-.016.018 0 .01.007.014.021.033.016-.047.144.058.146.058.012.014-.013.02-.016.035.026.03.047.053.07.058.019.002.033-.012.051-.01.047.005.07.056.121.052.033-.003.044-.005.051-.065.007-.065.007-.065.033-.08-.033-.044-.037-.067-.017-.074-.004-.007-.011-.018-.018-.025-.04-.054-.082-.077-.121-.103a.397.397 0 0 1-.144-.128.757.757 0 0 0-.007.033l-.058-.047.016.028c.002.026.005.028-.019.038-.04.013-.04.018-.04.048l-.071-.048c.023.05.081.076.1.132-.026.047-.098-.058-.098-.058-.002-.005-.002-.012-.002-.019-.014-.009-.021-.011-.044-.032-.045-.037-.066-.056-.084-.051-.012.044.065.079.023.128zm-.826-.754c.005-.01.012-.01.05-.005.018.003.039.005.034-.009-.002-.01-.044-.042-.072-.042-.028.007-.014.05-.012.056zm-.162-.695c.004.004.011.007.067.03.007.002.014.007.021.01l-.026-.01c.1.053.207.095.31.146a5.51 5.51 0 0 0-.372-.176c-.003-.003 0 0 0 0zm-.105 4.44l-.007-.003-.044-.016c0-.01 0-.01.028-.054l-.09.051c-.045-.086.05-.125.069-.193a.446.446 0 0 0-.042.051c-.067-.004-.072-.004-.08-.041 0-.01 0-.024.006-.033.014-.026.037-.042.05-.065-.088-.016-.171.028-.257.01-.026-.043-.024-.068.007-.087-.03-.018-.05-.011-.073.021-.016.023-.027.03-.053.005.03-.11.042-.147.1-.198-.021-.02-.026-.028-.021-.046.005-.026.033-.033.037-.059l-.032.01c-.04.018-.086.04-.124.128a.161.161 0 0 0-.011.03l-.01.032c-.025.089-.009.184-.044.27-.028.07-.088.126-.095.207.1-.056.253.065.323-.077.023.024.023.024.021.035.028.007.068.017.098.021l-.08.121c.043-.014.05-.016.08-.051.032-.04.046-.088.074-.133.05.112.054.147.044.18l.028-.038.04.077c.079.007.014-.112.053-.158.003.005.003.002.005.002zm.028-4.473c.012.005.023.01.037.014a3.819 3.819 0 0 0-.132-.056c.041.021.086.04.13.06-.01-.006-.023-.01-.035-.018zm-.56-.216l.079.028h.004l.258.097.03.014.098.04a3.813 3.813 0 0 0-.172-.072c.005 0 .007.002.01.004l.006.003h.003c.007.002.014.007.02.01l.015.004c.004 0 .007.002.009.004l.02.007c.017.007.033.012.047.019l-.046-.019-.077-.03c-.032-.011-.065-.025-.098-.037l-.016-.007a.16.16 0 0 1-.018-.007c-.005-.002-.012-.002-.014-.007-.003 0-.005 0-.007-.002l-.012-.005c-.005-.002-.007-.005-.012-.005-.007-.002-.016-.004-.023-.009l-.005-.002c-.002 0-.002 0-.004-.003a.018.018 0 0 1-.012-.004h-.002a.04.04 0 0 0-.012-.005h-.004-.003l-.004-.002c-.005 0-.007-.003-.01-.003-.016-.004-.03-.011-.044-.016h.002l-.03-.011c.005.002.01.004.014.004a.16.16 0 0 1-.018-.007l-.007-.002h-.005-.002c.014.01.028.016.041.02zm-.259 4.998c.01-.005.024-.007.045 0l.002.002c-.028-.023-.065-.054-.093-.08l.014-.013c.002-.028.002-.028-.047-.077l-.049.177c.019 0 .035 0 .054.002.019.014.02.021.016.042.051-.049.051-.049.058-.053zm-.128-4.003a.302.302 0 0 1-.076-.035l.002.075c.081.063.116.072.156.037 0-.007 0-.019-.005-.03-.01-.026-.044-.037-.077-.047zm.086 9.521c-.044 0-.058.037-.065.093V16.676c.026.005.058.003.063-.034a.1.1 0 0 0 0-.038c-.002-.018 0-.025.002-.03zm-.42-5.607c.04.023.076.051.116.07.025.014.046.02.067.026.028.004.063 0 .077-.052.002-.004.002-.014.005-.018-.072.004-.205 0-.268-.077 0 .016.003.033.003.051zm.225-.435h.007c-.005-.004-.01-.011-.016-.014-.033-.055-.075-.074-.175-.079h-.04c.045.058.1.1.224.093zm-.5 5.063c-.035.002-.053.019-.067.058l.07.003a.308.308 0 0 0 .132-.012l.002-.04c-.046.017-.09-.009-.137-.009zm2.556 3.588c.007.012.01.033.007.047l.467-.516c.1-.165.11-.303.114-.384-.018.002-.018.002-.288-.23a.163.163 0 0 0-.093-.035c-.042 0-.081.018-.123.018h-.007c-.051-.004-.098-.03-.151-.032a.104.104 0 0 0-.063.018.246.246 0 0 0-.075.08c-.004-.038-.004-.038.003-.073-.135-.016-.133-.018.004-.011.014-.054.019-.068.017-.102-.077-.014-.14-.066-.214-.084-.021-.005-.047 0-.068-.007-.014-.005-.023-.007-.063-.035-.032-.021-.048-.026-.065-.026h-.011c-.003 0-.005 0-.007.003-.033.007-.07-.003-.103.018-.079.054-.135.133-.207.193l-.04.026v-.023c-.064-.007-.062-.007.003-.005.084-.135.216-.233.282-.381l.011-.03c-.028-.029-.067-.068-.098-.096-.011-.065.021-.128.005-.193 0-.005-.011-.033-.063-.023-.028-.154-.19-.112-.276-.18l-.01.003a.576.576 0 0 1-.067.014c-.21.023-.312-.023-.386-.056l-.003-.072c-.074-.12-.148-.19-.306-.181.004-.01.013-.021.018-.03-.063-.07-.088-.091-.24-.124a.388.388 0 0 0 .02-.046c.013-.003.032-.005.046-.007-.242-.103-.582.309-.728 0-.126 0-.126 0-.207-.119a.14.14 0 0 0 .007.093c-.042.051-.112.049-.16.088.027.193.027.193.034.205-.056.054-.07.054-.12.058l-.033-.035c.049-.244.049-.244.04-.286.036-.032.083-.058.113-.1a.223.223 0 0 0-.084-.028c-.137.138-.33.189-.476.31.032.167-.189.218-.172.376-.289-.216-.289-.216-.352-.176.017.025.04.056.061.074-.051-.014-.098-.035-.147-.053l-.007.046-.062.033a.315.315 0 0 1-.047-.005H8.72c-.363 0-.35-.223-.319-.816-.107-.054-.226-.026-.337-.044-.03.004-.03.016-.03.03-.1-.003-.196.084-.298.01.032-.303.032-.303.053-.333l.014.014.021-.135c-.116-.142.112-.25.051-.386-.114.05-.246.027-.358.09-.19.11-.044.382-.232.491-.037-.042-.082-.093-.228-.005-.451.275-.651-.83-.651-.842-.045-1.041.795-.941.802-.941.07.009.088.044.119.1.172-.07.172-.07.22-.05-.006-.02-.006-.02-.148-.167l.023-.025a.325.325 0 0 0 .04.02l.095-.039c.165.042.351-.142.507.04l.193-.065c.188.214.188.214.137.327.016-.004.033-.011.049-.016.086.144.1.323.211.456a.241.241 0 0 1 .082-.04c.077-.358-.263-.665-.133-1.03.021-.06.717-.597.724-.6l-.007-.046-.045-.017c.01-.009.021-.023.028-.032.026.007.06.007.086.002a3.826 3.826 0 0 1-.081-.125l.056-.04.025-.037c-.02-.068-.083-.107-.123-.16a.216.216 0 0 1 .047-.089l.067.086c.105-.11.08-.249.063-.33.025.01.065.018.093.018.074-.086.084-.197.128-.297.011.002.025.01.037.011.147-.067.305-.107.442-.195-.347-.47.64-.758.651-.758.03 0 .067.028.093.044-.274.235-.274.235-.179.323.177-.179.177-.179.467-.34-.444-.143-.493-.195-.374-.395-.142.035-.142.035-.188-.013.009-.01.023-.021.032-.03h.01l.039.018c.067-.03.074-.033.112-.1-.138-.207-.484.084-.738.298l-.02-.014.248-.319c.17-.005.142-.288.333-.246.158.032.679-.054.681-.056.026-.007.051-.028.075-.042 0-.19.335-.123.283-.319-.041-.163-.183-.256-.262-.395-.063.005-.11-.042-.168-.051a57.25 57.25 0 0 0-.653-.024l.649.021c-.068-.044-.089-.065-.093-.114-.068.05-.11-.046-.168-.065.021-.02 0-.044.005-.065.014-.002.014-.002.032 0 .03-.049.03-.049-.086-.137a.295.295 0 0 1 .026-.03c.014-.003.014-.003.03.011a.254.254 0 0 0-.01-.055 1.194 1.194 0 0 1-.297-.482h-.025c.011.033.025.075 0 .126-.012.02-.03.037-.038.06-.011.042.014.09-.016.13-.02.028-.02.028-.186.13-.07-.039-.084-.134-.16-.164-.014-.059-.045-.112-.056-.173-.01-.05.03-.102 0-.153-.04-.067-.119-.02-.17-.058.005-.016.007-.037.01-.054-.078-.037-.122-.111-.19-.158a.04.04 0 0 0-.004.012c-.011.02-.02.028-.042.032-.035.007-.07-.009-.104-.004-.038-.05-.219-.084-.251.007 0 .004-.003.007-.005.011-.002.024.005.047.028.098.035.074.014.088-.054.13l.063.044c-.04.063.063.098.03.159-.12-.021-.079.165-.176.193.002.011.002.011.118.107.01.102.075.193.075.3 0 .037 0 .055-.075.12-.1.077-.144.098-.358.189.033.035.074.084.105.119-.065.176.032.362-.042.537a.168.168 0 0 1-.04-.093l-.042-.017c.003.021.003.038.003.054-.005.014-.007.032-.01.046-.086 0-.093-.002-.125-.114-.102-.037-.08-.17-.165-.218.079-.107.028-.249.086-.36l-.103-.038c-.139.08-.17.051-.339-.09-.381-.02-.39-.024-.033-.024a.202.202 0 0 0-.086-.03c-.025-.07-.032-.088-.093-.114l-.244-.074c-.023-.005-.053.009-.067.016-.047.023-.063.025-.093-.002.1-.091.007-.21.04-.307-.057-.005-.057-.005-.064-.012l-.02.06c-.091.112-.259.147-.3.307-.082.026-.138-.046-.212-.055-.044.065-.107.114-.16.17-.015-.022-.04-.033-.045-.063h-.032c-.047.02-.06.044-.086.111-.04.105-.07.112-.142.084a.424.424 0 0 0 .035-.121c.055-.053.155-.044.186-.135.007 0 .007 0 .237-.158l.014.037c.084.012.095.014.158.054.058-.03.079-.105.146-.126.31-.186.107-.723.556-.816.044-.086.163-.077.21-.163-.086-.142-.286-.049-.375-.184.182-.125.298.103.458.098a.738.738 0 0 0 .033-.093l.04-.021c.055.067.055.067.3-.126-.124-.007-.191-.111-.287-.165.003-.004.007-.011.012-.014.12.005.256.14.365.026l.014-.016a.281.281 0 0 0-.012-.042l.026-.035c.107.016.107.016.154.019a.209.209 0 0 0-.03-.098.315.315 0 0 0 .046-.005c.051.086.051.086.074.11.035-.028.08-.068.114-.098l.04-.016c.004-.02.004-.02-.056-.226.102-.014.102-.014.116-.023-.01-.019-.018-.042-.028-.06l.047-.033c-.084-.03-.15-.093-.23-.128-.04.02-.059.035-.04.118a.295.295 0 0 0-.03.026v.035c-.005.002-.005.002-.168.232l-.011-.009-.056.035c-.08-.112.07-.256-.054-.36-.007.009-.016.02-.023.032l.007.042c-.032.03-.07.053-.098.09l.017-.18a.445.445 0 0 0-.075-.038c-.002-.033-.004-.072.072-.088.012-.103-.067-.321-.067-.321a.187.187 0 0 0-.074.044l.027.03c-.009.01-.023.021-.032.033l-.047-.021a.479.479 0 0 0-.123.244.991.991 0 0 0 .049.051c.093.028.093.028.116.054a.173.173 0 0 1-.035.02c-.004-.006-.007-.016-.011-.023-.024.01-.047.04-.058.06.011.003.025.01.037.012l.014.038c-.033.05-.033.05-.368.025-.023.054-.023.054.026.121l-.028.028c-.144-.123-.351-.007-.495-.133-.005-.111-.005-.111-.014-.127 0 0-.16.02-.203.05.005.026.005.064.007.091-.011.007-.025.017-.037.021h-.007l-.084.182c-.032.018-.04.044-.046.07h-.014c-.028-.091.049-.187-.016-.273a.623.623 0 0 1-.43-.004c.018-.017.044-.04.065-.056.153-.058.153-.058.17-.074a.396.396 0 0 0-.024-.075.174.174 0 0 0-.074.023c-.052-.046-.114-.079-.16-.132l.015-.077c-.016-.007-.016-.007-.209.065a.285.285 0 0 1-.004-.044c.039-.02.065-.058.104-.081-.011.002-.011.002-.19.097.013-.1.1-.156.146-.235-.04.033-.093.072-.133.105-.014.002-.03.007-.044.01-.002-.012-.007-.024-.011-.036l-.007-.016c-.107.051-.238.037-.335.112a.23.23 0 0 0 .004-.042c-.018.007-.044.019-.065.026-.007 0-.007 0-.181.102-.01-.007-.021-.016-.033-.021.033-.074.007-.154.019-.23-.072-.024-.072-.024-.086-.075-.012-.004-.023-.011-.035-.018l.063-.054a.289.289 0 0 0-.084.026c.035-.063.035-.063.107-.1l-.04-.01c-.004-.007.021-.023.047-.04L5.7 6.38v-.021l.123-.044c.007-.01.019-.021.026-.03h-.005c-.135.062-.281.09-.414.162.003-.002.007-.007.007-.01.01-.004.023-.013.033-.018-.047.007-.703.135-1.147.665v.04c-.016.01-.044.019-.063.014a.606.606 0 0 1-.072.063c.01-.012.019-.028.028-.04l-.056.035a.285.285 0 0 1-.044.005c.003-.012.007-.028.007-.04.024-.011.056-.03.08-.042l-.038-.011-.028.009-.014.019c-.118.079-.242.148-.356.237l.021-.03-.158.14a.304.304 0 0 0-.025.027l.044.002.014.038c.058-.028.11-.066.165-.096a.149.149 0 0 1-.054.06l-.02.01-.12.114c-.062.058-.13.119-.15.128-.01-.007-.026-.014-.035-.019a.546.546 0 0 0-.086.056c-.012-.005-.023-.012-.035-.016l-.575.516h.042a.158.158 0 0 1-.048.067.304.304 0 0 1-.028-.025c-.047.046-.047.046-.145.195l-.027.035c.058-.014.072-.016.158-.11-.128.178-.128.178-.296.361a.12.12 0 0 1 .08.017.318.318 0 0 0-.005.044c.016-.021.044-.051.06-.072.16-.005.226-.177.368-.217-.08.221-.333.245-.46.412-.152.198-.37.323-.522.52-.011-.001-.028-.001-.04-.004-.109.096-.195.205-.195.207.05-.023.05-.023.126-.109.16.002 1.258-1.093 1.27-1.105.035-.016.042-.025.046-.035.147-.12.165-.134.249-.193l.023.033a.143.143 0 0 1-.049.072l-.037.005c-.172.032-.179.246-.33.3-.014.016-.023.032-.035.046.286-.11.482-.286.589-.381a.36.36 0 0 1-.04.079c.007.02.028.049.046.06a.224.224 0 0 1-.039.086l.126-.004c.013.02.037.046.055.065.026-.005.058-.01.082-.019-.012.051-.012.051-.075.091l.003.01c.009.009.023.02.032.03a.23.23 0 0 1 .04-.005c-.021.035-.051.081-.072.118.053.205-.084.366-.126.55.06-.07.086-.163.137-.238.003.014.003.03.005.044l.056-.049c.046-.055.053-.065.067-.132-.037.044-.086.105-.123.146.019-.076.065-.144.06-.228a.982.982 0 0 1 .052-.032.205.205 0 0 1 .004.04c.044-.073.105-.166.151-.238l-.267.786c-.002.024.002.024.007.024l.067-.047c.007.012-.09.202-.09.205l.042.016c-.052.07-.045.163-.098.23.01.01.02.026.028.035l.088-.074.007.102c-.014.002-.032.007-.046.01-.042.185-.042.185-.066.197l.04.016c.042-.02.081-.049.126-.065a.178.178 0 0 0-.026.09c-.01 0-.02 0-.033.003-.09.04-.09.04-.095.156l-.056.056c.003.018.007.04.012.058.053.016.107.016.16.032-.011.007-.028.02-.04.026.01.012.043.012.075.01-.102.218.18.46-.035.674.033-.163.035-.177-.083-.219l-.052.033c-.004.432-.246.804-.309 1.22l.044.863c.005-.004.01-.011.014-.016.024-.014.054-.032.08-.044l.03.04c-.033.032-.08.074-.112.107l.063.053c-.06.188.093.33.104.505.017 0 .017 0 .24.083l.03.005.089.098c-.056.367.302.544.388.846a.245.245 0 0 1-.084.07c.01.012.021.028.028.04l-.007.03c.042.002.042.002.126.053.011-.01.028-.02.04-.03.171.265.171.265.155.333.088.097.216.146.31.241a.315.315 0 0 1 .046-.004c-.01-.058-.01-.058-.093-.177l-.06-.007c-.008-.007-.608-.935-.582-1.186.01.014.019.033.028.044.049.06.137-.007.186.054.09.109.072.267.165.376.114.13.24.252.358.377l-.044.058c.021.024.051.051.08.068.004.016.008.037.013.053.205.107.586.41.463.668-.01.018 1.007.74 1.442.472v-.06c.097-.005.423.25.425.255.14.114.312-.016.456.054.142.07.198.128.384.316l-.021.053a.785.785 0 0 0 .095.056c.019-.004.017-.028.017-.051.172.147.172.147.179.181.362.093.362.093.381.126.03-.005.07-.03.09-.053a3.152 3.152 0 0 0-.018-.147l.005-.037.118.023.365.36c0 .191-.144.373-.148.377-.024.019-.182.228-.265.263.046.14-.191.316-.021.407.095-.033.095-.033.097-.03.065.1-.02.142-.053.156-.16.079-.021.23-.019.23a.814.814 0 0 0-.044.046c.323.086.42.517.42.519.187.046.166.242.254.356.13.167.347.202.5.332-.023.338-.023.338-.018.405-.014.012-.035.026-.049.037-.033.089.005.193-.056.277.04.079-.081.267-.084.27-.097.128-.058.288-.109.428-.04.107-.118.19-.172.288h-.014c-.026.063-.126.33-.126.33a.182.182 0 0 0 .05-.02h.002a.204.204 0 0 1-.024.05c-.014.007-.014.007-.018.007l-.086.128c-.04.038-.07.082-.112.117v-.007H9.24c-.005.007-.014.014-.02.02l.008.028c-.084.066-.151.147-.237.207l.028-.007a.2.2 0 0 1-.068.033l-.046.026-.024.004a.274.274 0 0 1-.044.026c.014-.002.026-.007.04-.012l.014-.002h.004l.01-.002h.004c.007-.003.017-.005.024-.01l.053-.02.023-.01a.364.364 0 0 1-.065.028l.026-.007c-.017.012-.042.016-.06.023h.006c-.035.014-.074.019-.109.033.014-.005.028-.007.042-.01a.083.083 0 0 1-.026.01l-.011.004.028-.007h.002l.07-.016.037-.007.004-.002H8.95s.007-.014.051-.033a.24.24 0 0 0 .065-.032l-.002-.003c.007-.004.016-.004.02-.007.033-.018.064-.044.096-.06.088-.047.18-.084.265-.135.026-.014.047-.035.07-.053-.014-.003-.019 0-.03.004l.009-.03c.019-.028.026-.04.08-.067l.078-.068c-.023.023-.049.044-.072.065.026-.01.054-.011.077-.028a.144.144 0 0 0 .053-.053c.035-.054.084-.072.089-.07.007-.01.011-.02.02-.03.01-.007.017-.01.029-.016-.01.027-.01.027-.014.032l.009-.007.016-.007c.028-.016.033-.032.037-.056-.014.01-.035.024-.048.03-.014.003-.017 0-.02-.002 0-.007.003-.009.022-.03.028-.028.032-.037.028-.046a.146.146 0 0 1 .025-.028c.005-.005.012-.007.017-.012.116.09.15-.153.267-.16h.016c.107.002.233-.073.382-.228-.007.002-.014.007-.019.009a.16.16 0 0 1-.018-.007c.053-.072.053-.072.05-.144.094-.017.194.01.277-.05.003-.001.27-.24.407-.422h.017c.002.011.002.011-.151.195a.7.7 0 0 1 .06-.028c.112-.123.251-.218.358-.346.056-.068.056-.163.116-.228.177-.189.556-.321.559-.321.116-.014.193-.026.39-.317.34-.5.34-.5.377-.648a.602.602 0 0 1 .114-.138zM9.807 7.302v-.007c-.026-.028-.065-.03-.098-.046 0 .002 0 .004-.002.007-.012.037-.044.067-.054.107-.006.027.003.048.017.072h.023c.072-.005.11-.05.114-.133zm.123 8.477c.028-.06.054-.112.119-.135.1-.037.204-.002.304-.026.007-.002.017-.004.021-.007-.016-.018-.04-.042-.053-.06h-.033c-.041-.056-.083-.1-.202-.1-.14.01-.277.086-.42.03.004.005.008.012.015.016.096.035.13.091.107.182-.055.002-.111-.007-.167-.005a.17.17 0 0 0-.072.016c.104.121.281-.06.381.089zM9.55 6.546c.002 0 .002 0 0 0l.067-.016c.021 0 .05.005.086.01.005 0 .01 0 .014.002a3.32 3.32 0 0 1-.081-.11.146.146 0 0 0-.082-.018.141.141 0 0 1-.08-.019c0 .002 0 .002-.003.005-.014.046.072.079.03.12.042.026.042.026.049.026zm-.012-.902c-.037-.007-.074-.016-.114-.021.04.012.08.02.119.035a.118.118 0 0 0 .042.018.136.136 0 0 1-.044-.009l-.024-.004c.01.002.024.009.033.016l.028.011-.028-.011c-.002.004-.002.007.01.014.008.004.018.004.027.011a.04.04 0 0 0 .012.01c.002.002.007.002.009.004l.007.003.016-.003c.01 0 .012 0 .017-.002.027.005.027.005.058.023.072.035.142.077.209.124a1.557 1.557 0 0 0-.21-.12l-.002.003c.021.019.047.026.065.047v.004c-.053-.009-.067 0-.083.014-.024.019-.028.019-.058.024 0 .011-.003.023.034.041.126.066.154.066.17.063.04 0 .056 0 .08.017-.024 0-.038.02-.059.023-.023.004-.046-.012-.07-.007l-.002.004c.002.014.016.03.037.047 0-.005.003-.007.005-.012l.07.033.002.03a.35.35 0 0 0 .119.065c-.003-.011-.003-.023-.007-.032.032-.01.048.023.076.025.026.003.03-.03.054-.03h.014c.044.007.081.03.12.047.247.09.361.34.573.472.02.116.128.216.13.216.007-.072.007-.081-.028-.13a.475.475 0 0 0 .135.081.34.34 0 0 0-.012.047l.042.002c.119.114.126.119.154.163-.012 0-.021 0-.033-.003-.053-.06-.053-.06-.218-.079.018.017.044.038.065.054a.72.72 0 0 1 .202.081c0 .005-.002.01-.005.012.07.042.066.123.098.184-.016 0-.016 0-.056.072l-.018.002c.018.056-.012.114.016.167.081.159.214.282.302.435.01-.028.021-.065.093-.04-.02.031-.065.08-.049.112.082.159.22.277.321.421 0 0 .084.084.163.08.033-.003.058-.03.093-.03.012.015.012.015.016.067.02.009.026.009.035.009.05.095.147.04.217.07l-.014-.012c-.103-.116-.007-.305-.15-.407.003-.007.008-.016.01-.026a.131.131 0 0 1 .06.017c-.011-.019-.027-.044-.034-.065-.017-.047.05-.063.04-.107-.015-.047-.07-.05-.094-.089.005-.004.007-.009.012-.014a.04.04 0 0 1 .016.003c-.016-.035-.049-.058-.065-.091.072.014.054-.107.126-.09-.045-.103-.045-.103-.065-.129.053.035.06.045.088.089.167-.044.086-.328-.012-.384-.004-.005-.014-.007-.018-.01v-.013c.17.079.17.079.274-.017-.023-.062-.005-.134-.044-.195-.135-.01-.207-.018-.207-.018l.002-.02c-.035-.001-.07-.006-.107-.008.007-.026.007-.03-.063-.119.033.019.033.019.063.023.037-.093-.12-.072-.174-.118a.478.478 0 0 1-.035-.033c.165.028.272.168.423.223-.007-.011-.007-.011-.04-.053l.005-.01.082.066a.05.05 0 0 0 .007-.012c-.3-.23-.324-.237-.43-.272 0 .007.002.014.004.02-.042-.013-.058-.055-.093-.078l-.002.018c-.026-.009-.06-.02-.082-.037l.024-.01.002-.015c-.019-.01-.044-.019-.06-.028-.02-.03-.02-.03-.03-.056.046.02.106.049.153.067a.058.058 0 0 1 0-.04c-.051-.046-.051-.046-.13-.062-.061-.033-.061-.033-.13-.09.02 0 .02 0 .136.048-.067-.053-.155-.065-.223-.118.021.002.021.002.054.02-.128-.116-.31-.13-.444-.232.032.005.06.016.093.02-.219-.118-.459-.187-.689-.28a2.644 2.644 0 0 0-.216-.075l.016.01c-.051-.01-.051-.01-.118-.03h.018c-.032-.015-.07-.02-.107-.029h.016a2.568 2.568 0 0 0-.213-.049c-.052-.009-.126-.023-.175-.028.033.007.065.012.098.02h-.012c.112.022.137.032.263.071-.28-.077-.284-.079-.465-.107.03.007.065.012.098.019-.054 0-.107-.016-.161-.021.03.005.058.014.088.02a3.457 3.457 0 0 1-.165-.032l.038.003a2.817 2.817 0 0 0-.31-.033l.012.002h.004c.07.007.12.014.14.019.01 0 .014.002.014.002-.005 0-.01 0-.014-.002-.046-.005-.095-.012-.142-.016h-.007c.137.018.247.035.326.05h-.007a5.228 5.228 0 0 0-.265-.041c.097.016.1.019.125.02H9.61a.046.046 0 0 0 .021.006l-.058-.01.047.012c-.145-.03-.154-.033-.224-.04.01 0 .04.007.142.033zm-.246 2.758c-.007-.044.044-.056.058-.09.002-.005.002-.01.002-.015a.06.06 0 0 0-.011-.032h-.007c-.028.002-.05.016-.073.03-.007.005-.013.007-.023.012-.002.04.014.067.054.095zm.007 7.365a.273.273 0 0 1-.08-.016c-.078-.026-.092-.026-.118-.026-.044.01-.06.03-.077.077.068.005.133.033.203.037.053.003.081-.011.097-.018v-.01c0-.023.003-.035-.02-.046h-.005v.002zm1.511-8.149c-.007-.014-.007-.014-.014-.058-.002-.03-.016-.035-.042-.051-.16.06-.17-.233-.323-.163-.023-.032-.023-.032-.186-.125.01-.01.01-.01.075-.012a.06.06 0 0 1-.017-.026.062.062 0 0 1 .012-.014l-.002-.016-.017-.01.091-.006c-.046-.042-.114-.04-.165-.07.028-.01.065-.02.093-.028l-.077-.076c.005.011.012.023.014.034-.002.003-.051.035-.067.03-.003-.002-.005-.006-.007-.011.002-.005.002-.005.028-.02a.198.198 0 0 0-.054-.008l-.002-.012c.014-.018.014-.018.028-.02.004-.007.009-.02.014-.026-.024-.063-.1-.042-.135-.086-.005.007-.01.019-.014.028-.04.025-.086.002-.084-.028 0-.002 0-.002.08-.04l-.096-.079-.033.086c-.018-.014-.016-.044-.046-.048H9.86l.005-.012c-.016-.019-.053 0-.063-.03.01-.012.021-.017.033-.026-.037-.026-.054-.07-.082-.105-.05-.004-.097-.025-.148-.02a.018.018 0 0 0-.005.009c.01.014.026.028.033.046l-.045-.02.007.064c-.058.017-.05-.07-.097-.083-.01.023-.021.056-.03.081l-.038-.025a.272.272 0 0 0-.02-.254c-.08.005-.094.047-.094.054.003.002.007.007.007.011-.014.005-.016.003-.037-.014-.007 0-.007.003-.007.005l-.053.007c.007.032.007.032-.003.042-.004-.005-.004-.005-.04-.01-.023.04.029.068.033.07l.01-.007c.016.01.016.01.016.09-.021-.01-.049-.027-.07-.039-.005.024-.014.059.021.091.023.021.014.06-.026.116-.004-.004-.011-.014-.011-.02l-.082-.01c0-.005 0-.007-.002-.011.077-.028-.007-.121.047-.168-.028-.077-.028-.077.114-.235-.052-.018-.059-.018-.105-.011-.08.04-.114.123-.184.174-.01.067-.063.12-.07.19.15.045.15.045.159.068-.054.051-.103-.014-.156-.01l.011.07c.019.098.659.145.665.145-.002-.044-.039-.068-.055-.105.06-.032.083.054.132.06.014.082.117.115.114.205h-.051c0 .007.002.014.005.021.03.021.04.014.062-.002.026-.019.045-.007.047-.007l.179.137c0 .002.065.163-.035.207h.01c.07.03.106.016.139-.056.028.017.028.019.047.075.02-.003.02-.003.08.023.01.025.013.044.01.056-.004.02-.028.025-.074.02-.058-.002-.06.003-.075.02a1.334 1.334 0 0 1-.035-.087c-.083-.018-.118-.025-.15-.01-.017.01-.059.096-.05.115.014.025.05.035.047.07l-.177.05c-.058 0-.102-.041-.156-.05.017.065-.055.088-.065.14.038.05.105.074.11.076.06.005.095-.058.153-.056.035.002.065-.02.1-.016.005 0 .014.007.021.032.019-.004.019-.004.035-.004.044.058.146.07.135.172h-.019c.04.03.04.035.042.056.005 0 .012.002.016.004.035.019.054.054.089.072.037.019.081.014.118.035.089.054.165.098.247.09-.065-.127-.223-.176-.27-.318.074.021.11.126.205.098.056.042.102.095.156.14-.005-.026-.005-.028-.021-.038l.032-.04c-.051-.067-.051-.067-.056-.095.063-.041-.04-.104-.011-.158-.286-.262-.286-.262-.321-.311a.018.018 0 0 0 .004-.01c.05-.009.05-.009.121.089.04-.05-.053-.086-.014-.135.028.03.033.035.096.065a.333.333 0 0 1 .049.028c.007.007.014.016.02.02.02.022.003.054.024.075.042.044.102.063.144.107.007-.053-.033-.093-.044-.142.086.042.084.005.079-.041-.005-.045.005-.066.067-.045zm-1.802.547v.004c-.002.017-.012.026-.037.047-.019.014-.04.028-.037.051.004.021.04.075.093.03l.014-.011c.032-.03.053-.072.093-.096.002-.002.007-.004.009-.007l-.058-.007-.077-.011zM8.995 5.59c.007.003.014.007.021.007.058.012.105.059.17.047v-.005l-.007-.004c.014.002.028 0 .042.004 0 0 .007.005 0 .01l.01.004c.025-.004.025-.004.027-.01-.005-.006-.007-.006-.025-.015 0-.005 0-.005-.007-.01.007-.002.04.003.044.019.02.014.046.007.067.019-.016.004-.03-.007-.044-.007l.01.007c-.008.011-.045.009-.075.004l.056.033V5.69l.028.01v.007c-.056-.014-.105-.042-.16-.054v.01c.01.013.01.013.048.034.056.03.056.038.058.056.033.019.04.016.049.007.007-.004.014-.007.028 0 .005.028.005.028.002.033-.025.002-.044-.021-.067-.026-.023-.004-.047.005-.07.002.014.021-.012.04-.002.06h.014l.002-.004.033.014c.011-.004.013-.004.009-.018-.007-.019.002-.021.016-.014.002.014.016.025.014.04 0 .006-.002.013-.02.01.006.017.041.033.055.043l.03-.037c.01.006.014.011.014.02 0 .014-.012.021-.014.033-.074.026-.102-.065-.167-.065-.005.012-.007.014.002.028.016.018.04.028.056.046-.012.012-.019.012-.054.012-.062 0-.093.03-.062.067a.59.59 0 0 1 .165.04c-.012-.023-.012-.023-.017-.026.01-.009.019-.009.054.003a.136.136 0 0 0 .046.011.256.256 0 0 1-.004-.042c.032.014.053.047.088.056l-.007.019c.047.023.077-.002.077-.035.014.002.035.028.04.01.004-.02-.02-.04-.028-.057-.014-.002-.017 0-.021.007l-.024-.009.003-.002c0-.005 0-.005-.012-.023-.03.009-.072-.045-.086-.007-.005-.003-.012-.007-.014-.012.002-.007.01-.007.012-.014a.05.05 0 0 0-.019-.012c0-.004.005-.007.005-.011.03.004.049.032.079.035.02 0 .04-.007.06-.005-.002-.005-.007-.007-.009-.012-.033-.042-.019-.042.046-.049-.016-.006-.04-.018-.055-.025l.055-.002c-.011-.01-.03-.012-.044-.021v-.003c.01-.002.014 0 .033.005-.005-.007-.01-.019-.014-.026a.259.259 0 0 0-.102-.03l-.003-.002.007-.016c-.014-.005-.023-.01-.025-.02l.002-.004c.023-.002.042.014.065.012 0-.002 0-.005.002-.007.017-.007.033-.007.05-.01v-.004c-.012-.007-.033-.016-.047-.023h.002c.007 0 .014 0 .021-.005-.005-.014-.021-.02-.028-.032 0 0 .002-.003.005-.003 0 0 0-.002-.003-.004H9.48h.002a.192.192 0 0 0-.048-.021c0 .002 0 .004-.005.004-.002 0-.033.007-.037-.004l.004-.005.003-.002c-.01-.003-.019-.003-.026-.005H9.37h-.005c-.007-.002-.014-.002-.02-.005h.006c.016.003.021.003.023 0V5.61s-.016-.01-.065-.016c0 0-.076-.01-.172-.017l-.049-.002h-.007l-.053-.002H9l.026.002H9a.302.302 0 0 1 .042.007c-.023.002-.047-.005-.068-.007.005 0 .012.002.014.005-.007 0-.011-.003-.018-.003.004.014.004.014.025.014zm-.02.51c-.022.009-.038.093-.035.095 0 .002.007.014.013.014.017 0 .03-.012.047-.014.007.007.019.012.02.021.017.005.038.007.054.01a.043.043 0 0 0-.004-.017c.004-.007.007-.007.02-.007.008.014.017.03.022.044.072-.028.223.075.223-.032a.061.061 0 0 1 .02.011c.012.01.003.028.012.038.01.009.019.006.028.011.021.01.035.014.038-.007.048.014.046.002.046-.016-.002-.01-.002-.023.033-.019-.003-.014-.01-.018-.028-.03l.028-.026c-.028-.023-.1-.07-.1-.07-.035-.006-.056-.004-.082-.002-.042.005-.083.017-.123.021-.026-.023-.067.01-.088-.025-.038-.007-.063-.044-.103-.042.003-.002.007-.005.01-.01-.003-.009-.012-.013-.014-.023 0-.004.004-.009.007-.011a.14.14 0 0 0 .081.02c.002-.032-.047-.016-.058-.041.002-.007.01-.01.011-.017-.004-.009-.009-.009-.023-.009-.049 0-.056 0-.072.016.005.03.042.045.04.08.002.025-.005.027-.024.037zm-.033-.258a.093.093 0 0 0-.042.009c.028.018.072.032.107.02a.033.033 0 0 1-.005-.013c-.016-.014-.042-.016-.06-.016zm.016-.235v.002c.01.007.021.007.03.014v.002c-.014 0-.014 0-.018-.002v.002c-.003.003-.003.003-.019.003.014.011.033.007.044.02.003-.002.005-.004.005-.006.012.004.016.007.02.014-.001.004-.004.007-.03 0-.018-.005-.023-.005-.025-.005l.01.012c.002.011.004.011.018.013l-.014.01c-.007.011.007.014.01.02h.016c.007-.009.016-.004.04.005.02.01.03.012.041.01-.005.011-.014.014-.037.007-.026-.007-.026-.007-.04 0l-.002.004c.007.012.02.017.028.03a.02.02 0 0 1 0 .017c.014.004.018.007.018.018 0 .007 0 .012.007.014.021.007.047-.002.045-.014.002-.004 0-.009.004-.014.005-.002.012 0 .012 0 .012.005.016.021.023.03.014-.023.014-.037.01-.062.006.005.013.01.02.012-.014-.02-.011-.024.012-.03.016-.003.028-.005.019-.02l-.007-.006h-.005c-.012-.005-.014-.017-.026-.017-.014 0-.014 0-.018-.002 0 0-.002 0-.002-.002l.002-.014c-.019-.026-.051-.026-.075-.042-.002 0-.004 0-.007.002C9.03 5.618 9 5.59 8.956 5.59h-.007c.014.007.028.005.042.01-.014.007-.026.007-.033.007zm.335 2.404c0-.02-.007-.035-.016-.055-.042.027-.065.034-.103-.003.01-.018.026-.051 0-.084-.048-.062-.127-.088-.181-.144l-.023.024c-.033-.003-.035-.003-.044-.017.009-.011.009-.03.02-.042 0-.002.007-.007.021-.004l-.046-.04-.007.01-.06.102c-.003.098-.02.116-.17.295.03 0 .035 0 .042-.007.018-.023.05-.02.058-.016.016.007.07.033.046.081.068-.016.123-.048.186-.16.003 0 .026-.002.037.01.021.02.03.048.05.071.027-.007.048-.004.085.007.1.028.105-.018.105-.028zm-.328-2.2a.025.025 0 0 0 .002-.018c-.004-.019-.025-.033-.044-.044-.02-.014-.028-.02-.035-.03l-.007.03c.012.025.007.055.026.076.019-.009.04-.009.058-.014zm-.112.128c.005.005.012.007.017.012l.011.014c.005.007 0 .01-.009.014.03.023.047.011.09-.014l-.002-.026c-.002-.01-.004-.016-.011-.018-.01-.005-.021-.005-.03-.01a.161.161 0 0 0-.03-.011c-.01-.003-.015-.003-.02-.003-.004 0-.006.003-.01.005a.6.6 0 0 0-.015.016c-.004.01 0 .014.01.021zm-.062.233c.014.01.018.016.02.018l.003.003c.012.007.03.011.04.009.016-.005.018-.023.018-.049 0-.014 0-.023.002-.03.005-.019-.009-.035-.011-.035-.01-.01-.023-.01-.028-.01-.035.005-.112.045-.072.075l.028.019zm.032 16.625a.16.16 0 0 0-.018.007l.03-.007h-.012zM8.788 5.788c-.002.007-.011.01-.011.019 0 .004.004.009.009.011.01 0 .019.003.028 0 .007-.002.007-.004.012-.009l.007-.012c.004-.011 0-.025 0-.025 0-.005-.003-.007-.003-.012 0-.002.007-.004.014-.007.01-.004.01-.007.003-.014l.002-.004c0-.007-.007-.014-.014-.019-.019-.012-.021-.019-.014-.028-.023.01-.033.002-.04-.012-.007-.011-.011-.013-.02-.013 0 0-.04.006-.026.023.005.004.012.007.016.011.002.003.007.007.007.012 0 .01-.005.014-.023.026-.007-.005-.019-.01-.026-.014-.002.007-.009.014-.011.02 0 .008 0 .008.004.012.045-.02.091.021.086.035zm.021.705c.068-.037.103-.11.165-.154l-.002-.023c-.065.002-.123-.04-.186-.042-.019 0-.019 0-.023.007-.007.014 0 .028-.005.042-.014.026-.03.014-.056-.005-.025.086-.079.16-.086.251.014.005.033-.009.042.01.021-.016.051-.037.072-.054.007-.016.007-.02-.004-.035-.012-.016-.012-.018-.003-.03.035-.011.058.007.086.033zm-.228-.556c.003-.002.003-.005.003-.007.002-.01-.005-.021-.017-.033l-.016.017c.007.023.01.03.03.023zm-.04.023c.003.01.01.021.01.033 0 .009-.002.009-.011.02.007.022.018.026.06.03a.13.13 0 0 1 .047.01c-.061.042-.061.042-.066.07.005-.002.005-.005.012-.005.026-.009.042.014.063.017.042 0 .049-.017.056-.038.007-.02.014-.025.03-.03.005-.042.053-.058.058-.102.002-.014-.02-.03-.03-.04-.007.01-.005.021-.014.028-.01.007-.019.007-.021-.004-.002-.007 0-.012 0-.02-.026-.006-.033-.006-.042-.006-.012.005-.012.01-.005.033.01.03.01.04-.004.053-.021-.007-.026-.007-.03-.035-.003-.014-.005-.016-.012-.025-.01.007-.012.011-.019.025-.009.028-.011.03-.032.04-.017-.026.009-.042.009-.065l-.058.011zm1.047 9.498c-.067-.04-.123-.093-.197-.121-.068-.026-.14-.019-.207-.037-.08-.024-.15-.07-.23-.086-.1-.021-.182-.098-.289-.098-.428.002-.477.123-.52.23.15.01.225-.16.374-.156.046.126.216-.023.265.103.188-.089.258.146.409.16-.02.03-.051.068-.074.098l.02.023c.128-.056.277-.01.4-.079.02-.012.035-.028.05-.037zM8.514 5.71c.007.003.007.005.005.01l.014-.007.018.02.03-.009c0-.002.003-.004.003-.007.004-.011.002-.023.004-.035 0 0-.002 0-.002.003-.033.016-.067.01-.1.025.01 0 .019-.002.028 0zm-.093.1c.03.005.044-.025.067-.03l-.009-.007c.012-.016.033-.014.047-.023l.002-.002c-.01-.003-.019-.003-.033-.003-.014 0-.02 0-.042.005-.009.002-.018.002-.027.005H8.42s-.028.025-.028.027c-.005.005-.002.01 0 .014.026-.002.028.007.028.014zm.205.514c0-.009 0-.02.002-.03-.014-.002-.028-.005-.068 0-.041.007-.06.005-.076-.023a.072.072 0 0 0-.019.004c-.025.014-.018.045-.03.066-.016.002-.014-.019-.026-.024l-.014.007c-.004.012-.004.017 0 .028.01.014.026.021.038.037-.017.01-.019.012-.026.038-.005.02-.014.025-.019.025-.048.007-.058-.046-.058-.046 0-.005.005-.007.005-.012-.026-.005-.044.002-.049.01-.023.025-.019.064-.037.092.072.021.072.021.06.052.04.041.014.104.054.146.025-.019.03-.023.025-.063-.004-.037 0-.04.021-.058l.017.044c.02.019.032.014.048-.004.014-.014.026-.026.052-.012.007-.028.009-.033.044-.079.028-.037.025-.047.018-.067l-.014.007-.016-.017c0-.014 0-.018.01-.025l-.07-.007c.028-.03.074-.03.102-.065l-.019-.01c.017-.011.024-.018.04-.016l.005.002zm-.442.784c.025.037.049.056.074.054 0 0 .072-.005.086-.063a.117.117 0 0 0-.01-.072c-.008-.026-.008-.026-.03-.045-.02-.016-.02-.044-.03-.065l-.009.01c-.084.095-.102.118-.179.135.058-.007.077.013.098.046zm.076-.798c0-.002.003-.004.003-.004.014-.044-.063-.021-.086-.05-.003 0-.005.003-.007.006-.047.02-.044.046-.03.086.007.025.009.034.004.048l.116-.086zm.082-.365c-.002.003-.002.005-.005.007-.01.01-.023.005-.032.014-.005.005-.005.012-.005.016-.002.024-.007.026-.026.035-.025-.011-.03-.014-.037-.025-.04.025-.04.004-.04.004v-.002c.003-.005.005-.007.005-.01v-.004c.005-.012.017-.016.021-.025.007-.017.007-.035.014-.052-.04.007-.037-.009-.03-.032H8.2c-.012.002-.02.01-.033.007-.002.025-.002.025-.03.02-.03-.004-.044.008-.056.022.014 0 .03.004.045.004-.03.033-.082 0-.112.04.019.007.06-.023.06.007-.027.016-.041.016-.072.014-.037-.005-.053.004-.053.004-.03.019-.012.028-.002.035.011.007.011.01.013.019.045.002.066.005.1-.026.01.017.01.017.003.024.072-.01.114-.014.13.011a.27.27 0 0 1-.107.014h-.007c-.14.002-.112.035-.105.042a.158.158 0 0 0 .059.012.844.844 0 0 0 .165-.03.048.048 0 0 1 .035-.01c.025.002.046.021.074.016.01-.002.081-.016.093-.065h.002l.04-.014c.002-.004.002-.004.005-.055-.038.011-.047.02-.052.027-.007-.02-.035-.004-.046-.018l.037-.023a.033.033 0 0 0-.014-.005c0-.002-.002-.005-.005-.007.012-.023.042-.037.04-.068-.026.01-.049.028-.077.038.003.016.019.025.012.04zm-.275-.037c-.034.014-.074.012-.111.028-.023.01-.028.026-.028.032a.124.124 0 0 0 .053-.011c.033-.014.059-.033.086-.049zm-.134-.014c.004.005.011.002.037-.014l-.017.037.056-.025c.01-.005.017-.014.028-.017 0 0 .075-.016.072.01.019-.01.033-.026.05-.033.015-.007.022-.004.032-.002.016-.019.067-.007.062-.042.014-.005.028-.007.042-.016.019-.014.019-.033.019-.04l-.04.023c-.004-.013-.011-.018-.032-.013-.04.009-.072.034-.112.046-.05.016-.107.02-.158.037a.142.142 0 0 0-.072.047c.026-.005.028-.003.033.002zm-.842.626a.16.16 0 0 1 .018-.007c.047-.014.047-.014.112-.063.086-.063.086-.063.105-.051.048-.014.079-.063.13-.072.03-.005.06.002.09-.003-.109.042-.204.117-.311.16.01.024.01.024.088.068-.035.028-.079.016-.118.028-.045.012-.045.012-.072.09.237-.008.302.012.33.108-.07.023-.098.011-.151-.016-.035-.017-.056-.021-.056-.021-.01 0-.021.007-.033.007-.056.009-.114-.003-.165.025-.018.01-.079.102-.032.13.018.012.055.014.088.017a.15.15 0 0 1 .019.02c-.007.061-.08.073-.096.126l.014.023c.005-.004.012-.009.014-.014.23-.011.23-.011.27-.004.084-.077.212-.049.295-.128a.097.097 0 0 1 .014.019c-.01.009-.011.009-.018.032.046-.014.055.005.055.054.091.004.303.018.259-.073-.005-.009-.017-.009-.038-.007-.035.007-.042.005-.05-.004.006-.042.008-.044.025-.054.004.005.014.01.018.012.028-.04.084-.019.096.007 0-.002 0-.005.002-.007.016-.019.026-.01.04.005.007-.005.02-.012.025-.019.021-.033.019-.04-.01-.077l-.085-.174c.079-.068.079-.18.144-.254-.007-.062-.019-.079-.067-.088l-.05.063c-.109.179-.109.179-.16.225-.004-.004-.011-.011-.014-.018.026-.063.072-.117.089-.184.007-.03.002-.033-.028-.046-.019.023.02.06-.012.074l-.165.007c.02-.04.074.005.093-.04.014-.032-.007-.06-.049-.065-.023.012-.037.037-.063.047 0 0-.032.007-.048-.003.037-.03.09-.044.114-.093.002-.004.002-.009.002-.014 0-.011-.012-.023-.012-.034.003-.035.042-.066.019-.107a.19.19 0 0 0-.08.028l-.002-.007c.012-.02.04-.066-.088-.06a.693.693 0 0 0-.114.015c.002.003.002.005.005.007-.026.05-.028.054-.454.28.021.018.021.018-.06.141.044.01.125-.074.128-.011zM3.774 9.388l.014-.035c.007-.025.017-.086-.018-.081-.005 0-.01.002-.021.007l-.044.125.046-.048.023.032zm-.079.128c.012-.026 0-.035-.032-.033v.005l-.033.077a.364.364 0 0 0-.028.179.986.986 0 0 0 .045-.084c.011-.028.009-.03.006-.04-.006-.016.01-.046.017-.06.007-.011.018-.028.025-.044zm-.179 1.102c-.014.06-.007.084.028.138a.27.27 0 0 1 .042.095c.028.016.04.03.07.09.032.063.046.084.084.096 0 0 .065.016.083-.047.01-.032.005-.053.003-.058l-.007-.014c-.021-.042-.07-.055-.091-.097a.116.116 0 0 1-.005-.063c.003-.042-.016-.065-.028-.082-.007-.009-.048-.058-.172-.08l-.007.022zM3.5 9.902a.094.094 0 0 1-.033-.04c-.002 0-.004.003-.007.005a.117.117 0 0 0-.04.056c-.013.044-.008.093-.022.14l.076-.038a.319.319 0 0 0 .047-.06c.016-.033 0-.047-.021-.063zm-.1.326c0-.005 0-.012.007-.028l.02-.054c.015-.042.008-.05-.008-.053a.005.005 0 0 1-.005.004c-.047.056-.033.114-.014.13zm-.158-2.475c.002-.002.144-.14.09-.137-.004 0-.004 0-.011.005a.907.907 0 0 0-.112.097.07.07 0 0 1 .017-.011c.007-.003.007-.003.011-.003v.003a.196.196 0 0 1-.037.05c-.023.029-.028.033-.035.045.019-.016.026-.02.04-.023.011-.007.02-.01.037-.026zM2.767 8.94h-.004c-.023.007-.063.047-.082.08.012.006.05-.012.089-.052.007-.007.007-.028-.003-.028zm-.176-.456l.007-.007c.002-.004.002-.009.007-.016.004-.01.011-.018.018-.03l.003-.007c.004-.01-.005-.01-.005-.01h-.005a.23.23 0 0 0-.05.052c-.022.023-.036.037-.043.035-.002.007-.009.018-.014.028.01.02.033.009.082-.045zm.02.6c0-.007-.004-.014-.002-.02a.07.07 0 0 1 .01-.02l-.07.092-.019-.01c-.011.005-.028.01-.049.033-.03.032-.053.072-.081.11.037-.01.023.025.023.025-.007.011-.018.018-.023.032.207-.176.207-.176.26-.237a.05.05 0 0 0 .01-.012c-.005-.009-.014-.025-.019-.037l-.04.044z" fill="#FFF" fill-rule="nonzero"/><g fill="#FFF"><g opacity=".75"><path d="M11.247 6.165c-.228.32-.596.065-.882.31-.165.064-.39.218-.551.032-.11-.089-.074-.228-.037-.386.267-.103.581-.235.749.076.137-.03.172-.167.174-.334.2.111.444.109.547.302z" opacity=".58"/><path d="M12.437 7.732l-.125.284c-.026-.049-.035-.01-.05.051-.064-.351-.33-.416-.557-.472-.168-.084-.372.14-.442-.107.018-.31.284-.246.465-.37.316.08.656.226.71.614z" opacity=".59"/><path d="M14.956 9.311c-.272.354-.777.503-1.237.391.314-.133.604-.335.744-.679.072-.298-.11-.551-.033-.867.303.304.712.613.526 1.155z" opacity=".7"/><path d="M12.3 9.84c-.426.21-1.086.153-1.444-.143.484.012 1.058.196 1.458.082l-.014.06zM4.89 8.516c-.402.112-.727.681-1.143.623-.328.193-.38.558-.461.893-.205.077-.093-.232-.172-.293.153-.402.314-.679.63-.979.354.086.703-.73 1.193-.444l-.046.2zM9.116 10.614c-.15.004-.418-.438-.518-.021-.356-.15-.663-.435-.893-.868.614-.374 1.114.335 1.411.889zM13.77 11.644c-.093.228-.044.41-.003.628l-.574-.182c.063-.258.347-.502.07-.674-.116.014-.293-.03-.416-.06l-.161.274c-.249-.207-.49-.37-.716-.593.102-.037.25.123.393-.072l-.012-.107c.221.011.507.228.74.032.258.168.579.393.679.754zM6.895 9.74c.06.139.238.183.135.367-.446-.319-.949-.565-1.525-.582.23-.174.67-.214.962-.037.042.219.252.207.428.251zM12.037 11.914a1.399 1.399 0 0 1-1.042-.254l-.011-.11c.19-.015.381-.178.518-.355l.535.719zM7.186 11.465c-.023.33-.112.686-.353.837-.024-.446.2-.979-.159-1.274-.127-.242-.344-.356-.574-.412-.28.372-.798-.026-1.219.081-.25.107-.465.37-.562.619-.117.244.116.447.267.588.205.007.444.172.542-.076.023-.1.063-.259-.026-.28l-.176-.044c-.03-.258.223-.302.334-.379.368.028.714.217.866.526a.917.917 0 0 1-.04.618c-.36.25-.76.36-1.156.368-.072.298-.504.149-.802.223-.372-.237-.944-.272-1.286-.795.049-.198-.172-.523.09-.607.18.42.489.916 1.061.951.112-.077.063-.258-.002-.38-.433-.376-.377-.992-.205-1.539.305-.407.554-.662 1.023-.82l-.325.339c.33.186.772-.02 1.165.137.393.305.214-.493.607-.188.46.284.986.893.93 1.507z"/><path d="M17.056 15.211c-.08-.29-.321-.832-.672-.542-.342.021-.737.26-1.017.026.05-.198.338-.232.503-.298.218-.281.532-.416.553-.893.165-.065.189.382.442.107.256-.209.11-.602.207-.85.323.667.244 1.61-.016 2.45z" opacity=".65"/><path d="M2.747 11.097l-.17.314c-.265-.065-.184-.4-.286-.593.035-.37.13-.765.437-1.025.24.395-.17.923.019 1.304zM9.242 11.863l-.126.513c-.372-.09.007-.648-.209-.911.226-.154.384.2.335.398zM1.951 11.05c-.298-.008-.425-.25-.46-.49-.005-.211.007-.416.09-.607.056.393.263.696.37 1.098zM7.658 12.295c-.123.116-.149.384-.351.44.095-.396.242-.842.207-1.228.137.197.153.516.144.788zM15.549 13.942c-.382.179-.88.309-1.228-.026.405.1.82-.072 1.228.026zM2.923 12.672l-.023.1c-.495-.268-1.28.023-1.237-.763-.123-.26-.382-.428-.347-.735l.04-.158c.397.747 1.023 1.11 1.567 1.556z"/><path d="M1.419 12.788c-.163.128-.086.356.04.451.167.082.397.14.571.035.46.258.893.637 1.447.668-.87.27-2.237.42-2.928-.505-.31-.495-.121-1.037-.075-1.612l.273-.583c.155.581.188 1.218.672 1.546zM6.633 12.737c-.054.993-.577 1.83-1.352 2.398-.297.074-.616.374-.944.188.465-.37 1.514-.533 1.37-1.323-.265-.065-.581.237-.807.014a6.536 6.536 0 0 0 1.644-1.298l.089.02zM8.986 13.832c-.06.635-.177 1.34-.693 1.698.237-.36.016-.835.258-1.216-.12-.345-.32.088-.453.1l-.054-.014c.075-.463.296-.83.612-1.13.23.058.29.344.33.562zM14.607 16.272c.074.081.2-.056.251-.107.165-.442-.132-.765-.24-1.17.412.31.517.881.52 1.405.053.39-.222.911-.108 1.211-.14.805-1.049 1.233-1.693 1.496-.763-.019-1.711-.04-2.049-.814.05-.198.16-.275.272-.354l.142.035c-.15.235.196.193.256.335.563.074 1.219.298 1.56-.333l-.106-.172c.188-.162.604-.335.604-.711-.002-.377-.018-.696-.183-1.01-.154-.141-.352-.253-.424-.416.156-.025.372.09.454-.1-.114-.3-.256-.714-.533-.884.554.03.919.917 1.214 1.47l.063.119zM6.637 14.876l-.097.02c.34-.4.574-.973.797-1.506.182.63-.36 1.086-.7 1.486zM16.419 16.063c-.191.016-.14.344-.252.42.059-.237-.116-.448-.309-.495-.102.037-.177-.042-.225.007-.024-.132.355-.081.495-.11.084.022.212.117.29.178zM12.26 15.532c-.12.033-.311.05-.38.18-.092.146.015.318.11.467-.123.116-.376.014-.495-.121-.074-.082-.035-.24.042-.326.2-.202.465-.367.723-.2zM15.56 18.432c-.188.163-.393.386-.616.375.272-.354.347-.882.658-1.16.284.216.056.536-.042.785zM3.667 15.537c-.14.344-.479.198-.746.3-.274-.026-.433-.377-.57-.58.314.245 1.049-.162 1.316.28zM1.781 15.602c-.06.09-.414.005-.583-.142-.08-.06-.233-.202-.228-.37.286.13.52.398.811.512zM4.802 16.337c-.074.149-.165.295-.342.251a.733.733 0 0 1-.486-.39c.275.109.633-.056.828.139zM9.798 18.728c-.28-.005-.584-.289-.863-.147a.481.481 0 0 0-.298.451c-.181-.253.068-.507.13-.765.214-.263.542-.077.75.077.074.081.227.223.28.384z"/><path d="M1.628 16.844c-.293.053-.647.116-.768.463-.209.011-.27-.277-.318-.456-.075-.542.456-.1.625-.268.166-.065.656-.153.46.26z" opacity=".64"/><path d="M4.737 17.83c-.014.207-.304.407-.49.405-.67.214-1.468.334-1.93 1.081-.073.298.157.353.169.69-.23-.055-.333-.248-.407-.476-.128-.472.344-.881.637-1.23a.41.41 0 0 0-.207-.533c-.225-.223-.62-.214-.935-.081.945-.73 2.04.604 3.163.144z" opacity=".5"/><path d="M12.649 20.009c-.698.481-1.484.016-2.035-.328-.086-.188-.305-.284-.302-.451.57.579 1.55.86 2.337.779z" opacity=".6"/><path d="M10.602 22.342c.098-.019.07-.13.093-.228l-.255-.335c.355.149.73.388 1.155.177-.262.311-.64.472-.993.386z"/></g><g opacity=".1"><path d="M10.998 6.086c-.217.33-.593.083-.87.34-.163.07-.384.232-.549.05-.112-.086-.084-.225-.049-.386.265-.111.575-.255.751.054.138-.033.166-.175.163-.34.2.103.444.093.554.282zM12.24 7.614l-.117.288c-.028-.046-.035-.007-.049.051-.076-.349-.344-.404-.574-.453-.17-.077-.367.153-.444-.093.01-.31.277-.256.451-.384.32.067.665.202.733.59zM14.807 9.107c-.26.362-.76.528-1.223.432.309-.144.595-.356.723-.702.063-.3-.128-.547-.06-.865.309.29.73.588.56 1.135zM12.172 9.723c-.419.226-1.081.19-1.449-.093.484-.002 1.063.158 1.46.035l-.01.058zM4.723 8.649c-.397.125-.704.707-1.123.66-.32.205-.36.57-.43.91-.203.08-.1-.229-.182-.29.142-.406.293-.687.598-1 .356.075.677-.753 1.18-.483l-.043.203zM9.014 10.604c-.151.01-.433-.423-.519-.004-.36-.137-.676-.412-.92-.837.602-.396 1.125.297 1.439.841zM13.7 11.476c-.086.233-.03.41.019.628l-.58-.162c.054-.259.33-.514.05-.677-.115.018-.294-.019-.42-.047l-.15.282c-.256-.2-.503-.354-.735-.57.102-.042.253.116.388-.086l-.014-.107c.221.005.514.212.742.01.26.16.588.374.7.73zM6.767 9.802c.066.137.242.174.147.363-.458-.302-.965-.535-1.544-.53.223-.182.663-.238.963-.07.048.218.255.2.434.237zM11.98 11.804a1.404 1.404 0 0 1-1.052-.218l-.014-.107c.19-.023.374-.193.505-.372l.56.697zM7.114 11.518c-.014.33-.088.689-.326.85-.037-.445.168-.985-.2-1.27-.137-.238-.355-.345-.586-.394-.265.382-.797 0-1.214.121-.246.114-.45.384-.541.638-.107.248.13.444.288.579.205 0 .451.155.54-.096.02-.1.053-.26-.035-.279l-.18-.037c-.04-.258.214-.31.324-.39.367.013.72.192.881.495a.928.928 0 0 1-.018.62c-.352.261-.75.384-1.145.408-.062.3-.5.167-.795.25-.381-.225-.954-.239-1.312-.75.042-.2-.188-.52.072-.61.193.414.519.9 1.091.914.11-.081.054-.26-.014-.377-.444-.362-.41-.979-.256-1.53.291-.418.533-.679.996-.853l-.314.349c.335.174.772-.047 1.167.097.403.293.198-.5.6-.207.468.263 1.014.856.977 1.472zM17.102 14.935c-.088-.289-.349-.821-.69-.519-.342.033-.728.286-1.017.058.042-.2.33-.244.493-.314.21-.288.517-.432.524-.91.162-.069.2.375.444.094.249-.219.088-.607.179-.858.349.653.3 1.602.067 2.449zM2.665 11.297l-.16.321c-.268-.055-.196-.395-.305-.583.02-.37.105-.77.402-1.04.254.386-.137.928.063 1.302zM9.184 11.846l-.11.519c-.374-.077-.014-.649-.24-.902.222-.163.392.183.35.383zM1.87 11.279c-.298 0-.433-.237-.477-.475-.012-.209-.007-.416.072-.609.068.388.284.684.405 1.084zM7.614 12.33c-.119.12-.137.388-.335.451.084-.4.214-.851.165-1.235.144.196.17.514.17.784zM15.556 13.716c-.375.193-.87.34-1.23.014.409.086.82-.1 1.23-.014zM2.895 12.865l-.02.1c-.505-.251-1.277.067-1.261-.721-.133-.256-.395-.416-.37-.723l.033-.16c.423.734 1.058 1.076 1.618 1.504z"/><path d="M1.393 13.03c-.158.133-.074.358.056.449.17.077.402.125.572.016.47.244.914.607 1.47.619-.86.3-2.221.493-2.944-.407-.326-.484-.156-1.033-.128-1.61l.253-.593c.175.582.228 1.217.721 1.526zM6.605 12.807c-.021.995-.517 1.849-1.27 2.44-.295.083-.602.395-.937.22.45-.384 1.495-.581 1.325-1.367-.267-.056-.574.256-.807.04a6.546 6.546 0 0 0 1.6-1.352l.089.019zM8.993 13.825c-.04.638-.133 1.347-.637 1.719.225-.37-.012-.835.218-1.223-.132-.34-.318.1-.45.114l-.054-.012c.06-.465.267-.84.574-1.149.23.049.303.333.349.551zM14.69 16.074c.077.08.2-.063.247-.114.149-.446-.158-.76-.279-1.16.421.295.544.863.565 1.388.068.388-.19.916-.067 1.214-.114.81-1.007 1.267-1.642 1.551-.763.007-1.712.016-2.074-.744.041-.2.15-.281.26-.36l.142.03c-.142.24.202.188.267.325.565.056 1.228.256 1.55-.383l-.115-.17c.184-.17.593-.356.58-.733-.015-.376-.043-.695-.22-1.002-.157-.137-.357-.242-.437-.402.156-.03.375.076.452-.114-.124-.296-.282-.705-.563-.868.556.012.949.884 1.263 1.428l.072.114zM6.68 14.944l-.099.02c.328-.41.542-.99.747-1.53.205.629-.321 1.1-.649 1.51zM16.495 15.807c-.19.023-.128.346-.237.428a.42.42 0 0 0-.325-.484c-.103.042-.18-.037-.226.016-.028-.13.353-.093.49-.125.087.016.217.107.298.165zM12.32 15.414c-.118.037-.308.06-.373.193-.087.149.025.318.125.462-.119.121-.377.026-.498-.104-.076-.08-.044-.237.03-.326.194-.21.454-.383.717-.225zM15.716 18.204c-.183.17-.381.4-.602.396.26-.363.316-.891.619-1.182.29.205.072.533-.017.786zM3.735 15.704c-.128.35-.472.214-.737.326-.275-.016-.445-.363-.589-.56.321.232 1.044-.198 1.326.234zM1.849 15.832c-.056.093-.412.019-.589-.123-.08-.058-.237-.195-.24-.363.292.123.536.382.829.486zM4.893 16.467c-.07.151-.156.3-.333.263a.731.731 0 0 1-.497-.374c.277.1.628-.077.83.111zM9.967 18.69c-.279.005-.593-.27-.867-.118a.48.48 0 0 0-.281.46c-.191-.246.05-.509.104-.77.205-.27.54-.095.751.054.075.08.233.216.293.374zM1.737 17.079c-.29.063-.642.137-.751.488-.21.019-.279-.267-.335-.444-.09-.54.451-.114.616-.288.166-.07.652-.177.47.244zM4.88 17.963c-.008.206-.292.418-.478.42-.662.238-1.455.384-1.893 1.147-.062.3.17.346.191.686-.23-.049-.34-.237-.423-.463-.144-.467.316-.89.595-1.249.09-.25-.056-.448-.225-.525-.235-.216-.628-.193-.938-.05.921-.769 2.063.531 3.17.034zM12.858 19.876c-.681.503-1.481.066-2.044-.26-.09-.186-.314-.274-.316-.44.588.559 1.576.807 2.36.7zM10.89 22.274c.098-.02.066-.132.087-.232l-.268-.326c.36.137.742.363 1.16.137-.253.323-.622.496-.978.421z"/></g></g></g></svg>