<svg width="71" height="57" viewBox="0 0 71 57" xmlns="http://www.w3.org/2000/svg"><title>fox</title><path d="M22.713 45.18l33.772-4.216 7.364 3.013-.01 5.172-41.126-3.969zm29.573-33.31l-.006-4.831 5.055 3.012.732 3.069-3.602-2.062-.029.05c-.61-.408-1.633-.167-2.15.762zm-6.47 21.292l-4.517-2.875 5.189 2.165-.673.71zM29.5 35.033c2.251-.38 4.206.465 4.365 1.889.163 1.423-1.53 2.883-3.78 3.263-2.25.378-4.208-.463-4.366-1.886-.161-1.424 1.533-2.888 3.78-3.266zm22.456-12.719l-2.607-2.126 2.878 1.48-.271.646zm-6.666.805c.444-.097.57.072.57.497 0 .422-.118.613-.709.742l-.751.168V23.32l.89-.2zm-6.669.449l.003 2.3h.004v.794c-.014.648-.064 1.095-.767 1.227-.802.153-.7-.369-.695-.954v-4.001l1.455.634zM26.886 28.8l-2.584-2.918 2.584 1.088v1.83zm8.359-19.87c2.554-.768 4.626.686 4.626 3.24 0 2.555-2.072 5.249-4.626 6.01-2.557.767-4.629-.684-4.629-3.235 0-2.561 2.072-5.251 4.629-6.015zm29.819 31.158a1.927 1.927 0 0 0 1.604-2.203l-3.808.595a1.926 1.926 0 0 0 2.204 1.608zm-60.069 2.4a2.22 2.22 0 0 0 2.574-1.794l-4.364-.774a2.212 2.212 0 0 0 1.79 2.567zm41.212-30.9v6.638s1.43-.312 1.43-.322v-3.466l1.862-.503v-1.46l-1.861.493v-1.802l-1.431.421zM61.27.853H70.093v48.909l-3.45-.349v-7.812c0-.586-2.79-.785-2.79.098v.685l-7.561-3.017s-40.676 5.49-42.928 5.783c-4.481.586-5.726 5.53-3.427 7.587l-3.476.331v-8.26c0-.59-2.983-.979-2.983-.098v8.627l-3.477.328V.853h6.557L4.995 39.13l1.367.101L13.552.853h41.631l1.984 8.428-4.855-2.862-.024.043v-.021l-1.431.423v3.898l-9.742-5.55-.018.04c-1.557-.926-3.604-1.166-5.852-.495-3.492 1.045-6.338 3.694-7.76 7.07l-4.268-1.764-.022.043c-1.065-.524-2.444-.676-4.055-.184-4.6 1.407-5.288 4.002-6.51 6.501l4.284-1.178s.22-1.763 2.566-2.446c2.236-.652 2.255 1.857 1.374 2.839-.883.977-8.298 9.251-8.298 9.251v1.348l13.093-3.118v-2.49l-5.678 1.27s4.994-4.99 5.384-7.826c.148-1.072-.039-1.887-.669-2.68l2.492 1.077c-.466 1.214-.73 2.477-.73 3.72 0 2.83 1.337 4.951 3.415 5.938l9.727-2.224c2.659-2.311 4.451-5.706 4.451-8.98 0-1.81-.458-3.037-1.388-4.155l8.204 4.677v5.759s1.43-.417 1.43-.433v-3.68c.685-.736 1.276-.593 1.276.622v2.793l1.263-.326v-4.195l3.372 1.827 1.204 4.968a506.695 506.695 0 0 1-3.15-1.7c-.024-.012-44.94 10.476-44.94 10.476v1.223l.977.354c-.541.52-.94 1.194-1.063 1.934-.24 1.394.52 2.553 1.758 2.875l2.548-.492a3.75 3.75 0 0 0 1.157-1.153l-1.4-.496c-.322.416-.821.69-1.337.69-.79 0-1.316-.638-1.18-1.424.029-.177.098-.344.183-.497.038-.065.079-.116.12-.17.06-.082.12-.16.194-.228.068-.07.136-.128.213-.184.053-.034.112-.072.17-.101.244-.139.506-.244.789-.244.42 0 .766.18.979.47l1.374-.967a2.319 2.319 0 0 0-1.155-.891l1.74.645v4.191l4.201-.813v-1.294l-2.438.47v-.93l1.943-.368v-1.388l-1.943.366v-.848l2.438-.45v-1.39l1.057.376v2.723l.009-.002v2.522l1.657-.317v-2.968l2.376 2.507 1.73-.33V25.005l.958.376.056 1.127 1.672-.4v4.326l1.725-.337v-4.373l1.809-.327v-1.894l.386.266s.054 2.957.16 4.89c.173.514.448.689.833.823l3.395-.656c.905-.676 1.356-1.746 1.378-3.05v-3.654l1.51.723v2.182h.002v3.237l2.105-.41.001-1.6s1.453.707 2.29 1.156l2.703-.527-2.548-1.547c.212-.079.376-.203.52-.352.044-.043.079-.094.12-.144.084-.108.157-.227.214-.349.03-.064.06-.129.085-.194.046-.127.075-.254.102-.38.015-.068.034-.131.042-.192.029-.186.042-.37.042-.533 0-.615-.919-1.785-1.821-2.166l.378-.11 3.927 3.175v2.518l2.735-.458v-2.519l.688-1.27 1.948-3.611 4.062 2.136.023.084.006-.004 2.006 8.539c-2.392-1.15-5.74-2.76-5.754-2.769-.024-.015-44.906 8.48-44.906 8.48v1.179l1.16.379v7.427l3.241-.44v-1.886l4.8-.883v-2.154l-4.8.78v-1.76l.062-.012 5.227-.968v-2.837l2.339 1.343c-1.383.83-2.155 3.412-.95 5.277.526.694 1.3 1.266 2.279 1.662.162.056.346.093.526.138l9.687-1.323c.274-.174.536-.35.778-.536.05-.044.109-.079.159-.118 1.335-1.082 2.16-2.412 2.213-3.749h.001c.006-.172.04-.34.022-.51-.292-2.454-3.277-3.753-5.09-3.878-.007.007 2.312-.428 2.312-.428l7.349 4.044.174-.031-4.455 4.732 5.639-.768.312-.365 1.57-1.87 2.828 1.587 5.534-.754-5.23-3.477 6.547-6.646 6.935 3.299 1.354 5.756 1.316-.155L61.27.854zm-46.975 52.96c-6.217-.635-5.289-8.662 3.083-7.978.841.067 48.122 5.012 52.713 5.491v5.526H0v-1.908l14.295-1.132z" fill="#D7D7DC" fill-rule="evenodd"/></svg>