<svg width="60" height="61" viewBox="0 0 60 61" xmlns="http://www.w3.org/2000/svg"><title>mcgraw_hill</title><path d="M60 60.853H0v-60C.1.855.2.86.3.86h59.692v59.692c.001.101.006.201.008.301zm-41.73-44.06c-.005-.066-.007-.106-.012-.145l-.25-2.325c-.165-1.55-.328-3.1-.495-4.648-.168-1.563-.341-3.125-.503-4.688-.018-.174-.07-.22-.24-.22-.967.008-1.933.008-2.9 0-.167-.002-.242.046-.293.208-.777 2.385-1.562 4.768-2.345 7.152l-.282.851c-.045-.118-.073-.19-.098-.265-.909-2.586-1.817-5.173-2.722-7.761-.042-.119-.085-.187-.232-.187-1 .007-2 .007-3 .002-.138 0-.176.046-.19.181-.178 1.79-.363 3.579-.545 5.367l-.601 5.943c-.019.175-.029.35-.045.545.895 0 1.76.002 2.625-.006.038 0 .106-.089.111-.14.035-.379.059-.757.085-1.135l.309-4.365c.051-.735.105-1.47.156-2.204.074.112.115.229.155.345.825 2.419 1.654 4.837 2.469 7.259.068.205.163.258.366.255a57.69 57.69 0 0 1 2.08 0c.167.003.23-.059.279-.209a3678.21 3678.21 0 0 1 2.355-7.253c.043-.133.09-.267.135-.4.121 1.023.216 2.038.31 3.053.14 1.532.278 3.065.41 4.597.013.16.068.212.231.21.827-.008 1.654-.003 2.48-.005.059.002.117-.005.197-.012zM6.417 39.08v-4.55H3.453v11.998h2.972v-5h.223c1.16 0 2.32.005 3.48-.005.195-.001.244.057.244.247-.009 1.5-.004 3-.004 4.5v.26h2.974c.005-.068.013-.127.013-.185 0-3.873 0-7.747.003-11.62 0-.17-.055-.212-.216-.21-.84.007-1.68.01-2.52-.002-.2-.003-.26.045-.259.254.01 1.353.005 2.706.005 4.06 0 .083-.006.166-.011.255-1.322-.002-2.619-.002-3.94-.002zm5.586-16.4c.44-.657.865-1.292 1.294-1.93a3.89 3.89 0 0 0-1.399-.903c-1.856-.702-3.73-.722-5.583-.014-1.67.639-2.798 1.84-3.383 3.53a7.2 7.2 0 0 0-.299 3.472c.367 2.423 1.684 4.068 4.039 4.823 1.258.404 2.546.394 3.836.177.969-.163 1.88-.483 2.695-1.05.12-.083.177-.17.177-.325-.007-1.607-.003-3.213-.005-4.82 0-.07-.007-.142-.012-.222-.063-.005-.11-.01-.155-.01-1.486 0-2.973.002-4.46-.003-.158 0-.188.062-.186.2.005.56.001 1.12.001 1.68v.297h2.177c0 .515-.005 1.006.003 1.498.004.15-.036.22-.195.258a5.41 5.41 0 0 1-1.706.142c-1.28-.108-2.287-.682-2.842-1.872-.577-1.236-.603-2.516-.082-3.78.415-1.001 1.187-1.618 2.232-1.891.71-.185 1.425-.162 2.138-.015.62.13 1.179.386 1.715.758zm18.057.075c.015.077.022.122.033.165.822 2.873 1.645 5.747 2.464 8.622.036.126.095.163.223.161.833-.005 1.667-.006 2.5 0 .145.002.188-.05.22-.185.285-1.198.577-2.395.867-3.591l.405-1.67c.03.101.048.156.063.215.442 1.666.885 3.333 1.318 5.001.044.169.105.235.29.232a89.29 89.29 0 0 1 2.5 0c.182.003.252-.053.297-.225.702-2.638 1.41-5.273 2.117-7.91.071-.267.14-.535.21-.805-.044-.013-.062-.023-.08-.023-.814-.002-1.627 0-2.44-.007-.132-.002-.149.08-.17.175-.322 1.382-.645 2.762-.969 4.143l-.326 1.374c-.027-.082-.04-.12-.05-.159-.455-1.773-.91-3.546-1.36-5.321-.039-.154-.095-.217-.265-.215-.68.01-1.36.008-2.04.001-.154-.001-.217.045-.257.199-.428 1.696-.865 3.393-1.3 5.088-.03.115-.062.228-.093.343-.044-.033-.052-.058-.057-.083-.437-1.785-.873-3.57-1.303-5.355-.035-.145-.094-.192-.24-.192-.787.007-1.574.004-2.36.004-.057.005-.115.013-.197.018zm-3.463 3.202h-.242a8.107 8.107 0 0 0-2.365.336 6.147 6.147 0 0 0-1.07.434c-1.14.605-1.603 1.53-1.442 2.81.159 1.238.975 2.13 2.185 2.366 1.079.21 2.06-.041 2.957-.66.08-.055.157-.111.265-.19 0 .204.008.364-.003.522-.012.16.048.205.205.203a56.01 56.01 0 0 1 1.98.002c.215.005.251-.07.25-.262-.009-1.086 0-2.173-.005-3.258-.005-1.007.003-2.013-.034-3.017-.036-.955-.483-1.695-1.33-2.156a3.903 3.903 0 0 0-.958-.387 6.773 6.773 0 0 0-4.3.378c-.187.08-.362.184-.553.282l.901 1.777.257-.097c.788-.295 1.593-.482 2.442-.38.621.075.868.362.861.98l-.001.317zm.71-17.272c-.175-.133-.329-.27-.502-.378-.722-.454-1.52-.67-2.363-.717-1.665-.092-3.092.428-4.167 1.733-.968 1.175-1.23 2.549-.963 4.024.256 1.426.986 2.563 2.311 3.191 1.899.9 3.752.674 5.517-.421.105-.065.197-.149.298-.225l-.555-.912-.553-.905-.192.107c-.595.338-1.225.548-1.918.538-1.005-.013-1.728-.575-1.97-1.547a3.703 3.703 0 0 1-.102-.73c-.053-1.146.557-2.156 1.7-2.438.657-.162 1.282-.052 1.884.238.141.069.278.145.425.222.378-.592.751-1.167 1.15-1.78zm-7.015 25.843v11.999h2.888c.005-.067.013-.119.013-.17 0-3.879 0-7.757.004-11.635 0-.174-.064-.209-.22-.207-.827.007-1.654.003-2.479.003-.065-.001-.13.005-.206.01zm4.92-.011v12.01h2.89c.005-.079.01-.145.01-.21 0-3.859-.002-7.717.005-11.575 0-.192-.064-.23-.24-.229-.814.009-1.627.004-2.439.004h-.226zM17.77 22.745c-.078-.005-.137-.013-.195-.013-.673 0-1.347.005-2.02-.004-.16-.001-.202.049-.202.204.005 2.865.005 5.731 0 8.596 0 .17.054.212.217.21.82-.006 1.64-.01 2.458.002.197.003.26-.042.259-.25a495.11 495.11 0 0 1 0-5.218c0-.122.048-.264.121-.36.394-.519.91-.854 1.552-.982.207-.042.418-.062.638-.093.177-.774.352-1.549.535-2.354-1.366-.11-2.436.409-3.363 1.392v-1.13zM5.207 55.832v-2.054h3.145v-1.383h-.254c-.893 0-1.786-.007-2.678.005-.192.002-.235-.06-.232-.238.012-.467.004-.934.005-1.4 0-.07.009-.142.014-.229h2.436c.254 0 .507.005.76-.005.054-.001.152-.06.152-.095.01-.431.007-.861.007-1.31-.094-.005-.165-.01-.237-.01-1.547 0-3.092.004-4.638-.005-.194-.001-.244.055-.244.247.007 2.558.007 5.118 0 7.677 0 .203.057.256.259.256 1.566-.008 3.131-.005 4.698-.005h.243v-1.455c-1.153.004-2.29.004-3.436.004zm10.186 1.443V49.18h-1.11c-.556 0-.556 0-.556.548v1.557c-.084-.025-.145-.045-.209-.063-1.345-.412-2.65.06-3.368 1.23-.527.856-.625 1.788-.428 2.755.4 1.975 2.395 2.841 4.12 1.798.025-.015.056-.02.093-.033l.018.303h1.44zm31.524-6.198c-.744-.002-1.425.191-2.004.67-.838.693-1.151 1.616-1.13 2.678.034 1.597 1.06 2.867 2.712 3.018 1.247.115 2.443-.468 3.015-1.52.313-.576.425-1.2.413-1.85-.033-1.736-1.293-2.993-3.006-2.996zm7.796 6.208c.54 0 1.059.003 1.575-.007.037 0 .1-.098.1-.15-.005-1.338.01-2.678-.033-4.016-.032-1.005-.653-1.747-1.557-1.965a2.476 2.476 0 0 0-1.658.161c-.215.1-.422.219-.647.337l-.023-.385h-1.423V57.027c0 .04-.015.09.003.118.037.055.088.13.14.137.165.018.333.006.498.006h1.039v-.26c0-1.326-.002-2.651.005-3.978 0-.078.04-.19.1-.228.288-.19.61-.299.956-.314.529-.025.829.239.885.762.014.118.029.238.029.358.005 1.134.006 2.265.01 3.399l.001.258zm-37.906-6.028c-.004.076-.01.128-.009.181.012 1.34-.003 2.68.045 4.017.039 1.025.71 1.763 1.67 1.95.729.142 1.385-.053 2-.432.059-.036.119-.073.205-.128v.425h1.405v-6.01h-1.66v.248c0 1.32.002 2.64-.005 3.96 0 .084-.048.202-.113.244-.322.2-.672.316-1.06.301-.435-.018-.698-.243-.757-.675a5.41 5.41 0 0 1-.045-.656c-.005-1.06-.001-2.12-.001-3.18v-.244l-1.675-.001zm13.37 1.546c.26-.1.491-.201.731-.276.47-.149.95-.219 1.435-.07.384.116.55.45.42.843-.093 0-.195-.01-.291.002-.495.061-1 .08-1.48.201-1.214.309-1.764 1.074-1.677 2.244.057.763.543 1.383 1.282 1.59.753.211 1.463.066 2.133-.317l.202-.115c.01.142.016.258.026.392.43 0 .844-.005 1.255.003.14.003.185-.043.184-.182-.004-1.326.003-2.653-.005-3.98-.009-1.15-.609-1.746-1.71-1.971a4.103 4.103 0 0 0-2.187.158c-.298.102-.58.252-.888.388.205.392.385.739.57 1.09zm-11.935-6.271v-7.55h-2.877v7.55h2.877zm21.363 4.716h-1.683v-.235c0-.426-.004-.853.001-1.278.002-.118-.033-.167-.158-.165-.453.005-.907.007-1.358 0-.132-.002-.174.043-.172.173.007.347.002.694.002 1.04v.472h-1.04v1.135c0 .26 0 .26.26.26h.78c0 .632-.005 1.223.001 1.817.005.471.004.946.04 1.416.044.56.309 1.017.812 1.277.883.457 1.773.372 2.648-.045.039-.018.087-.097.075-.128-.123-.362-.256-.72-.381-1.064-.254.045-.475.102-.699.122-.491.042-.791-.203-.801-.697-.019-.878-.004-1.758-.004-2.636 0-.012.012-.022.034-.06h1.641c.002-.484.002-.934.002-1.404zm-11.553 4.42c-.384.127-.734.287-1.1.355-.629.119-1.212.007-1.632-.541-.2-.26-.298-.565-.338-.885-.09-.744.08-1.405.708-1.864.603-.44 1.252-.361 1.895-.066.107.05.207.113.322.178l.681-1.05c-.171-.117-.315-.237-.476-.323-.747-.404-1.544-.499-2.364-.319-1.468.322-2.453 1.552-2.468 3.06-.01 1.094.33 2.037 1.253 2.69.749.53 1.595.632 2.482.494a3.513 3.513 0 0 0 1.527-.607c.046-.033.093-.143.073-.18-.187-.328-.387-.65-.563-.942zm12.915-3.85v2.154c0 .993-.002 1.985 0 2.978 0 .372-.042.335.326.337h1.12c.072 0 .144-.007.219-.01v-5.47h-1.494c-.046 0-.093.006-.171.011zm-24.14-14.161a1.537 1.537 0 0 0 1.526-1.55 1.515 1.515 0 0 0-1.523-1.525 1.532 1.532 0 0 0-1.553 1.521 1.555 1.555 0 0 0 1.55 1.554zm25.935 12.475a.957.957 0 1 0-1.914.01.957.957 0 0 0 1.914-.01zM26.605 27.578c.007.067.017.119.017.17.001.494.005.987-.004 1.48-.001.074-.041.179-.098.214-.555.34-1.157.511-1.81.411-.42-.063-.713-.3-.805-.726-.093-.437-.025-.842.353-1.134.114-.088.249-.16.384-.206.635-.225 1.295-.21 1.963-.209zM13.727 54.24c0 .447-.007.892.003 1.338.003.15-.053.227-.183.289-.625.301-1.25.266-1.677-.142a1.666 1.666 0 0 1-.395-.587 2.36 2.36 0 0 1 .048-1.846c.39-.879 1.36-1.015 2.122-.629.048.025.077.132.078.2.007.459.004.917.004 1.377zm34.511.04a2.19 2.19 0 0 1-.21 1.045 1.277 1.277 0 0 1-2.155.243c-.536-.653-.561-1.93-.05-2.606.562-.744 1.67-.657 2.142.168.203.357.283.743.273 1.15zm-15.435.18c0 .438.004.857-.005 1.273-.001.045-.056.104-.101.132-.389.233-.807.343-1.262.265-.39-.067-.623-.302-.665-.665-.043-.362.14-.675.5-.823.482-.199.988-.192 1.533-.182z" fill="#D7D7DC" fill-rule="nonzero"/></svg>