<svg width="65" height="59" viewBox="0 0 65 59" xmlns="http://www.w3.org/2000/svg"><title>wwe</title><g fill="#D7D7DC" fill-rule="evenodd"><path d="M29.495 44.557l-1.997 4.609c3.764-.384 7.297-.615 10.447-.615l-2.151-4.839c-2.074.307-4.225.615-6.299.845zM48.468 42.944c-.768 1.997-1.613 3.994-2.305 5.838 7.758.614 12.367 1.843 12.367 1.843l3.61-7.604a274.702 274.702 0 0 0-13.672-.077zM2.612 53.62C.999 54.774.538 55.31.46 55.31c-.077.077 3.533-1.305 9.064-2.765 5.223-1.382 7.834-1.843 10.676-2.304-.46-1.075-.845-2.227-1.382-3.456-8.91 2.38-13.826 5.146-16.207 6.836zM32.952 10.069l9.37 24.35L59.76.236l-17.283 22.66-9.524-21.738-9.602 21.737L6.068.237l17.36 34.181z"/><path d="M48.468 42.944c1.843-4.685 3.61-9.294 4.531-11.675C56.226 22.896 64.367.237 64.367.237L42.17 45.632c-2.458-6.221-9.14-22.736-9.14-22.736-.461 1.153-6.683 16.515-9.14 22.736L1.612.237s8.065 22.66 11.368 31.032c1.229 3.072 3.764 9.601 6.068 15.516l1.383 3.456a621.879 621.879 0 0 1 3.226 8.372l4.148-9.294 1.997-4.608 3.38-7.681 2.995 6.836 2.15 4.762 4.302 9.985s1.69-4.378 3.764-9.678c.46-1.92 1.306-3.917 2.074-5.99z"/></g></svg>