<?xml version="1.0" encoding="UTF-8"?>
<svg id="Layer_1" xmlns="http://www.w3.org/2000/svg" xmlns:xlink="http://www.w3.org/1999/xlink" baseProfile="tiny-ps" version="1.2" viewBox="0 0 600 600">
  <!-- Generator: Adobe Illustrator 29.2.1, SVG Export Plug-In . SVG Version: 2.1.0 Build 116)  -->
  <title>Laravel</title>
  <rect width="600" height="600" fill="#ff3528"/>
  <g>
    <path d="M477.1,206.7c0-.2-.1-.3-.2-.4-.1-.3-.2-.6-.3-.8-.1-.2-.2-.3-.4-.5-.2-.2-.3-.4-.5-.6s-.4-.3-.5-.4c-.2-.1-.4-.3-.6-.4h0l-64-36.9c-1.6-.9-3.7-.9-5.3,0l-64,36.9h0c-.2.1-.4.3-.6.4-.2.1-.4.2-.5.4-.2.2-.3.4-.5.6-.1.2-.3.3-.4.5-.1.3-.2.6-.3.8,0,.1-.1.3-.2.4-.1.4-.2.9-.2,1.4v70.1l-53.3,30.7v-137.1c0-.5,0-.9-.2-1.4,0-.2-.1-.3-.2-.4-.1-.3-.2-.6-.3-.8-.1-.2-.2-.3-.4-.5-.2-.2-.3-.4-.5-.6s-.4-.3-.5-.4c-.2-.1-.4-.3-.6-.4h0l-64-36.9c-1.6-.9-3.7-.9-5.3,0l-64,36.9h0c-.2.1-.4.3-.6.4-.2.1-.4.2-.5.4-.2.2-.3.4-.5.6-.1.2-.3.3-.4.5-.1.3-.2.6-.3.8,0,.1-.1.3-.2.4-.1.4-.2.9-.2,1.4v219.5c0,1.9,1,3.7,2.7,4.6l128,73.8c.3.2.6.3.9.4.1,0,.3.1.4.2.5.1.9.2,1.4.2s.9,0,1.4-.2c.1,0,.2-.1.4-.1.3-.1.6-.2.9-.4l128-73.8c1.6-1,2.7-2.7,2.7-4.6v-70.1l61.3-35.4c1.6-1,2.7-2.7,2.7-4.6v-73.1c0-.5,0-.9-.2-1.4h0ZM280,385.1l-53.2-30.2,55.9-32.2h0l61.3-35.4,53.3,30.7-39.1,22.3-78.2,44.7h0ZM402.6,248.1v60.8l-22.4-12.9-30.9-17.8v-60.8l22.4,12.9,30.9,17.8h0ZM408,177.4l53.3,30.7-53.3,30.7-53.3-30.7,53.3-30.7ZM243.7,332.9l-22.4,12.9v-134l30.9-17.8,22.4-12.9v134l-30.9,17.8h0ZM216,141.1l53.3,30.7-53.3,30.7-53.3-30.7,53.3-30.7ZM157.3,181.1l22.4,12.9,30.9,17.8v143.2h0c0,.2,0,.4,0,.6,0,.3,0,.5.1.8h0c0,.2.2.4.2.6,0,.2.2.5.3.7h0c.1.2.3.4.4.5.1.2.3.4.4.6,0,0,0,0,0,0,.1.1.3.3.5.4.2.1.4.3.6.4h0s0,0,0,0l61.3,34.7v61.4l-117.3-67.6v-207.1h0ZM402.6,388.2l-117.3,67.6v-61.4l86.9-49.7,30.4-17.4v60.9h0ZM466.6,278.1l-53.3,30.7v-60.8l30.9-17.8,22.4-12.9v60.8h0Z" fill="#fff" stroke="#fff" stroke-miterlimit="10"/>
    <path d="M477.1,206.7c0-.2-.1-.3-.2-.4-.1-.3-.2-.6-.3-.8-.1-.2-.2-.3-.4-.5-.2-.2-.3-.4-.5-.6s-.4-.3-.5-.4c-.2-.1-.4-.3-.6-.4h0l-64-36.9c-1.6-.9-3.7-.9-5.3,0l-64,36.9h0c-.2.1-.4.3-.6.4-.2.1-.4.2-.5.4-.2.2-.3.4-.5.6-.1.2-.3.3-.4.5-.1.3-.2.6-.3.8,0,.1-.1.3-.2.4-.1.4-.2.9-.2,1.4v70.1l-53.3,30.7v-137.1c0-.5,0-.9-.2-1.4,0-.2-.1-.3-.2-.4-.1-.3-.2-.6-.3-.8-.1-.2-.2-.3-.4-.5-.2-.2-.3-.4-.5-.6s-.4-.3-.5-.4c-.2-.1-.4-.3-.6-.4h0l-64-36.9c-1.6-.9-3.7-.9-5.3,0l-64,36.9h0c-.2.1-.4.3-.6.4-.2.1-.4.2-.5.4-.2.2-.3.4-.5.6-.1.2-.3.3-.4.5-.1.3-.2.6-.3.8,0,.1-.1.3-.2.4-.1.4-.2.9-.2,1.4v219.5c0,1.9,1,3.7,2.7,4.6l128,73.8c.3.2.6.3.9.4.1,0,.3.1.4.2.5.1.9.2,1.4.2s.9,0,1.4-.2c.1,0,.2-.1.4-.1.3-.1.6-.2.9-.4l128-73.8c1.6-1,2.7-2.7,2.7-4.6v-70.1l61.3-35.4c1.6-1,2.7-2.7,2.7-4.6v-73.1c0-.5,0-.9-.2-1.4h0ZM280,385.1l-53.2-30.2,55.9-32.2h0l61.3-35.4,53.3,30.7-39.1,22.3-78.2,44.7h0ZM402.6,248.1v60.8l-22.4-12.9-30.9-17.8v-60.8l22.4,12.9,30.9,17.8h0ZM408,177.4l53.3,30.7-53.3,30.7-53.3-30.7,53.3-30.7ZM243.7,332.9l-22.4,12.9v-134l30.9-17.8,22.4-12.9v134l-30.9,17.8h0ZM216,141.1l53.3,30.7-53.3,30.7-53.3-30.7,53.3-30.7ZM157.3,181.1l22.4,12.9,30.9,17.8v143.2h0c0,.2,0,.4,0,.6,0,.3,0,.5.1.8h0c0,.2.2.4.2.6,0,.2.2.5.3.7h0c.1.2.3.4.4.5.1.2.3.4.4.6,0,0,0,0,0,0,.1.1.3.3.5.4.2.1.4.3.6.4h0s0,0,0,0l61.3,34.7v61.4l-117.3-67.6v-207.1h0ZM402.6,388.2l-117.3,67.6v-61.4l86.9-49.7,30.4-17.4v60.9h0ZM466.6,278.1l-53.3,30.7v-60.8l30.9-17.8,22.4-12.9v60.8h0Z" fill="#fff" stroke="#fff"/>
  </g>
</svg>
