<?xml version="1.0" encoding="UTF-8"?>
<svg id="Layer_1" xmlns="http://www.w3.org/2000/svg" xmlns:xlink="http://www.w3.org/1999/xlink" version="1.1" viewBox="0 0 600 600">
  <!-- Generator: Adobe Illustrator 29.1.0, SVG Export Plug-In . SVG Version: 2.1.0 Build 142)  -->
  <defs>
    <style>
      .st0 {
        mask: url(#mask);
      }

      .st1, .st2, .st3 {
        fill: #fff;
      }

      .st1, .st3 {
        stroke: #fff;
      }

      .st3 {
        stroke-miterlimit: 10;
      }

      .st4 {
        fill: #ff3528;
      }
    </style>
    <mask id="mask" x="130.87" y="125.78" width="339.24" height="346.86" maskUnits="userSpaceOnUse">
      <g id="path-8-outside-1_15_6009">
        <rect class="st2" x="130.87" y="125.78" width="339.24" height="346.86"/>
        <path d="M465.13,206.69c-.04-.16-.13-.3-.19-.45-.1-.28-.19-.57-.34-.83-.1-.17-.25-.32-.36-.48-.16-.21-.29-.43-.48-.62-.15-.15-.35-.27-.52-.4-.2-.15-.37-.33-.59-.45,0,0,0,0,0,0,0,0,0,0,0,0l-64-36.89c-1.65-.95-3.67-.95-5.32,0l-64,36.89s0,0,0,0c0,0,0,0,0,0-.22.13-.39.3-.59.45-.17.13-.37.25-.52.4-.18.19-.32.41-.48.62-.12.16-.26.3-.36.48-.15.26-.24.55-.34.83-.06.15-.14.29-.19.45-.12.45-.18.92-.18,1.4v70.07l-53.33,30.74v-137.07c0-.48-.06-.95-.18-1.4-.04-.16-.13-.3-.19-.45-.1-.28-.19-.57-.34-.83-.1-.17-.25-.32-.36-.48-.16-.21-.29-.43-.48-.62-.15-.15-.35-.27-.52-.4-.2-.15-.37-.33-.59-.45,0,0,0,0,0,0,0,0,0,0,0,0l-64-36.89c-1.65-.95-3.67-.95-5.32,0l-64,36.89s0,0,0,0c0,0,0,0,0,0-.22.13-.39.3-.59.45-.17.13-.37.25-.52.4-.18.19-.32.41-.48.62-.12.16-.26.3-.36.48-.15.26-.24.55-.34.83-.06.15-.14.29-.19.45-.12.45-.18.92-.18,1.4v219.46c0,1.91,1.02,3.67,2.67,4.63l127.99,73.78c.28.16.58.26.88.36.14.05.27.13.41.17.45.12.91.18,1.37.18s.92-.06,1.37-.18c.12-.03.24-.11.36-.15.32-.11.64-.21.93-.38l127.99-73.78c1.65-.95,2.67-2.72,2.67-4.63v-70.07l61.32-35.35c1.65-.95,2.67-2.72,2.67-4.63v-73.15c0-.47-.07-.94-.19-1.39ZM267.99,385.14l-53.23-30.16,55.9-32.22h0s61.33-35.36,61.33-35.36l53.27,30.71-39.09,22.34-78.19,44.69ZM390.65,248.07v60.83l-22.4-12.91-30.93-17.83v-60.83l22.4,12.91,30.93,17.83ZM395.99,177.36l53.31,30.73-53.31,30.73-53.31-30.73,53.31-30.73ZM231.73,332.88l-22.4,12.91v-133.98l30.93-17.83,22.4-12.91v133.98l-30.93,17.83ZM204,141.09l53.31,30.73-53.31,30.73-53.31-30.73,53.31-30.73ZM145.34,181.06l22.4,12.91,30.93,17.83v143.22s0,0,0,0c0,0,0,0,0,.01,0,.21.06.4.08.6.03.26.04.53.11.78,0,0,0,0,0,.01.06.21.17.4.25.6.09.22.16.46.28.67,0,0,0,.01,0,.02.11.19.27.34.4.52.15.19.27.4.44.56,0,0,0,.01.01.02.15.15.34.26.51.39.19.15.36.32.57.44,0,0,.02,0,.02,0,0,0,.01.01.02.01l61.29,34.73v61.43l-117.32-67.63v-207.14h0ZM390.65,388.2l-117.32,67.63v-61.44l86.89-49.66,30.44-17.39v60.87ZM454.65,278.15l-53.33,30.74v-60.83l30.93-17.83,22.4-12.91v60.83Z"/>
      </g>
    </mask>
  </defs>
  <rect class="st4" x="0" width="600" height="600"/>
  <g>
    <path class="st3" d="M465.13,206.69c-.04-.16-.13-.3-.19-.45-.1-.28-.19-.57-.34-.83-.1-.17-.25-.32-.36-.48-.16-.21-.29-.43-.48-.62-.15-.15-.35-.27-.52-.4-.2-.15-.37-.33-.59-.45,0,0,0,0,0,0,0,0,0,0,0,0l-64-36.89c-1.65-.95-3.67-.95-5.32,0l-64,36.89s0,0,0,0c0,0,0,0,0,0-.22.13-.39.3-.59.45-.17.13-.37.25-.52.4-.18.19-.32.41-.48.62-.12.16-.26.3-.36.48-.15.26-.24.55-.34.83-.06.15-.14.29-.19.45-.12.45-.18.92-.18,1.4v70.07l-53.33,30.74v-137.07c0-.48-.06-.95-.18-1.4-.04-.16-.13-.3-.19-.45-.1-.28-.19-.57-.34-.83-.1-.17-.25-.32-.36-.48-.16-.21-.29-.43-.48-.62-.15-.15-.35-.27-.52-.4-.2-.15-.37-.33-.59-.45,0,0,0,0,0,0,0,0,0,0,0,0l-64-36.89c-1.65-.95-3.67-.95-5.32,0l-64,36.89s0,0,0,0c0,0,0,0,0,0-.22.13-.39.3-.59.45-.17.13-.37.25-.52.4-.18.19-.32.41-.48.62-.12.16-.26.3-.36.48-.15.26-.24.55-.34.83-.06.15-.14.29-.19.45-.12.45-.18.92-.18,1.4v219.46c0,1.91,1.02,3.67,2.67,4.63l127.99,73.78c.28.16.58.26.88.36.14.05.27.13.41.17.45.12.91.18,1.37.18s.92-.06,1.37-.18c.12-.03.24-.11.36-.15.32-.11.64-.21.93-.38l127.99-73.78c1.65-.95,2.67-2.72,2.67-4.63v-70.07l61.32-35.35c1.65-.95,2.67-2.72,2.67-4.63v-73.15c0-.47-.07-.94-.19-1.39ZM267.99,385.14l-53.23-30.16,55.9-32.22h0s61.33-35.36,61.33-35.36l53.27,30.71-39.09,22.34-78.19,44.69ZM390.65,248.07v60.83l-22.4-12.91-30.93-17.83v-60.83l22.4,12.91,30.93,17.83ZM395.99,177.36l53.31,30.73-53.31,30.73-53.31-30.73,53.31-30.73ZM231.73,332.88l-22.4,12.91v-133.98l30.93-17.83,22.4-12.91v133.98l-30.93,17.83ZM204,141.09l53.31,30.73-53.31,30.73-53.31-30.73,53.31-30.73ZM145.34,181.06l22.4,12.91,30.93,17.83v143.22s0,0,0,0c0,0,0,0,0,.01,0,.21.06.4.08.6.03.26.04.53.11.78,0,0,0,0,0,.01.06.21.17.4.25.6.09.22.16.46.28.67,0,0,0,.01,0,.02.11.19.27.34.4.52.15.19.27.4.44.56,0,0,0,.01.01.02.15.15.34.26.51.39.19.15.36.32.57.44,0,0,.02,0,.02,0,0,0,.01.01.02.01l61.29,34.73v61.43l-117.32-67.63v-207.14h0ZM390.65,388.2l-117.32,67.63v-61.44l86.89-49.66,30.44-17.39v60.87ZM454.65,278.15l-53.33,30.74v-60.83l30.93-17.83,22.4-12.91v60.83Z"/>
    <g class="st0">
      <path class="st1" d="M465.13,206.69c-.04-.16-.13-.3-.19-.45-.1-.28-.19-.57-.34-.83-.1-.17-.25-.32-.36-.48-.16-.21-.29-.43-.48-.62-.15-.15-.35-.27-.52-.4-.2-.15-.37-.33-.59-.45,0,0,0,0,0,0,0,0,0,0,0,0l-64-36.89c-1.65-.95-3.67-.95-5.32,0l-64,36.89s0,0,0,0c0,0,0,0,0,0-.22.13-.39.3-.59.45-.17.13-.37.25-.52.4-.18.19-.32.41-.48.62-.12.16-.26.3-.36.48-.15.26-.24.55-.34.83-.06.15-.14.29-.19.45-.12.45-.18.92-.18,1.4v70.07l-53.33,30.74v-137.07c0-.48-.06-.95-.18-1.4-.04-.16-.13-.3-.19-.45-.1-.28-.19-.57-.34-.83-.1-.17-.25-.32-.36-.48-.16-.21-.29-.43-.48-.62-.15-.15-.35-.27-.52-.4-.2-.15-.37-.33-.59-.45,0,0,0,0,0,0,0,0,0,0,0,0l-64-36.89c-1.65-.95-3.67-.95-5.32,0l-64,36.89s0,0,0,0c0,0,0,0,0,0-.22.13-.39.3-.59.45-.17.13-.37.25-.52.4-.18.19-.32.41-.48.62-.12.16-.26.3-.36.48-.15.26-.24.55-.34.83-.06.15-.14.29-.19.45-.12.45-.18.92-.18,1.4v219.46c0,1.91,1.02,3.67,2.67,4.63l127.99,73.78c.28.16.58.26.88.36.14.05.27.13.41.17.45.12.91.18,1.37.18s.92-.06,1.37-.18c.12-.03.24-.11.36-.15.32-.11.64-.21.93-.38l127.99-73.78c1.65-.95,2.67-2.72,2.67-4.63v-70.07l61.32-35.35c1.65-.95,2.67-2.72,2.67-4.63v-73.15c0-.47-.07-.94-.19-1.39ZM267.99,385.14l-53.23-30.16,55.9-32.22h0s61.33-35.36,61.33-35.36l53.27,30.71-39.09,22.34-78.19,44.69ZM390.65,248.07v60.83l-22.4-12.91-30.93-17.83v-60.83l22.4,12.91,30.93,17.83ZM395.99,177.36l53.31,30.73-53.31,30.73-53.31-30.73,53.31-30.73ZM231.73,332.88l-22.4,12.91v-133.98l30.93-17.83,22.4-12.91v133.98l-30.93,17.83ZM204,141.09l53.31,30.73-53.31,30.73-53.31-30.73,53.31-30.73ZM145.34,181.06l22.4,12.91,30.93,17.83v143.22s0,0,0,0c0,0,0,0,0,.01,0,.21.06.4.08.6.03.26.04.53.11.78,0,0,0,0,0,.01.06.21.17.4.25.6.09.22.16.46.28.67,0,0,0,.01,0,.02.11.19.27.34.4.52.15.19.27.4.44.56,0,0,0,.01.01.02.15.15.34.26.51.39.19.15.36.32.57.44,0,0,.02,0,.02,0,0,0,.01.01.02.01l61.29,34.73v61.43l-117.32-67.63v-207.14h0ZM390.65,388.2l-117.32,67.63v-61.44l86.89-49.66,30.44-17.39v60.87ZM454.65,278.15l-53.33,30.74v-60.83l30.93-17.83,22.4-12.91v60.83Z"/>
    </g>
  </g>
</svg>