<svg xmlns="http://www.w3.org/2000/svg" width="200" height="36.8" viewBox="0 0 200 36.8"><path fill="#FFF" d="M71.672.317c3.8 0 5.5.7 6.6 2 1.6 2 2.4 6.1-.1 16.1-2.5 10-5.4 14-8 16.1-1.8 1.4-3.9 2-7.7 2h-12.1c-3.8 0-5.6-.7-6.6-2-1.6-2-2.4-6.1.2-16.1 2.5-10 5.4-14 8.1-16.1 1.8-1.4 3.9-2 7.7-2h11.9zm-17.7 27.5c.2.3.7.4 2.2.4h4.7c1.6 0 2.1-.1 2.5-.4.5-.4 1.4-1.4 3.3-9.3 2-8 1.7-8.9 1.4-9.3-.2-.4-.6-.5-2.2-.5h-4.6c-1.6 0-2.1.1-2.5.4-.5.4-1.4 1.4-3.3 9.3-2.1 8.1-1.8 9-1.5 9.4zm47.2-2.9c-.4-.5-.8-.7-3.1-.7h-4.6c-.5 0-1 .4-1.1.9l-2.6 10.7c-.1.5-.6.9-1.1.9h-9.4c-.5 0-.8-.4-.7-.9l8.7-34.6c.1-.5.6-.9 1.1-.9h22.2c3.6 0 5.5.5 6.6 1.8 1.2 1.7 1.6 3.4.3 8.5-1.7 6.8-4.2 8.8-8.6 9.6v.1c3.4.9 5.3 2 4.1 7.3-.7 3-1.2 6-1.5 8.1-.1.5-.6 1-1.1 1h-9.6c-.4 0-.8-.3-.7-.8.3-2.2.7-4.5 1.3-7.3.4-2.6.2-3.1-.2-3.7zm-.7-8.6c2 0 2.6-.1 3-.4.7-.5 1.2-1.4 1.7-3.5s.4-2.9 0-3.4c-.3-.3-.8-.4-2.8-.4h-5.1c-.5 0-1 .4-1.1.9l-1.5 6c-.1.5.2.9.7.9l5.1-.1zm47.6-16.3c3.9 0 5.9.5 7.1 1.8 1.4 1.7 1.8 4.2.8 9.8-.1.5-.6.9-1.1.9h-9c-.5 0-.8-.4-.7-.8.4-2.2-.1-2.5-.4-2.9-.2-.3-.6-.4-2.2-.4h-4.7c-1.7 0-2.1.1-2.5.4-.6.5-1.7 2.1-3.4 9.5-1.8 7.4-1.5 9.1-1.2 9.6.2.3.7.4 2.3.4h5c1.5 0 2-.1 2.4-.4.5-.4 1.5-1.4 2-4l.1-.3h-7c-.5 0-.8-.4-.7-.9l1.4-5.8c.1-.5.6-.9 1.1-.9h16.8c.5 0 .8.4.7.9l-.9 3.6c-2 8.9-4.5 12-7 14-1.8 1.6-4.5 2.1-7.9 2.1h-12.2c-3.8 0-5.6-.7-6.7-2.1-1.7-2.1-2.5-6.1-.1-16.2s5.3-14.2 7.9-16.2c1.8-1.5 3.9-2.1 7.7-2.1h12.4zm37.9 36.8h-29.1c-.5 0-.8-.4-.7-.9l8.2-35c.1-.5.6-.9 1.1-.9h33.9c.6 0 .9.6.5 1.2-1.5 2.3-7.1 7.3-13.4 7.3h-11.8c-.5 0-1 .4-1.1.9l-.9 3.9c-.1.5.2.9.7.9h15.9c.5 0 .8.4.7.9l-1.4 6.1c-.1.5-.6.9-1.1.9h-15.9c-.5 0-1 .4-1.1.9l-1.1 4.5c-.1.5.2.9.7.9h17.8c.5 0 .8.4.7.9l-1.6 6.7c0 .4-.5.8-1 .8zM46.272.317h-39.9c-.5 0-1 .4-1.1.9l-1 3.5c-.1.3.1.6.4.8 1.6.5 9.9.7 8.7 5.4l-.3 1.3-3.4 12.7-.3 1.3c-1.3 4.7-5.7 4.9-7.6 5.4-.4.1-.7.5-.8.9l-1 3.5c-.1.5.2.9.7.9h16.2c.5 0 1-.4 1.1-.9l3-11.4c.1-.5.6-.9 1.1-.9h10.4c.5 0 1-.4 1.1-.9l1.6-6c.1-.5-.2-.9-.7-.9h-10.5c-.5 0-.8-.4-.7-.9l1.5-5.4c.1-.5.6-.9 1.1-.9h15.7c.5 0 1-.4 1.1-.9l4.2-6.6c0-.5-.2-.9-.6-.9z"/></svg>