<svg viewBox="191.256 0.131 262.788 58.029" width="262.788" height="58.029" xmlns="http://www.w3.org/2000/svg"><path d="M251.785 56.882h-59.789a.74.74 0 0 1-.74-.741V.87c0-.409.331-.74.74-.74h59.79c.409 0 .74.331.74.74v55.27c0 .41-.332.74-.741.74zM192.737 55.4h58.307V1.612h-58.307V55.4z" fill="#fff"/><path fill="#fff" d="M205.482 2.62v23.032L228.303 2.62h14.606l-21.09 20.17 22.442 31.604h-13.97l-15.638-24.757-9.077 8.486-.181 16.271h44.72V2.62z"/><g fill="#fff"><path d="M263.167 2.387h6v9.885l7.582-9.885h7.453l-8.517 10.138 9.581 15.622h-7.452l-6.194-10.824-2.452 2.887v7.937h-6V2.387zM292.524 7.077h-5.485v-4.69h5.485v4.69zm-5.485 2.345h5.485v18.725h-5.485V9.422zM296.588 9.422h5.323v3.283h.065c.806-2.38 2.678-3.644 5.032-3.644.42 0 .871.036 1.29.145v5.592c-.709-.217-1.354-.36-2.096-.36-2.71 0-4.13 2.092-4.13 4.437v9.272h-5.484V9.422zM314.395 21.978c0 .937.355 1.623.904 2.092.516.433 1.258.65 2.032.65 1.065 0 2.581-.505 2.581-1.985 0-1.443-1.71-1.731-2.678-1.984-3.451-.974-7.775-1.083-7.775-6.134 0-4.51 4.356-5.736 7.646-5.736 3.678 0 7.517 1.19 7.711 6.061h-5.065c0-.793-.258-1.299-.71-1.623-.451-.325-1.065-.47-1.742-.47-.903 0-2.355.109-2.355 1.408 0 1.768 3.678 2.092 6.194 2.706 3.388.758 4.259 3.5 4.259 5.05 0 5.016-4.259 6.675-8.034 6.675-3.968 0-8.033-1.479-8.194-6.71h5.226zM338.978 16.277c-.032-1.587-1.29-2.706-2.678-2.706-3.064 0-3.548 2.923-3.548 5.52 0 2.418.935 4.907 3.258 4.907 1.903 0 2.871-1.226 3.13-3.21h5.322c-.483 5.014-3.968 7.9-8.42 7.9-5.032 0-8.775-3.86-8.775-9.596 0-5.954 3.388-10.21 8.775-10.21 4.162 0 7.872 2.453 8.259 7.395h-5.323zM347.203 2.387h5.485v9.597h.064c.84-1.913 3.097-3.103 5.098-3.103 5.58 0 6.033 4.546 6.033 7.252v12.014h-5.485v-9.056c0-2.562.258-5.16-2.742-5.16-2.065 0-2.968 1.949-2.968 4.005v10.21h-5.485V2.387zM367.527 2.387h5.484v9.092h.065c1.129-1.732 2.71-2.598 4.775-2.598 4.742 0 7.065 4.618 7.065 9.489 0 5.267-2.226 10.318-7.485 10.318-1.936 0-3.549-.938-4.613-2.705h-.065v2.164h-5.226V2.387zm5.291 16.2c0 3.283.839 5.411 3.323 5.411 2.451 0 3.29-2.85 3.29-5.412 0-2.38-.838-5.015-3.258-5.015-1.484 0-3.355 1.155-3.355 5.015zM387.625 15.195c.096-2.454 1.129-4.041 2.613-5.015 1.484-.938 3.42-1.3 5.323-1.3 3.968 0 7.807.975 7.807 6.279v8.19c0 1.587 0 3.319.645 4.798h-5.516c-.194-.577-.258-1.154-.323-1.768-1.42 1.66-3.516 2.31-5.517 2.31-3.194 0-5.71-1.804-5.71-5.665 0-6.097 5.936-5.628 9.743-6.494.935-.217 1.452-.578 1.452-1.732 0-1.407-1.517-1.948-2.646-1.948-1.516 0-2.484.757-2.742 2.345h-5.13zm7.097 9.705c2.613 0 3.484-1.66 3.356-5.52-.775.54-2.194.65-3.388 1.01-1.226.325-2.258.902-2.258 2.381 0 1.516 1.064 2.13 2.29 2.13zM423.627 28.147h-5.323v-2.561h-.064c-1.033 1.912-3.162 3.102-5.098 3.102-4.807 0-6.194-3.102-6.194-8.01V9.423h5.485v10.86c0 2.49.967 3.355 2.71 3.355 1.193 0 3-.866 3-4.185V9.422h5.484v18.725zM427.304 9.422h5.323v2.562h.064c1-1.876 2.774-3.103 4.807-3.103 2.097 0 3.968.757 4.872 3.03 1.322-1.984 2.968-3.03 5.226-3.03 5.323 0 5.904 4.51 5.904 8.081v11.185h-5.485V17.143c0-2.02-.871-3.211-2.29-3.211-2.356 0-2.581 2.02-2.581 5.05v9.165h-5.485V17.504c0-2.201-.58-3.572-2.065-3.572-1.968 0-2.806 1.263-2.806 5.087v9.128h-5.485V9.422z"/></g><g fill="#fff"><path d="M262.55 54.955V43.647h4.116c1.338 0 2.593.079 3.714.848 1.59 1.084 2.008 3.283 2.008 4.79 0 1.493-.351 3.157-1.455 4.288-1.105 1.162-2.678 1.382-4.267 1.382h-4.116zm1.138-.91h2.727c1.02 0 1.908-.063 2.828-.519 1.606-.77 2.008-2.701 2.008-4.24 0-1.65-.385-3.455-2.075-4.303-.72-.362-1.757-.424-2.761-.424h-2.728v9.486zM275.098 51.108c-.016 1.759.987 3.22 2.912 3.22 1.305 0 2.326-.676 2.627-1.87h1.12c-.501 1.54-1.539 2.717-3.747 2.717-2.778 0-3.982-1.853-3.982-4.256 0-2.371 1.505-4.32 3.982-4.32 2.376 0 3.832 1.587 3.815 4.508h-6.727zm5.656-.786c0-1.586-.937-2.874-2.744-2.874-1.774 0-2.71 1.335-2.912 2.874h5.656zM282.861 46.82h1.088l2.81 6.973 2.812-6.973h1.087l-3.363 8.135h-1.121l-3.313-8.135zM292.766 51.108c-.016 1.759.987 3.22 2.912 3.22 1.305 0 2.326-.676 2.627-1.87h1.12c-.501 1.54-1.539 2.717-3.747 2.717-2.778 0-3.982-1.853-3.982-4.256 0-2.371 1.506-4.32 3.982-4.32 2.376 0 3.832 1.587 3.815 4.508h-6.727zm5.656-.786c0-1.586-.937-2.874-2.744-2.874-1.774 0-2.71 1.335-2.911 2.874h5.655zM301.6 54.955V43.647h1.004v11.308h-1.003zM304.595 50.888c0-2.372 1.339-4.288 4.016-4.288 2.71 0 4.015 1.9 4.015 4.288 0 2.575-1.59 4.287-4.015 4.287-2.21-.031-4.016-1.445-4.016-4.287zm4.016-3.44c-2.109 0-2.945 1.68-2.945 3.44 0 2.026 1.02 3.44 2.945 3.44 2.108 0 2.945-1.697 2.945-3.44-.017-1.916-.82-3.44-2.945-3.44zM315.588 58.16h-1.005V46.82h1.005v1.43h.033c.586-1.069 1.908-1.65 3.012-1.65 2.794 0 3.915 1.869 3.915 4.272 0 2.277-1.221 4.303-3.865 4.303-1.222 0-2.46-.534-3.095-1.523v4.507zm2.928-3.833c2.074 0 3.045-1.649 2.961-3.69-.016-2.042-1.271-3.189-2.961-3.189-1.89 0-2.928 1.508-2.928 3.471 0 1.838 1.104 3.408 2.928 3.408zM325.56 54.955h-1.005V46.82h1.004v1.225h.034c.518-.926 1.556-1.445 2.677-1.445 1.606 0 2.175.707 2.543 1.57.57-1.051 1.59-1.57 2.828-1.57 2.36 0 2.694 1.587 2.694 3.22v5.136h-1.004v-5.623c0-1.162-.435-1.885-1.858-1.885-.736 0-1.455.299-1.957.927-.435.534-.57 1.523-.57 2.2v4.38h-1.003v-5.622c0-1.162-.435-1.884-1.858-1.884-.736 0-1.455.298-1.957.926-.435.534-.57 1.524-.57 2.2v4.38zM339.245 51.108c-.016 1.759.987 3.22 2.912 3.22 1.305 0 2.326-.676 2.627-1.87h1.12c-.501 1.54-1.539 2.717-3.747 2.717-2.778 0-3.983-1.853-3.983-4.256 0-2.371 1.506-4.32 3.983-4.32 2.376 0 3.832 1.587 3.815 4.508h-6.727zm5.656-.786c0-1.586-.937-2.874-2.744-2.874-1.774 0-2.71 1.335-2.912 2.874h5.656zM348.933 54.955h-1.004V46.82h1.004v1.13c.803-.8 1.59-1.35 2.794-1.35 1.054 0 2.025.314 2.644 1.163.418.58.435 1.193.435 1.868v5.325h-1.004v-5.31c0-1.46-.636-2.198-2.242-2.198-1.239 0-2.092.754-2.41 1.586-.2.519-.217.974-.217 1.54v4.381zM360.277 54.987c-.235.047-.67.188-1.155.188-.987 0-1.54-.408-1.54-1.618v-5.952h-1.22v-.785h1.22v-2.262h1.005v2.262h1.622v.785h-1.622v5.576c0 .8.033 1.146.87 1.146.267 0 .552-.047.82-.11v.77zM371.805 50.024v-.911h5.153v5.842h-.97v-1.932c-.837 1.351-2.125 2.23-4.501 2.23-3.045 0-5.27-1.994-5.27-6.015 0-3.313 1.773-5.89 5.57-5.89 2.527 0 4.519 1.163 5.037 3.582h-1.171c-.401-1.697-1.991-2.67-3.782-2.67-3.178 0-4.517 2.198-4.517 5.402 0 2.498 1.606 4.68 4.367 4.68 1.305 0 2.844-.517 3.63-1.978.385-.707.503-1.492.52-2.34h-4.066zM380.605 54.955h-1.004V46.82h1.004v1.524h.034c.552-1.304 1.372-1.744 2.827-1.744v1.021c-2.258-.047-2.86 1.524-2.86 3.346v3.988zM384.252 50.888c0-2.372 1.339-4.288 4.016-4.288 2.71 0 4.016 1.9 4.016 4.288 0 2.575-1.59 4.287-4.016 4.287-2.208-.031-4.016-1.445-4.016-4.287zm4.016-3.44c-2.108 0-2.945 1.68-2.945 3.44 0 2.026 1.02 3.44 2.945 3.44 2.108 0 2.945-1.697 2.945-3.44-.017-1.916-.82-3.44-2.945-3.44zM399.997 46.82H401v8.135h-1.004v-1.13c-.536.565-1.272 1.35-2.794 1.35-2.31 0-3.08-1.303-3.08-3V46.82h1.005v5.34c0 1.397.652 2.167 2.225 2.167 1.657 0 2.644-1.288 2.644-3.079V46.82zM404.548 58.16h-1.004V46.82h1.004v1.43h.033c.586-1.069 1.908-1.65 3.012-1.65 2.794 0 3.915 1.869 3.915 4.272 0 2.277-1.221 4.303-3.865 4.303-1.221 0-2.46-.534-3.095-1.523v4.507zm2.928-3.833c2.075 0 3.045-1.649 2.961-3.69-.016-2.042-1.271-3.189-2.961-3.189-1.89 0-2.928 1.508-2.928 3.471 0 1.838 1.104 3.408 2.928 3.408zM415.372 55.426c0 .911-.518 1.477-1.22 1.68v-.58c.267-.157.568-.408.568-1.037v-.534h-.569v-1.382h1.221v1.853zM424.441 54.955V43.647h1.138v10.398h6.458v.91h-7.596zM433.743 54.955V43.647h1.138v10.398h6.459v.91h-7.597zM451.596 46.93c-.469-1.932-1.74-2.67-3.798-2.67-2.912 0-4.166 2.34-4.166 5.01 0 2.529.987 5.073 4.266 5.073 2.075 0 3.364-1.32 3.815-3.11h1.188c-.535 2.183-1.99 4.02-5.22 4.02-3.715 0-5.187-2.748-5.187-5.952 0-4.319 2.41-5.952 5.605-5.952 2.476 0 4.283 1.24 4.668 3.58h-1.17z"/></g><path d="M453.196 37.476H262.648a.847.847 0 0 1-.847-.848v-.38c0-.468.38-.847.847-.847h190.548c.468 0 .847.38.847.847v.38c0 .468-.38.848-.847.848z" fill="#fff"/></svg>