<svg xmlns="http://www.w3.org/2000/svg" width="329" height="50" viewBox="0 0 329 50"><g fill="none" fill-rule="evenodd"><path fill="#DB5000" d="M20 0s20 18.95 20 30a20 20 0 1 1-40 0c0-3.73 2.28-8.37 5.3-12.87A7.51 7.51 0 0 0 20 15.01V0zm-5 0a7.5 7.5 0 0 0 0 15V0z"/><path fill="#474747" d="M78.95 16.03v-6H57.78V42h7.68V29.04h9.27v-5.62h-9.27v-7.39h13.5zm9.84-.29v-5.18h-6.24v5.18h6.24zM88.94 42V18.96H82.4V42h6.53zm18.9-23.14c-4.02-.86-6.71.63-7.96 5l-.34-4.9h-5.52V42h6.53V28.18c0-2.4 1.97-4.23 7.15-3.22l.15-6.1zm21.94 15.41v-.33h-5.52v.86c0 1.68-1.15 3.02-3.5 3.02-2.54 0-3.84-1.44-3.84-3.45v-3.22h12.86V27.5c0-5.23-3.55-8.97-9.45-8.97-5.86 0-9.7 3.79-9.7 9.02v5.9c0 5.29 3.94 8.93 9.75 8.93 5.52 0 9.4-2.97 9.4-8.1zm-5.95-5.57h-6.91v-2.35c0-1.87 1.34-3.21 3.46-3.21 2.1 0 3.45 1.39 3.45 3.21v2.35zm29.67 5.33v-7.39c0-4.51-2.74-8.11-6.77-8.11a7.34 7.34 0 0 0-6.29 3.45V10.03h-6.43V42h4.37l.81-3.26c1.25 2.44 3.84 3.64 6.58 3.64 4.85 0 7.73-3.55 7.73-8.35zm-6.3-.14c0 2.54-1.29 3.93-3.3 3.93-1.83 0-3.46-1.39-3.46-3.79v-6.96c0-2.35 1.44-3.84 3.46-3.84 2.01 0 3.3 1.4 3.3 3.94v6.72zm30.44 8.5v-4.23c-1.2 0-1.78-.43-1.78-1.4v-9.88c0-4.8-2.88-8.35-9.02-8.35-5.62 0-8.88 3.02-8.88 7.39v.67h5.71v-.72c0-1.82 1.15-2.69 3.03-2.69 2.01 0 2.83 1.06 2.83 2.93v2.55c-7.35.14-12.72 2.06-12.72 7.1V36c0 4.03 2.88 6.38 6.81 6.38 3.12 0 5.72-1.24 7.4-3.64.52 2.64 2.16 3.64 4.99 3.64h1.63zm-8.11-7.3c0 1.82-1.78 3.07-3.8 3.07-1.67 0-2.78-1.06-2.78-2.5v-.57c0-2.35 2.21-3.46 6.58-3.36v3.36zm18 6.91V10.03h-6.48V42h6.48zm11.57 0V10.03h-6.48V42h6.48zm32.64-22.27v1.39h7.15v-1.87c0-5.81-4.7-10.08-12.15-10.08-7.87 0-12.96 4.8-12.96 11.66V31.3c0 6.28 4.23 11.61 12.1 11.61 3.8 0 6.96-1.68 8.69-4.41l1 3.5h3.32V25.58h-11.62v4.66h4.66v2.02c0 2.5-1.87 4.46-5 4.46-3.21 0-5.37-2.11-5.37-4.94V20.45c0-2.98 1.87-5.14 5.33-5.14 2.93 0 4.85 1.54 4.85 4.42zm25.77-.87c-4.03-.86-6.72.63-7.97 5l-.33-4.9h-5.52V42h6.53V28.18c0-2.4 1.96-4.23 7.15-3.22l.14-6.1zm22.42 14.4V27.7c0-5.86-4.08-9.17-9.84-9.17s-9.8 3.31-9.8 9.17v5.56c0 5.9 4.04 9.12 9.8 9.12 5.76 0 9.84-3.21 9.84-9.12zm-6.34.92c0 2.35-1.3 3.6-3.5 3.6-2.21 0-3.5-1.25-3.5-3.6v-7.44c0-2.3 1.29-3.6 3.5-3.6 2.2 0 3.5 1.3 3.5 3.6v7.44zM303.83 42V18.96h-6.48v14.35c0 1.92-1.53 4.42-3.65 4.42-1.77 0-2.88-1.15-2.88-3.07v-15.7h-6.52v16.51c0 4.13 2.1 6.91 6.48 6.91 3.16 0 5.7-1.58 7.3-4.94l.28 4.56h5.47zm24.53-7.58v-7.5c0-4.84-2.78-8.4-7.68-8.4a7.25 7.25 0 0 0-6.58 3.75l-.38-3.31h-4.85v30.62h6.43v-9.84a7.23 7.23 0 0 0 6 2.64c3.84 0 7.06-3.55 7.06-7.96zm-6.34-.63c0 2.55-1.24 3.94-3.3 3.94-1.93 0-3.42-1.44-3.42-3.8v-6.9c0-2.5 1.54-3.9 3.41-3.9 2.07 0 3.31 1.4 3.31 3.9v6.76z"/></g></svg>