<svg xmlns="http://www.w3.org/2000/svg" width="215" height="54" viewBox="0 0 215 54"><g fill="none" fill-rule="evenodd"><path fill="#343434" d="M193.28 44.1l-13.23-17.7 12.86-16.92h-11.05l-11 15.76V9.48h-9.39v34.69h9.39V28.6l10.64 15.57h33.05v-8.1h-11.79V9.47h-9.48V44.1zm-124.41.07L54.28 9.48h10.08l6.96 19.4a259.87 259.87 0 0 1 1.16 4.64l.72-2.86c.22-.85.38-1.44.5-1.78l6.9-19.4h10.08L76.1 44.17h-7.22zm21.86 0V9.48h21.31v7.6H99.97v6.02h12.08v7.44H99.97v5.85h12.07v7.78H90.73zm24 0V9.48h9.47v13.48h12.65V9.48h9.5v34.69h-9.5V30.05H124.2v14.12h-9.48zm34.38 0V9.48h9.58v34.69h-9.58z"/><path fill="#D36E2A" d="M9.08 54C3.98 54 0 49.9 0 44.69V9.3C0 4.1 3.99 0 9.08 0c.34 0 .7.02 1.03.06L39.1 3.2c4.18.45 7.46 4.53 7.46 9.27v29.04c0 4.74-3.28 8.82-7.46 9.27L10.1 53.94c-.34.04-.69.06-1.03.06zm0-49.58c-2.65 0-4.65 2.1-4.65 4.9v35.37c0 2.79 2 4.9 4.65 4.9.18 0 .37-.02.55-.04l28.98-3.15c1.9-.2 3.51-2.44 3.51-4.88V12.48c0-2.44-1.6-4.67-3.51-4.88L9.63 4.45a5.13 5.13 0 0 0-.55-.03zM35.6 16.09c.3 1.72-.3 3.48-1.57 4.4-.23.17-.22.38-.23.63-.05 1.63-.31 3.2-.94 4.69a9.27 9.27 0 0 1-4.09 4.54c-1.45.83-3.03 1.38-4.6 2-.71.3-1.4.63-2.1.98-1.02.51-1.52 1.41-1.57 2.63-.03.53.05.9.5 1.25 1.36 1.08 1.86 2.63 1.5 4.46a4.69 4.69 0 0 1-3.16 3.72 4.01 4.01 0 0 1-5.07-2.3 5.04 5.04 0 0 1 1.62-5.86c.2-.16.26-.3.26-.56V17.31c0-.26-.09-.4-.27-.54a4.88 4.88 0 0 1-1.93-4.56 4 4 0 0 1 2.98-3.67c2.06-.62 4.32.6 5.26 2.75.9 2.07.3 4.52-1.44 5.72-.16.1-.26.2-.26.43V28.8l.02.26c.28-.13.53-.26.8-.36 1.3-.5 2.6-.97 3.88-1.48.7-.28 1.38-.6 2.04-.96 1.63-.9 2.49-2.4 2.7-4.38l.06-.99a.55.55 0 0 0-.24-.54 4.87 4.87 0 0 1-1.32-5.7 3.58 3.58 0 0 1 3.94-2.13c1.67.34 2.93 1.92 3.23 3.57zM31.9 19c1.05.05 1.91-.9 1.9-2.1 0-1.18-.84-2.2-1.88-2.26-1.06-.06-1.92.87-1.92 2.07 0 1.21.85 2.23 1.9 2.29zm-13.54-3.63c1.18.06 2.13-.93 2.13-2.2 0-1.25-.96-2.36-2.14-2.44-1.21-.09-2.2.88-2.2 2.17 0 1.3 1 2.4 2.21 2.47zm0 27.88c1.18-.1 2.13-1.2 2.13-2.47 0-1.26-.97-2.24-2.15-2.17-1.2.08-2.18 1.17-2.18 2.45 0 1.3 1 2.3 2.2 2.2z"/></g></svg>