<svg xmlns="http://www.w3.org/2000/svg" width="73" height="84" viewBox="0 0 73 84"><path fill="#FFFFFF" fill-rule="evenodd" d="M14.13 84C6.2 84 0 77.64 0 69.51V14.5C0 6.36 6.2 0 14.13 0c.53 0 1.07.03 1.6.09l45.08 4.9c6.5.7 11.6 7.04 11.6 14.42v45.17c0 7.39-5.1 13.72-11.6 14.43l-45.08 4.9c-.53.06-1.07.09-1.6.09zm0-77.13c-4.13 0-7.24 3.28-7.24 7.62V69.5c0 4.34 3.11 7.62 7.24 7.62.28 0 .57-.02.86-.05l45.07-4.9c2.96-.32 5.46-3.8 5.46-7.6V19.41c0-3.79-2.5-7.27-5.46-7.59l-45.07-4.9a7.98 7.98 0 0 0-.86-.05zm41.24 18.15c.48 2.69-.46 5.42-2.43 6.85-.37.26-.34.6-.36.98-.08 2.54-.49 4.99-1.47 7.3a14.42 14.42 0 0 1-6.35 7.06c-2.27 1.3-4.72 2.14-7.17 3.13-1.1.44-2.17.97-3.24 1.5-1.6.8-2.38 2.2-2.47 4.1-.03.82.09 1.39.8 1.94 2.1 1.68 2.88 4.1 2.32 6.93a7.29 7.29 0 0 1-4.92 5.8 6.24 6.24 0 0 1-7.89-3.6 7.85 7.85 0 0 1 2.52-9.1c.32-.24.42-.48.42-.86V26.93c0-.4-.14-.62-.43-.85a7.6 7.6 0 0 1-3-7.08c.32-3 1.98-4.93 4.63-5.72 3.22-.96 6.72.95 8.18 4.28 1.42 3.22.47 7.03-2.24 8.9-.24.16-.4.3-.4.68.02 5.88.01 11.77.02 17.65 0 .12 0 .24.02.41.43-.2.82-.4 1.23-.56 2.04-.78 4.06-1.51 6.04-2.3 1.09-.44 2.16-.92 3.18-1.49 2.53-1.4 3.86-3.73 4.18-6.82.06-.5.06-1.02.1-1.53a.86.86 0 0 0-.36-.85 7.58 7.58 0 0 1-2.05-8.86 5.58 5.58 0 0 1 6.12-3.32c2.6.54 4.56 2.99 5.02 5.55z"/></svg>