<svg xmlns="http://www.w3.org/2000/svg" viewBox="0 0 155 50" width="155" height="50" class="i-svg i-logo">
    <path d="M99.0722838,39.2499924 C96.009337,45.4464885 89.5364942,49.674125 82.02,49.674125 C71.5525,49.674125 63.0325,41.442875 63.0325,31.262875 C63.0325,21.082875 71.5525,12.851625 82.02,12.851625 C92.49,12.851625 100.93875,21.082875 100.93875,31.262875 C100.93875,32.345375 100.72125,33.500375 100.4325,34.511625 C100.4325,34.511625 91.76875,33.572875 91.76875,33.500375 C92.20125,32.345375 92.4175,32.561625 92.4175,31.262875 C92.4175,25.559125 87.725,20.866625 82.02,20.866625 C76.31625,20.866625 71.625,25.559125 71.625,31.262875 C71.625,36.967875 76.31625,41.660375 82.02,41.660375 C84.5309624,41.660375 86.8762913,40.7529599 88.6826145,39.2499924 L99.0722838,39.2499924 Z"/>
    <polygon points="68.88 34.512 100.433 34.512 93.718 27.436 68.88 27.436"/>
    <path d="M35.5235,12.85125 C25.271,12.85125 16.896,21.0825 16.896,31.26375 C16.896,41.44375 25.271,49.67375 35.5235,49.67375 C45.776,49.67375 54.00725,41.44375 54.00725,31.26375 C54.00725,21.0825 45.776,12.85125 35.5235,12.85125 M35.88475,41.66 C30.17975,41.66 25.48725,36.9675 25.48725,31.26375 C25.48725,25.56 30.17975,20.86625 35.88475,20.86625 C41.5885,20.86625 46.281,25.56 46.281,31.26375 C46.281,36.9675 41.5885,41.66 35.88475,41.66"/>
    <polygon points="46.282 49.241 54.802 49.241 54.802 .503 46.282 .503"/>
    <polygon points="127.723 49.241 136.244 49.241 136.244 .503 127.723 .503"/>
    <polygon points=".794 49.241 9.314 49.241 9.314 13.285 .794 13.285"/>
    <path d="M0,5.05375 C0,7.86875 2.2375,10.10875 5.05375,10.10875 C7.87125,10.10875 10.10875,7.86875 10.10875,5.05375 C10.10875,2.2375 7.87125,0 5.05375,0 C2.2375,0 0,2.2375 0,5.05375"/>
    <polygon points="108.879 49.241 117.4 49.241 117.4 13.285 108.879 13.285"/>
    <path d="M108.08525,5.05375 C108.08525,7.86875 110.324,10.10875 113.14025,10.10875 C115.954,10.10875 118.19275,7.86875 118.19275,5.05375 C118.19275,2.2375 115.954,0 113.14025,0 C110.324,0 108.08525,2.2375 108.08525,5.05375"/>
    <polygon fill="#fd0202" points="146.362 49.241 154.882 49.241 154.882 40.44 146.362 40.44"/>
</svg>
