<svg xmlns="http://www.w3.org/2000/svg" width="74" height="83" viewBox="0 0 74 83"><path fill="#FFFFFF" fill-rule="evenodd" d="M70.07 18.2a7.15 7.15 0 0 1 3.23 5.6v34.86a7.15 7.15 0 0 1-3.23 5.59l-30.2 17.44a7.15 7.15 0 0 1-6.45 0L3.22 64.25A7.16 7.16 0 0 1 0 58.66V23.8a7.15 7.15 0 0 1 3.22-5.59L33.42.77a7.14 7.14 0 0 1 6.45 0l30.2 17.43zM59.97 42.7v-2.92c0-.86-.7-1.56-1.56-1.56h-9.7c-5 0-9.05-4.05-9.05-9.05v-9.7c0-.85-.69-1.55-1.55-1.55h-2.92c-.87 0-1.56.7-1.56 1.56v9.69c0 5-4.05 9.05-9.05 9.05h-9.7c-.85 0-1.55.7-1.55 1.56v2.92c0 .86.7 1.55 1.56 1.55h9.69c5 0 9.05 4.05 9.05 9.05V63c0 .85.7 1.55 1.56 1.55h2.92c.86 0 1.55-.7 1.55-1.55v-9.7c0-5 4.05-9.05 9.06-9.05h9.69c.86 0 1.56-.7 1.56-1.55z"></path></svg>