<svg xmlns="http://www.w3.org/2000/svg" width="300" height="44" viewBox="0 0 300 44"><g fill="none" fill-rule="evenodd"><path fill="#424242" d="M79.94 31.57v3.14H69.86v-3.14h3.27V14.72h-4.8v4.5h-3.47v-7.64h20.07v7.63h-3.47v-4.5h-4.8v16.86h3.28zm24.15 0v3.14H94.07v-3.14h3.24V14.72h-3.24v-3.14h10.02v3.14h-3.24v16.85h3.24zm23.08-12.72c-.06-2.74-.16-3.4-.43-3.67-.2-.2-.46-.3-1.45-.3h-5.95c-1.02 0-1.26.07-1.49.3-.33.33-.46 1.29-.46 7.97 0 6.67.13 7.63.46 7.96.23.23.47.3 1.49.3h6.12c.92 0 1.25-.07 1.48-.3.27-.27.43-1.29.43-4.2v-1.15h-4.86v-3.04h8.46v3.47c0 5.09-.32 6.47-1.35 7.5-.76.76-1.75 1.02-3.6 1.02h-7.44c-1.98 0-2.74-.23-3.44-.92-1.15-1.16-1.58-2.85-1.58-10.64 0-7.8.43-9.49 1.58-10.65.7-.69 1.46-.92 3.44-.92h7.27c1.89 0 2.94.26 3.54.86 1.06 1.06 1.32 2.31 1.39 6.4h-3.6zm32.84 12.72h3.1v3.14h-9.75v-3.14h3.11v-7.33h-9.38v7.33h3.1v3.14h-9.75v-3.14h3.11V14.72h-3.1v-3.14h9.74v3.14h-3.1v6.47h9.38v-6.47h-3.1v-3.14h9.75v3.14H160v16.85zm27.24 0v3.14h-10.08v-3.14h3.27V14.72h-4.8v4.5h-3.47v-7.64h20.07v7.63h-3.47v-4.5h-4.8v16.86h3.28zm14.03-16.85v-3.14h18.12v6.97h-3.47v-3.83h-8v6.47h6.21v3.05h-6.21v7.33h8.26v-4.33h3.47v7.47h-18.38v-3.14h3.1V14.72h-3.1zm44.73 0h-3.1v-3.14h9.48v3.14h-3.04v20h-4.24c-.95 0-1.15-.2-1.55-1.1l-7.73-17.78h-.5v15.73h3.11v3.14h-9.55v-3.14h3.1V14.72h-3.1v-3.14h7.66c.96 0 1.16.2 1.56 1.1l7.4 16.97h.5V14.72zm24.12 19.09c-1.02-1.02-1.32-2.25-1.32-6.97s.3-5.94 1.32-6.96c.63-.64 1.57-.9 3.11-.9h4.43c1.43 0 2.07.29 2.57.78.76.76 1.05 1.8 1.05 4.75h-2.95c-.05-2.04-.17-2.39-.35-2.56-.17-.18-.4-.26-1.07-.26h-3.3c-.9 0-1.13.08-1.34.29-.3.29-.44.84-.44 4.86 0 4.02.15 4.58.44 4.87.2.2.44.3 1.34.3h3.32c.65 0 .94-.07 1.14-.27.2-.2.32-.79.32-2.77h2.95c0 3.26-.3 4.17-1.08 4.95-.47.47-1.2.8-2.57.8h-4.46c-1.54 0-2.48-.27-3.11-.91zm16.92 0c-1.02-1.02-1.31-2.25-1.31-6.97s.29-5.94 1.3-6.96c.65-.64 1.58-.9 3.12-.9h4.5c1.54 0 2.47.26 3.11.9 1.02 1.02 1.32 2.24 1.32 6.96s-.3 5.95-1.32 6.97c-.64.64-1.57.9-3.11.9h-4.5c-1.54 0-2.47-.26-3.11-.9zm2.15-2.1c.2.2.44.3 1.35.3h3.73c.9 0 1.13-.1 1.34-.3.29-.3.43-.85.43-4.87 0-4.02-.14-4.57-.43-4.86-.2-.2-.44-.3-1.34-.3h-3.73c-.9 0-1.14.1-1.35.3-.29.29-.43.84-.43 4.86 0 4.02.14 4.58.43 4.87z"/><path fill="#FBB13D" d="M36.88 9.58c.93.53 1.7 1.86 1.7 2.94v18.34c0 1.08-.77 2.4-1.7 2.94l-15.9 9.17c-.93.54-2.46.54-3.4 0L1.7 33.8A3.77 3.77 0 0 1 0 30.86V12.52c0-1.08.76-2.4 1.7-2.94L17.59.4a3.76 3.76 0 0 1 3.4 0l15.89 9.17zm-5.32 12.88v-1.54a.82.82 0 0 0-.82-.82h-5.1a4.76 4.76 0 0 1-4.77-4.76v-5.1a.82.82 0 0 0-.81-.82h-1.54a.82.82 0 0 0-.82.82v5.1a4.76 4.76 0 0 1-4.77 4.76h-5.1a.82.82 0 0 0-.81.82v1.54c0 .45.36.81.82.81h5.1a4.76 4.76 0 0 1 4.76 4.77v5.1c0 .45.36.81.82.81h1.54c.45 0 .81-.36.81-.81v-5.1a4.76 4.76 0 0 1 4.77-4.77h5.1c.45 0 .82-.36.82-.81z"/></g></svg>