<svg width="279" height="70" viewBox="0 0 279 70" xmlns="http://www.w3.org/2000/svg"><title>vehikl</title><g fill-rule="nonzero" fill="none"><path d="M250.844 57.167V12.276h12.29v34.481h15.283v10.5h-42.843l-13.793-20.183v20.183H209.61V12.29h12.172v20.43l14.26-20.43h14.324l-16.67 21.933 17.15 22.945zm-161.272.09L70.66 12.29h13.067l9.022 25.148a313.501 313.501 0 0 1 1.504 6.015l.933-3.708c.285-1.101.493-1.866.648-2.307l8.945-25.148h13.066l-18.9 44.968h-9.372zm28.337 0V12.29h27.624v9.852h-15.646v7.803h15.66v9.645h-15.66v7.583h15.646v10.085H117.91zm31.111 0V12.29h12.276v17.474h16.398V12.289h12.315v44.968h-12.315V38.954h-16.398v18.303h-12.289.013zm44.567 0V12.29h12.419v44.968h-12.419z" fill="#000"/><path d="M12.067 70C5.456 70 .297 64.685.297 57.931V12.056A11.796 11.796 0 0 1 13.401.078l37.58 4.07c5.418.583 9.67 5.872 9.67 12.017v37.644c0 6.145-4.252 11.434-9.67 12.017l-37.593 4.096c-.443.052-.89.078-1.335.078h.013zm0-64.27c-3.436 0-6.028 2.722-6.028 6.351v45.85c0 3.617 2.592 6.352 6.028 6.352.233 0 .48-.026.713-.052l37.566-4.083c2.463-.26 4.55-3.163 4.55-6.326V16.178c0-3.163-2.074-6.054-4.55-6.326L12.78 5.769a6.65 6.65 0 0 0-.713-.04zm34.377 15.127c.39 2.23-.388 4.512-2.035 5.704-.298.22-.285.493-.298.817a16.722 16.722 0 0 1-1.218 6.08 12.017 12.017 0 0 1-5.302 5.885c-1.88 1.076-3.928 1.788-5.963 2.592-.92.39-1.815.817-2.722 1.27-1.323.662-1.97 1.828-2.036 3.41-.039.687.065 1.166.649 1.62 1.762 1.4 2.41 3.41 1.944 5.782a6.08 6.08 0 0 1-4.096 4.822 5.198 5.198 0 0 1-6.573-2.982 6.533 6.533 0 0 1 2.1-7.596c.26-.207.337-.389.337-.726V22.44a.778.778 0 0 0-.35-.7 6.326 6.326 0 0 1-2.501-5.911 5.185 5.185 0 0 1 3.863-4.758c2.67-.803 5.6.778 6.818 3.565 1.167 2.684.389 5.86-1.867 7.415-.207.13-.337.26-.337.557v14.726l.026.337c.363-.168.687-.337 1.037-.466 1.686-.648 3.37-1.258 5.03-1.919a24.586 24.586 0 0 0 2.644-1.244c2.113-1.167 3.228-3.111 3.5-5.678l.078-1.283a.713.713 0 0 0-.31-.7 6.313 6.313 0 0 1-1.712-7.39 4.64 4.64 0 0 1 5.107-2.76c2.165.44 3.799 2.489 4.187 4.627zm-4.796 3.773c1.361.064 2.476-1.167 2.463-2.723 0-1.53-1.089-2.851-2.437-2.93-1.374-.077-2.489 1.129-2.489 2.684 0 1.569 1.102 2.89 2.463 2.969zm-17.552-4.706c1.53.078 2.761-1.205 2.761-2.852 0-1.62-1.244-3.059-2.774-3.163-1.568-.116-2.852 1.141-2.852 2.813 0 1.685 1.297 3.111 2.865 3.202zm0 36.14c1.53-.129 2.761-1.555 2.761-3.201 0-1.633-1.257-2.904-2.787-2.813a3.15 3.15 0 0 0-2.826 3.176c0 1.685 1.297 2.981 2.852 2.852v-.013z" fill="#E16701"/></g></svg>