<?xml version="1.0" standalone="no"?>
<!DOCTYPE svg PUBLIC "-//W3C//DTD SVG 20010904//EN"
 "http://www.w3.org/TR/2001/REC-SVG-20010904/DTD/svg10.dtd">
<svg version="1.0" xmlns="http://www.w3.org/2000/svg"
 width="512.000000pt" height="512.000000pt" viewBox="0 0 512.000000 512.000000"
 preserveAspectRatio="xMidYMid meet">
<metadata>
Created by potrace 1.11, written by Peter Selinger 2001-2013
</metadata>
<g transform="translate(0.000000,512.000000) scale(0.100000,-0.100000)"
fill="#000000" stroke="none">
<path d="M1063 5093 c-26 -15 -64 -36 -84 -47 -20 -12 -117 -67 -215 -124 -98
-57 -186 -107 -194 -112 -78 -47 -153 -90 -156 -90 -2 0 -25 -13 -51 -29 -60
-36 -122 -72 -195 -112 -32 -17 -64 -42 -73 -56 -15 -22 -16 -177 -16 -1677 0
-908 3 -1664 6 -1679 7 -26 79 -76 210 -146 22 -12 47 -25 55 -31 37 -23 152
-90 156 -90 2 0 32 -17 66 -38 35 -21 88 -52 118 -69 30 -16 228 -130 440
-253 212 -122 403 -232 425 -244 22 -12 114 -65 205 -118 91 -53 183 -106 205
-118 22 -12 45 -26 52 -31 6 -6 25 -14 42 -19 31 -9 60 3 171 68 31 18 78 45
300 173 25 14 175 101 334 193 159 91 291 166 294 166 3 0 13 6 21 14 9 8 39
26 66 41 28 14 64 34 80 44 17 10 109 63 205 118 469 269 531 306 542 326 8
15 11 173 11 555 l0 533 85 49 c46 28 85 50 87 50 2 0 34 19 71 41 38 23 87
52 109 64 22 12 114 64 205 117 91 53 213 123 270 156 58 33 111 70 119 82 12
18 14 116 14 588 0 398 -3 573 -11 588 -6 11 -125 86 -264 166 -139 80 -309
179 -378 218 -69 40 -147 85 -175 101 -27 15 -81 46 -120 68 -38 23 -80 41
-93 41 -14 0 -72 -28 -131 -61 -58 -34 -127 -74 -152 -88 -490 -278 -738 -427
-748 -447 -7 -15 -10 -190 -10 -516 0 -271 0 -510 -1 -530 0 -40 -11 -51 -120
-108 -25 -14 -52 -29 -60 -36 -8 -6 -40 -24 -70 -40 -30 -16 -57 -31 -60 -34
-5 -5 -340 -198 -441 -254 l-47 -26 0 1035 c0 901 -2 1038 -15 1058 -8 12 -52
44 -98 70 -46 27 -91 52 -99 57 -8 6 -130 75 -270 156 -140 80 -280 161 -312
180 -31 19 -58 34 -61 34 -3 0 -35 19 -73 41 -97 59 -113 62 -171 32z m188
-228 c72 -41 135 -75 140 -75 5 0 9 -4 9 -9 0 -5 6 -11 14 -13 19 -4 496 -281
496 -288 0 -6 -498 -293 -517 -298 -7 -2 -13 -8 -13 -13 0 -5 -4 -9 -10 -9 -5
0 -64 -32 -131 -70 -121 -70 -122 -70 -148 -53 -14 10 -35 23 -46 29 -12 6
-153 87 -315 181 -162 93 -319 183 -347 199 -29 16 -53 32 -53 35 0 3 17 15
38 26 20 11 168 96 327 188 160 92 303 174 320 183 16 10 45 27 63 40 19 12
37 22 39 22 2 0 63 -34 134 -75z m3084 -660 c171 -98 342 -197 382 -219 40
-23 73 -44 73 -48 0 -3 -116 -73 -257 -154 -142 -81 -319 -183 -393 -227 -152
-88 -129 -86 -240 -21 -124 73 -307 179 -325 188 -114 62 -363 211 -360 217 6
9 165 99 176 99 5 0 9 5 9 10 0 6 4 10 9 10 5 0 70 36 146 80 76 44 139 80
140 80 1 0 44 25 94 55 51 30 94 55 96 55 2 0 26 14 52 31 26 16 57 28 68 26
11 -2 160 -84 330 -182z m-3985 73 c94 -53 122 -69 380 -218 146 -84 275 -158
287 -164 l22 -11 1 -1085 c0 -1246 -13 -1106 111 -1175 40 -23 180 -101 309
-175 129 -73 260 -147 290 -163 30 -16 60 -33 65 -37 6 -4 42 -24 80 -45 118
-63 107 -7 107 -520 0 -245 -2 -449 -5 -451 -3 -4 -57 25 -107 56 -13 9 -538
310 -630 362 -19 11 -60 34 -90 51 -30 18 -63 37 -73 42 -16 9 -402 232 -491
284 -22 13 -61 35 -86 49 -25 14 -57 33 -72 43 -14 11 -30 19 -35 19 -5 0 -31
15 -60 34 -28 18 -64 39 -81 47 l-30 13 0 1553 0 1553 32 -18 c17 -10 51 -30
76 -44z m1649 45 c0 -128 2 -1867 2 -1918 l-1 -71 -167 -96 c-93 -53 -270
-155 -396 -227 -125 -72 -229 -131 -231 -131 -2 0 -3 451 -2 1002 l1 1002 95
54 c52 30 115 66 140 80 25 14 74 42 109 64 34 21 64 38 66 38 1 0 87 49 191
110 104 60 190 110 191 110 1 0 2 -8 2 -17z m2880 -977 c0 -341 -3 -457 -12
-464 -7 -5 -28 -19 -47 -30 -19 -10 -123 -70 -230 -132 -107 -61 -213 -122
-235 -135 -22 -12 -85 -48 -140 -80 -55 -31 -106 -61 -112 -67 -7 -6 -14 -9
-15 -7 0 2 -2 207 -3 456 l-2 451 226 130 c124 72 282 163 351 203 69 40 142
81 162 91 20 10 40 22 43 28 3 5 8 10 10 10 3 0 4 -204 4 -454z m-1678 406
c35 -21 84 -49 109 -63 25 -13 47 -27 48 -31 2 -5 8 -8 13 -8 5 0 64 -32 132
-72 67 -39 138 -80 157 -90 61 -33 145 -82 170 -100 14 -10 29 -18 35 -18 5 0
20 -8 33 -18 l23 -18 0 -399 c0 -220 0 -424 0 -453 l-1 -53 -32 18 c-18 10
-35 20 -38 23 -3 3 -21 13 -40 24 -96 51 -597 341 -612 354 -10 8 -18 12 -18
8 0 -4 -13 2 -29 13 l-28 20 0 451 c0 247 3 450 7 450 5 0 37 -17 71 -38z m49
-1125 c144 -81 195 -112 198 -119 2 -4 11 -8 20 -8 8 0 23 -6 31 -13 9 -8 89
-56 179 -107 153 -86 162 -93 140 -104 -64 -34 -1127 -641 -1150 -657 -15 -10
-29 -19 -32 -19 -2 0 -91 -50 -197 -111 -107 -61 -219 -125 -249 -141 -30 -17
-64 -37 -75 -44 -11 -8 -25 -14 -32 -14 -7 0 -127 65 -266 143 -138 79 -314
179 -389 222 -76 42 -138 79 -138 80 0 3 105 65 300 177 52 30 155 89 227 131
73 43 137 77 142 77 5 0 11 4 13 8 2 4 30 23 63 41 108 61 111 63 415 238 124
72 241 140 260 152 19 11 42 24 50 28 8 4 75 42 148 84 l133 77 87 -50 c48
-28 103 -60 122 -71z m671 -529 c0 -24 0 -225 0 -447 1 -393 0 -404 -20 -422
-11 -10 -23 -19 -26 -19 -3 0 -49 -25 -103 -56 -163 -95 -635 -366 -674 -388
-20 -12 -92 -53 -160 -93 -68 -39 -139 -80 -158 -91 -40 -22 -278 -159 -330
-191 -19 -11 -42 -24 -50 -28 -8 -4 -58 -32 -110 -63 -52 -31 -102 -59 -111
-62 -16 -6 -17 30 -17 451 l1 457 341 194 c187 107 350 200 361 206 11 6 133
76 270 154 138 79 261 150 275 157 14 8 129 74 255 147 127 74 236 134 243
135 8 1 12 -14 13 -41z"/>
</g>
</svg>
