<svg width="24" height="24" viewBox="0 0 24 24" fill="none" xmlns="http://www.w3.org/2000/svg">
<path fill-rule="evenodd" clip-rule="evenodd" d="M8.5 3.5C8.5 1.567 10.067 0 12 0C13.933 0 15.5 1.567 15.5 3.5C15.5 5.433 13.933 7 12 7C10.067 7 8.5 5.433 8.5 3.5ZM4.06563 4.52002L4.76691 5.35837C6.00451 6.83786 8.68581 7.99998 11.9999 7.99998C15.314 7.99998 17.9953 6.83786 19.2329 5.35837L19.9341 4.52002L22.9141 7.49998L22.207 8.20708C20.2879 10.1262 18.7714 11.1918 16.4999 12.1681V24H7.4999V12.1681C5.22837 11.1918 3.71195 10.1262 1.7928 8.20709L1.08569 7.49998L4.06563 4.52002Z" fill="#F9332B"/>
</svg>
