<svg width="24" height="24" viewBox="0 0 24 24" fill="none" xmlns="http://www.w3.org/2000/svg">
<g clip-path="url(#clip0_1_1342)">
<path fill-rule="evenodd" clip-rule="evenodd" d="M12 0H11V24H12C15.1826 24 18.2348 22.7357 20.4853 20.4853C22.7357 18.2348 24 15.1826 24 12C24 8.8174 22.7357 5.76516 20.4853 3.51472C18.2348 1.26428 15.1826 0 12 0ZM9.29904 4.32178L7.29904 0.857676L4.70096 2.35768L6.70096 5.82178L9.29904 4.32178ZM2.35768 4.70096L5.82178 6.70096L4.32178 9.29904L0.857676 7.29904L2.35768 4.70096ZM4 13.5H0V10.5H4V13.5ZM4.70096 21.6423L6.70096 18.1782L9.29904 19.6782L7.29904 23.1423L4.70096 21.6423ZM4.32178 14.701L0.857676 16.701L2.35768 19.299L5.82178 17.299L4.32178 14.701Z" fill="#F9332B"/>
</g>
<defs>
<clipPath id="clip0_1_1342">
<rect width="24" height="24" fill="white"/>
</clipPath>
</defs>
</svg>
