<svg width="49" height="40" viewBox="0 0 49 40" xmlns="http://www.w3.org/2000/svg"><title>laracast</title><path d="M14.21 15.79h14.737a1.579 1.579 0 1 1 0 3.157H14.211a1.579 1.579 0 0 1 0-3.158zm-7.368 0h2.105a1.579 1.579 0 1 1 0 3.157H6.842a1.579 1.579 0 1 1 0-3.158zm2.105 5.263h14.737a1.579 1.579 0 1 1 0 3.158H8.947a1.579 1.579 0 0 1 0-3.158zm-7.368 0h2.105a1.579 1.579 0 1 1 0 3.158H1.58a1.579 1.579 0 1 1 0-3.158zm11.053 6.09h4.21v5.714L42.105 20 16.842 7.143v5.714h-4.21V0l34.521 17.913a2.35 2.35 0 0 1 0 4.174L12.632 40V27.143z" fill="#FFF" fill-rule="nonzero"/></svg>